<?xml version="1.0" encoding="UTF-8"?>
<!DOCTYPE svg PUBLIC "-//W3C//DTD SVG 1.1//EN" "http://www.w3.org/Graphics/SVG/1.1/DTD/svg11.dtd">
<!-- Creator: CorelDRAW (Versão OEM) -->
<svg xmlns="http://www.w3.org/2000/svg" xml:space="preserve" width="210mm" height="297mm" version="1.1" style="shape-rendering:geometricPrecision; text-rendering:geometricPrecision; image-rendering:optimizeQuality; fill-rule:evenodd; clip-rule:evenodd"
viewBox="0 0 21000 29700"
 xmlns:xlink="http://www.w3.org/1999/xlink"
 xmlns:xodm="http://www.corel.com/coreldraw/odm/2003">
 <defs>
  <style type="text/css">
   <![CDATA[
    .fil0 {fill:#0BB8F4;fill-rule:nonzero}
    .fil1 {fill:#0F4659;fill-rule:nonzero}
   ]]>
  </style>
 </defs>
 <g id="Camada_x0020_1">
  <metadata id="CorelCorpID_0Corel-Layer"/>
  <g id="_2917801204512">
   <path class="fil0" d="M12780.11 13553.19c-0.38,0.64 -1.03,1.25 -1.11,1.89 -0.05,0.69 0.51,1.45 0.76,2.23 0.39,-0.6 0.78,-1.24 1.17,-1.85 -0.27,-0.77 -0.56,-1.5 -0.82,-2.27z"/>
   <path class="fil0" d="M12756.9 17219.58c0.22,-0.93 0.44,-1.93 0.64,-2.87 -1.24,-0.22 -2.44,-0.42 -3.68,-0.64 0.34,1.58 0.68,3.17 1.03,4.75 0.65,-0.42 1.37,-0.85 2.01,-1.24z"/>
   <path class="fil0" d="M12768.99 17087.29l-0.42 0.12c1.07,2.45 2.14,4.91 3.21,7.35 -0.94,-2.49 -1.85,-5.02 -2.79,-7.47z"/>
   <path class="fil0" d="M12768.39 17370.53c-17.04,19.39 -17.04,19.39 -7.26,45.44 2.71,-16.78 4.55,-28.41 7.26,-45.44z"/>
   <path class="fil0" d="M12769.66 17123.95c-1.2,-1.12 -2.44,-2.19 -4.41,-3.91 -1.21,2.32 -2.33,4.64 -3.48,6.95 1.29,1.04 3.17,3.36 3.78,2.89 1.67,-1.38 2.79,-3.91 4.11,-5.93z"/>
   <polygon class="fil0" points="12765.02,17173.88 12763.81,17173.63 12764.2,17175.34 "/>
   <path class="fil0" d="M12767.25 17087.73l1.29 -0.34c-0.04,-0.14 -0.08,-0.27 -0.17,-0.39l-1.12 0.73z"/>
   <path class="fil0" d="M12793.89 15946.79c0.64,-11 1.29,-22.37 2.36,-40.57 -7.3,23.52 -7.47,24.38 -2.36,40.57z"/>
   <path class="fil0" d="M12794.13 15950.12c-0.39,3.6 -0.81,7.17 -1.2,10.77 1.29,-0.17 2.66,-0.38 3.95,-0.51 -0.9,-3.4 -1.8,-6.83 -2.75,-10.26z"/>
   <polygon class="fil0" points="12780.52,16994.43 12779.48,16996.45 12781.08,16996.76 "/>
   <path class="fil0" d="M12793.89 15946.79c-0.05,0.63 -0.09,1.32 -0.14,2 0.14,0.44 0.27,0.87 0.39,1.34 0.05,-0.64 0.14,-1.25 0.22,-1.9 -0.17,-0.54 -0.3,-0.93 -0.47,-1.44z"/>
   <path class="fil0" d="M12821.41 12938.35c0,1.34 0.12,2.66 0.17,3.99 -0.05,-1.33 -0.13,-2.65 -0.17,-3.99z"/>
   <path class="fil0" d="M12790.86 13667.17c0.64,1.49 1.42,2.87 2.19,4.28 1.07,-1.11 2.19,-2.28 3.26,-3.38 -1.21,-0.9 -2.31,-2.07 -3.6,-2.62 -0.48,-0.18 -1.89,1.58 -1.85,1.72z"/>
   <path class="fil0" d="M12742.45 16654.82c-1.21,0.17 -2.5,0.43 -3.74,0.6l0 20.7c2.06,-0.31 4.08,-0.61 6.1,-0.95 -0.78,-6.78 -1.55,-13.57 -2.36,-20.35z"/>
   <path class="fil0" d="M12785.43 16965.36c-0.51,-1.63 -1.41,-3.04 -2.19,-4.55 -1.03,1.34 -2.05,2.7 -3.13,4.04 1.28,0.99 2.45,2.06 3.83,2.7 0.29,0.14 1.63,-1.76 1.49,-2.19z"/>
   <path class="fil0" d="M12790.51 17159.82c-1.84,-0.17 -3.69,-0.39 -5.54,-0.56 -0.34,9.31 -0.73,18.66 -1.07,27.98 0.9,0.09 1.85,0.14 2.7,0.17 1.29,-9.22 2.62,-18.41 3.91,-27.59z"/>
   <path class="fil0" d="M12762.19 16657.76c1.58,-0.21 3.18,-0.47 4.81,-0.68 1.33,-37.39 4.93,-75.04 3.26,-112.21 -1.29,-29.65 -1.42,-58.24 4.72,-86.79 2.28,-10.81 0.82,-19.39 -10.39,-28.15 -11.5,72.88 -3.09,143.66 -6.86,213.41 -0.31,4.68 2.92,9.61 4.46,14.42z"/>
   <path class="fil0" d="M12698.56 12991.18c-0.17,-1.72 -0.34,-3.48 -0.51,-5.2 -0.51,0.73 -1.07,1.55 -0.94,1.97 0.29,1.16 0.9,2.19 1.45,3.23z"/>
   <path class="fil0" d="M12697.93 12984.92c0.05,0.34 0.08,0.69 0.08,1.07 0.17,-0.2 0.31,-0.42 0.44,-0.59 2.01,-2.62 4.08,-5.2 6.13,-7.78 0,-0.17 0.05,-0.37 0.05,-0.59 -0.13,-0.05 -0.27,-0.09 -0.44,-0.14 -2.1,2.67 -4.16,5.37 -6.26,8.03z"/>
   <path class="fil0" d="M12698.8 12962.95c2.1,0.56 4.25,1.17 6.35,1.76 0.13,-0.03 0.3,-0.12 0.47,-0.17 0,-0.17 0.04,-0.34 0.04,-0.56 -2.27,-0.34 -4.59,-0.68 -6.86,-1.03z"/>
   <path class="fil0" d="M12509.53 17681.72c0.26,-0.9 0.48,-1.76 0.73,-2.66 -0.81,0.56 -1.63,1.17 -2.44,1.72 0.59,0.3 1.15,0.6 1.71,0.94z"/>
   <path class="fil0" d="M12699.35 12992.87c-0.27,-0.56 -0.52,-1.16 -0.78,-1.72 0.09,0.82 0.17,1.63 0.22,2.41l0.56 -0.69z"/>
   <path class="fil0" d="M11025.94 15219.14c0.65,0.73 1.24,1.49 1.89,2.22 -0.05,-0.56 0,-1.15 -0.22,-1.63 -0.21,-0.47 -1.12,-0.42 -1.67,-0.59z"/>
   <path class="fil0" d="M12717.25 12960.1c-3.91,1.45 -7.76,2.96 -11.63,4.46 -0.34,4.17 -0.65,8.33 -0.99,12.49 3.91,1.16 7.86,2.36 11.63,3.52 -2.53,37.13 8.2,45.37 41.98,30.39 -5.76,-0.78 -11.5,-1.54 -20.26,-2.7 0.95,-18.34 1.89,-36.83 2.92,-56.19 23.18,-11.93 26.83,-43.18 36.87,-68.04 1.46,-3.65 -0.6,-12.39 -3.43,-17.08 -4.55,0.87 -9.06,2.36 -13.35,5.03 -0.34,1.03 -0.78,2.02 -1.07,3.04 -0.9,2.66 -3.35,4.38 -6.57,8.33 -0.31,-1.97 -0.65,-3.7 -1.04,-5.58 -19.01,12.92 -37.73,25.98 -56.35,39.1 0.17,9.27 0.64,18.72 2.36,28.63 0.81,4.52 12.15,6.23 18.93,14.6z"/>
   <path class="fil0" d="M12794.39 16485.45c-0.04,-0.78 -0.09,-1.51 -0.12,-2.28 -0.09,-0.22 -0.14,-0.44 -0.18,-0.69 -0.13,0.44 -0.21,0.86 -0.35,1.29 0.22,0.56 0.44,1.12 0.65,1.68z"/>
   <path class="fil0" d="M12757.63 17334.25c6.74,13.77 13.62,21.41 25.72,15.35 -7.35,-6.52 -11.59,-22.53 -25.72,-15.35z"/>
   <path class="fil0" d="M12776.76 17435.77c1.46,-0.82 3.65,-1.21 4.16,-2.58 0.47,-1.41 -0.77,-3.81 -1.29,-5.79 -1.46,0.86 -3.52,1.33 -4.16,2.79 -0.51,1.16 0.81,3.69 1.29,5.58z"/>
   <path class="fil0" d="M12751.17 16819.8c6.86,-15.19 13.57,-25.75 2.06,-39.06 -0.6,11.51 -1.21,23.06 -2.06,39.06z"/>
   <path class="fil0" d="M12795.69 16488.78c-0.34,-1.16 -0.85,-2.23 -1.28,-3.35 0.09,1.68 0.17,3.35 0.29,4.98 0.36,-0.51 1.09,-1.33 0.99,-1.63z"/>
   <path class="fil0" d="M12755.89 16744.96c-0.56,-0.26 -1.41,0.46 -2.14,0.76 0.08,1.04 0.12,2.07 0.21,3.1 1.16,-0.52 2.27,-1.03 3.44,-1.55 -0.48,-0.82 -0.86,-2.06 -1.51,-2.31z"/>
   <path class="fil0" d="M11112.49 15281.04c0,0 0,0 0,0 0,0 0,0 0,0 0,0 0,0 0,0 0,0 0,0 0,0z"/>
   <path class="fil0" d="M12788.64 16458.53c1.8,7.99 3.65,15.98 5.45,23.96 2.71,-8.71 4.34,-17.25 -5.45,-23.96z"/>
   <path class="fil0" d="M11455.5 15023.32l0.17 1.12c-0.05,0.17 -0.13,0.39 -0.22,0.6 0.22,0.04 0.39,0.04 0.56,0.08l-0.51 -1.8z"/>
   <path class="fil0" d="M12743.81 17610.4c-0.65,-0.34 -1.55,-1.24 -1.94,-0.94 -0.56,0.47 -0.73,1.72 -1.32,3.26 1.32,-0.98 2.31,-1.67 3.26,-2.32z"/>
   <path class="fil0" d="M12902.45 13542.61c2.57,6.96 0.39,16.96 0.39,25.37 2.36,0.35 5.27,1.29 5.41,0.78 7.25,-24.13 12.49,-48.55 16.04,-74.39 -5.28,-16.69 -10.37,-33.47 -15.31,-50.26 -1.24,7.38 -2.75,14.77 -4.94,22.14 -6.83,23.36 -11.33,50.14 -1.59,76.36z"/>
   <path class="fil0" d="M12801.4 16385.03c-1.29,12.84 -2.11,20.91 -2.88,28.58 6.78,-10.9 6.83,-11.84 2.88,-28.58z"/>
   <path class="fil0" d="M11611.18 14991.08c-21.93,-8.54 -24.93,-5.32 -21.11,19.15 0.25,1.63 0.34,3.34 0.47,5.06 2.53,-4.33 4.84,-9.02 7.9,-12.62 3.38,-4.12 7.59,-7.04 12.74,-11.59z"/>
   <path class="fil0" d="M11590.53 15015.28c-0.18,0.29 -0.35,0.59 -0.52,0.9 0,0.42 -0.04,0.64 0,1.07 0.22,-0.09 0.43,-0.22 0.64,-0.34 -0.04,-0.56 -0.08,-1.07 -0.12,-1.63z"/>
   <path class="fil0" d="M12798.32 16415.66c0.08,-0.65 0.12,-1.34 0.2,-2.02 -0.34,0.51 -0.42,0.76 -0.76,1.29 -0.05,0.98 -0.09,1.92 -0.14,2.9 0.22,-0.71 0.43,-1.44 0.7,-2.17z"/>
   <path class="fil0" d="M12800.9 13580.29c-0.48,5.88 -0.9,10.87 -1.29,15.85 6.69,-3.06 7.67,-7.9 1.29,-15.85z"/>
   <path class="fil0" d="M12799.59 13596.12c-0.25,0.14 -0.34,0.27 -0.6,0.39l-1.33 0.61 1.85 0.04c0.04,-0.34 0.04,-0.68 0.08,-1.04z"/>
   <path class="fil0" d="M12904.72 13593.31c0.73,-1.29 1.97,-2.58 2.05,-3.94 0.05,-1.12 -1.29,-2.37 -2.1,-3.7 -0.51,1.97 -1.16,3.65 -1.38,5.45 -0.08,0.61 0.9,1.46 1.43,2.19z"/>
   <path class="fil0" d="M11669.36 15119.43c4.68,-4.38 9.49,-8.88 17.34,-16.19 -17.94,-5.45 -17,6.27 -17.34,16.19z"/>
   <path class="fil0" d="M12454.49 17712.77c-0.12,-0.04 -0.29,-0.08 -0.46,-0.13 0,0.3 0.03,0.6 0.03,0.95l0.43 -0.82z"/>
   <path class="fil0" d="M11876.89 15428.43c5.11,0 10.26,0 15.37,-0.04 -0.04,-0.18 -0.12,-0.39 -0.12,-0.6l0.68 0.6c-5.32,-5.93 -10.6,-9.4 -15.88,-0.69 0.09,0.04 0.17,0.04 0.26,0.04 -0.14,0.26 -0.22,0.47 -0.31,0.69z"/>
   <path class="fil0" d="M12470.52 17609.59c0,0.12 -0.04,0.29 -0.04,0.42 15.53,-4.68 17.04,-7.64 10.39,-20.43 -0.22,0 -0.48,0 -0.7,0.04 -3.29,6.61 -6.6,13.23 -9.9,19.83 0.08,0.04 0.12,0.14 0.25,0.14z"/>
   <path class="fil0" d="M11866.86 15380.01l0.47 -1.25c-0.1,0.08 -0.18,0.13 -0.27,0.17l-0.2 1.08z"/>
   <path class="fil0" d="M11669.36 15119.43c-0.22,0.2 -0.47,0.42 -0.64,0.59 0.08,0.26 0.17,0.53 0.25,0.73 0.13,0.05 0.22,0.09 0.35,0.17 0,-0.51 0.04,-1.02 0.04,-1.49z"/>
   <path class="fil0" d="M12055.97 15335.33c0.05,-2.14 0.1,-4.28 0.18,-6.47 -0.05,0.08 -0.08,0.17 -0.13,0.21 0,2.1 0,4.16 -0.05,6.26z"/>
   <path class="fil0" d="M11027.82 15221.37c0.04,0.48 0.13,0.87 0.17,1.34 0.13,0.04 0.25,0.12 0.39,0.17 0,-0.25 0.04,-0.51 0.04,-0.78 -0.18,-0.25 -0.39,-0.46 -0.6,-0.73z"/>
   <path class="fil0" d="M12646.13 16833.49l0 -15.49c-0.69,0 -1.37,0 -2.07,0l0 15.53c0.7,0 1.38,-0.04 2.07,-0.04z"/>
   <path class="fil0" d="M12680.83 13353.15c-2.09,19.78 -4.24,39.56 -6.52,60.69 5.71,2.58 10.17,4.58 18.8,8.45 -5.49,-25.79 10.35,-49.14 -12.28,-69.14z"/>
   <path class="fil0" d="M12657.97 16431.4c-4.34,40.74 -10.65,81.47 -1.76,122.55 -3.96,-40.94 8.54,-81.51 1.76,-122.55z"/>
   <path class="fil0" d="M12635.36 17043.64c0.7,-4.25 1.38,-8.5 2.02,-12.76 -1.54,3.62 -3.14,7.22 -4.72,10.82 0.9,0.65 1.8,1.29 2.7,1.94z"/>
   <path class="fil0" d="M12665.84 17589.45c-0.51,-0.73 -0.98,-1.41 -1.51,-2.14 1.04,-0.73 2.02,-1.43 3.06,-2.11 0.12,0.99 0.56,2.11 0.3,2.87 -0.27,0.65 -1.2,0.95 -1.85,1.38zm17.43 37.04c3.22,-5.36 5.14,-12.15 4.55,-21.33 -5.2,4.63 -10.35,9.35 -17.99,16.26 -0.3,-7.89 -1.46,-12.39 -0.47,-15.74 8.06,-27.22 5.92,-36.18 -12.31,-48.25l0.12 -2.19 -0.26 1.37c-3.94,19.61 -7.9,39.24 -11.8,58.85 10.95,29.19 1.24,59.28 0.47,89.24 6.27,-1.72 12.45,-3.52 18.67,-5.32 0.05,-19.19 3.56,-37.87 6.79,-56.49 1.07,-6.35 8.57,-10.35 12.23,-16.4z"/>
   <path class="fil0" d="M12731.99 16797.47c2.11,-14.76 3.4,-23.91 4.72,-33.04 -6.14,7.42 -14.21,15.79 -4.72,33.04z"/>
   <path class="fil0" d="M12730.33 17590.63c0.9,0.64 2.53,-0.6 3.82,-1.03 -0.68,-1.64 -1.07,-4.12 -2.06,-4.68 -1.12,-0.61 -2.8,0.56 -4.21,0.99 0.82,1.63 1.33,3.9 2.45,4.72z"/>
   <path class="fil0" d="M12637.4 17030.88c0.26,-0.59 0.52,-1.19 0.77,-1.8 -0.04,-0.68 -0.04,-1.37 -0.08,-2.05 -0.09,0.42 -0.17,0.9 -0.31,1.32 -0.12,0.87 -0.25,1.68 -0.38,2.53z"/>
   <path class="fil0" d="M12699.29 13147.05c2.65,-15.16 10.43,-30.09 0,-52.54l0 52.54z"/>
   <path class="fil0" d="M12639.37 16442.58c-1.29,0.99 -3.14,1.63 -3.61,3.04 -0.43,1.16 0.86,3.26 1.42,4.98 1.15,-0.81 2.32,-1.63 3.51,-2.45 -0.47,-1.84 -0.9,-3.73 -1.32,-5.57z"/>
   <path class="fil0" d="M12637.55 17017c0.17,3.35 0.34,6.69 0.51,10.04 0.65,-3.13 1.29,-6.3 1.98,-9.44 -0.86,-0.22 -1.67,-0.39 -2.49,-0.6z"/>
   <polygon class="fil0" points="12640.25,16974.17 12638.66,16974.9 12640.04,16976.24 "/>
   <path class="fil0" d="M12589.65 17716.81c-0.34,0.44 -0.34,1.38 -0.42,2.24 1.07,-0.25 2.14,-0.56 3.17,-0.81 -0.17,-0.56 -0.34,-1.12 -0.56,-1.68 -0.78,0.05 -1.76,-0.26 -2.19,0.25z"/>
   <path class="fil0" d="M12628.67 17703.07c1.38,-0.91 3.31,-1.46 3.82,-2.89 0.48,-1.19 -0.68,-3.47 -1.12,-5.28 -1.32,0.82 -3.43,1.21 -3.82,2.54 -0.42,1.42 0.7,3.69 1.12,5.63z"/>
   <polygon class="fil0" points="12630.91,17635.9 12631.12,17637.41 12631.12,17635.14 "/>
   <path class="fil0" d="M12639.67 16467.79c-1.16,-0.44 -2.31,-0.81 -3.47,-1.2 -2.32,5.36 -4.63,10.73 -9.49,22.11 7.64,-4.38 11.68,-5.03 12.62,-7.65 1.33,-3.65 0.34,-8.79 0.34,-13.26z"/>
   <path class="fil0" d="M12628.91 17603.54c-0.64,-0.39 -1.46,-1.24 -1.88,-0.99 -0.52,0.3 -0.69,1.55 -1.07,2.45 0.63,0.34 1.28,0.68 1.92,1.07 0.34,-0.86 0.69,-1.72 1.03,-2.53z"/>
   <path class="fil0" d="M11576.05 15296.34c0.26,0 0.46,-1.42 0.68,-2.19 -0.68,-0.3 -1.37,-0.86 -2.02,-0.86 -0.25,0.04 -0.47,1.42 -0.68,2.19 0.68,0.35 1.38,0.9 2.02,0.86z"/>
   <polygon class="fil0" points="11396.14,15210.05 11395.27,15207.43 11394.42,15210.01 "/>
   <path class="fil0" d="M11520.31 15146.63c1.07,-1.15 2.24,-2.22 3.26,-3.51 0.09,-0.04 -0.85,-2.23 -1.32,-2.19 -1.38,0.08 -2.75,0.78 -4.16,1.2 0.73,1.51 1.46,3.01 2.22,4.5z"/>
   <path class="fil0" d="M11454.67 15347.89c5.62,-4.64 11.24,-9.24 17.78,-14.6 -13.48,-13.05 -16.49,0.05 -17.78,14.6z"/>
   <path class="fil0" d="M12411.4 17697.91c-1.42,-0.27 -2.49,-3.79 -3.69,-5.84 1.71,-1.6 3.39,-4.42 5.06,-4.42 1.54,0.04 3,3.21 5.45,6.13 -3.13,2.02 -5.15,4.47 -6.82,4.13zm-7.17 -70.88c-0.13,-0.37 1.03,-2.14 1.29,-2.02 1.25,0.56 2.36,1.51 3.82,2.58 -1.07,1.24 -2.11,2.45 -3.09,3.65 -0.73,-1.37 -1.55,-2.7 -2.02,-4.21zm-109.28 -740.63l0.86 -1.67 0.55 1.85 -1.41 -0.18zm-133.44 716.08c-8.94,14.17 -18.43,27.61 -15.85,48.29 -13.68,-7.55 -25.23,-13.13 -36.35,-20.17 -9.53,-6.05 -14.64,-17.51 -11.21,-30.74 3.23,-12.61 8.17,-25.36 14.69,-35.37 12.87,-19.69 33.21,-21.37 48.02,-4.11 4.35,5.01 6.27,15.54 6.66,23.78 0.3,5.96 -2.84,13.26 -5.96,18.32zm-66.45 -580.92c4.72,8.64 8.66,13.01 9.31,18.12 0.35,2.92 -4.64,7.05 -7.2,10.61 -2.58,-3.7 -6.62,-7 -7.35,-11.29 -0.64,-3.78 2.41,-8.68 5.24,-17.44zm9.66 310.39c-0.56,0.59 -1.08,1.15 -1.63,1.75 -0.44,-0.73 -1.25,-1.5 -1.17,-2.14 0.05,-0.65 0.95,-1.21 1.51,-1.77 0.43,0.7 0.85,1.43 1.29,2.16zm-281.23 -1781.47c-1.34,2.14 -2.66,4.33 -4.04,6.49 -0.56,-0.78 -1.12,-1.55 -1.68,-2.33 2.11,-1.63 4.21,-3.26 6.27,-4.85l1.03 0.56 -1.58 0.13zm-37.98 -122.2l-0.7 -2.32 1.51 0.09 -0.81 2.23zm-5.72 115.51c-1.24,0.38 -2.84,-1.03 -4.25,-1.68 0.87,-1.54 1.55,-3.82 2.75,-4.46 0.9,-0.52 2.45,0.98 3.74,1.67 -0.73,1.55 -1.29,4.12 -2.24,4.47zm-78.89 234.91c-0.51,-2.48 -1.07,-4.98 -1.58,-7.47 3.51,-1.58 7.03,-3.21 10.59,-4.81 0.56,2.7 1.8,7.61 1.51,7.78 -3.39,1.92 -6.96,3.12 -10.52,4.5zm-46.06 -213.02c10.57,-10.61 12.11,-35.63 30.78,-31.89 1.81,23.35 -9.19,36.22 -30.78,31.89zm-5.41 -153.79l-1.8 -1.72 2.24 -0.73 -0.44 2.45zm-69.1 332.3c-1.25,-2.07 -3.52,-4.21 -3.48,-6.23 0.09,-2.75 1.89,-5.4 4.08,-10.81 2.58,7.08 4.47,9.88 4.08,11.85 -0.43,2.1 -3.01,3.51 -4.68,5.19zm-56.79 33.86c-0.94,-1.46 -1.89,-2.87 -2.79,-4.33 1.94,-1.29 3.82,-2.58 5.79,-3.87 0.48,1.99 1.82,4.52 1.29,5.81 -0.56,1.37 -2.78,1.63 -4.29,2.39zm-154.39 -630.92c-0.51,-0.21 -1.16,-0.42 -1.93,-0.73 -1.2,-0.77 -2.45,-1.58 -2.45,-1.58 0.13,0.04 1.55,0.47 2.92,0.9 0.61,0.56 1.03,1.03 1.46,1.41 0.78,0.31 1.12,0.44 0,0 0.69,0.65 1.03,1 0,0 0.05,0 0,0 0,0 0,0 0,0 0,0zm-11.72 73.24c-1.41,-4.13 -2.83,-8.34 -4.29,-12.5 -0.17,-0.17 -0.29,-0.34 -0.48,-0.51l-1.54 0.34 1.2 -0.73 0.61 0.3c0.09,0.21 0.12,0.43 0.21,0.6 2.58,3 5.16,5.97 7.77,8.98 -1.17,1.19 -2.27,2.36 -3.48,3.52zm-46.44 -96.5c13.13,-6.01 25.49,-12.28 38.21,-17.25 16.64,-6.53 33.43,-12.23 50.34,-17.48 1.41,-0.42 3.95,5.54 7.12,10.22 -25.23,13.18 -48.63,25.32 -72.96,38.04 -6.4,-3.82 -15.41,-9.19 -22.71,-13.53zm16.44 58.03c-3.43,-1.24 -6.83,-2.49 -10.26,-3.73 0.65,-1.89 1.55,-5.37 1.89,-5.23 3.26,0.85 6.43,2.31 9.61,3.6 -0.43,1.8 -0.85,3.56 -1.24,5.36zm-3.69 45.72c-1.85,2.05 -4.51,2.87 -6.79,4.21 -0.68,-1.63 -1.37,-3.23 -2.05,-4.86 3.43,-3.43 6.91,-6.91 10.34,-10.39 0.95,0.99 1.85,1.98 2.79,2.92 -1.37,2.75 -2.45,6.1 -4.29,8.12zm-33.4 54.89c-15.45,-13.99 -20.34,-25.28 -14.8,-35.96 2.1,-3.91 6.94,-7.81 10.34,-7.56 8.71,0.51 17.3,3.4 26.52,5.4 0.48,27.09 -9.73,33.91 -22.06,38.12zm-21.88 64.95c-9.41,0.94 -20.99,-12.46 -21.55,-24.47 -0.56,-10.44 7.86,-21.98 16.13,-22.32 10.09,-0.38 17.73,11.15 18.54,26.66 0.73,13.34 -5.23,17.81 -13.12,20.13zm-16.32 -100.57c2.32,5.75 4.68,11.5 7,17.25 -2.32,2.02 -4.59,4.04 -6.87,6.06 -3.14,-5.02 -6.31,-10.13 -9.52,-15.16 3.12,-2.75 6.26,-5.45 9.39,-8.15zm-48.89 -73.61c8.25,-8.88 12.07,-13.01 16.61,-17.98 3.01,17.11 -5.57,13.6 -16.61,17.98zm-68.84 625.81c-0.35,-2.07 -1.29,-4.29 -0.86,-6.01 0.3,-1.33 2.27,-1.97 3.51,-2.92 0.39,1.97 1.38,4.21 0.95,5.76 -0.42,1.41 -2.32,2.14 -3.6,3.17zm-25.59 -439.18c-3.85,-10.44 -7.84,-16.06 -7.21,-20.53 2.02,-13.51 9.49,-19.91 24.55,-14.76 -5.01,10.18 -10.04,20.38 -17.34,35.29zm6.74 622.54c-8.45,-6.3 -11.54,-14.33 -8.76,-24.81 2.8,-10.43 8.46,-15.88 19.24,-11.11 -3.53,12.11 -6.7,22.92 -10.48,35.92zm-15.5 -170.23c1.99,-2.57 4.01,-7.34 5.89,-7.25 2.28,0.05 4.5,4.16 7.81,7.72 -3.31,3.23 -5.5,6.7 -6.6,6.18 -2.67,-1.15 -4.74,-4.29 -7.1,-6.65zm-7.64 -1252.95c-0.63,0.42 -4.54,-3.87 -4.41,-5.71 0.25,-3.7 2.23,-7.16 4.55,-13.78 3.26,5.71 6.69,9.18 6.35,11.71 -0.48,3.14 -3.86,6.01 -6.49,7.78zm-49.31 670.93c-4.64,-2.33 -9.7,-4.81 -14.72,-7.3 -0.73,8.49 -1.46,17.16 -2.53,30.26 -7.08,-5.29 -12.67,-7.6 -16.19,-12.45 -5.28,-7.22 -8.93,-16.35 -13.51,-24.42 -8.37,-14.64 -5.03,-32.07 8.06,-36.71 6.49,-2.27 14.13,-3.6 20.21,-0.98 4.35,1.8 6.1,12.41 10.48,16.31 9.44,8.49 19.79,15.28 8.2,35.29zm-60.01 350.49c-4.16,-6.39 -8.97,-10.68 -8.63,-14.07 0.56,-5.54 4.39,-10.6 6.88,-15.88 3.43,3.78 9.31,7.21 9.61,11.29 0.31,4.97 -4.16,10.47 -7.86,18.66zm-2.83 -62.01c2.06,-1.63 6.82,2.66 10.44,4.24 -1.55,4.55 -2.41,12.19 -4.77,13.06 -5.28,2.01 -11.29,0.63 -18.97,0.63 5.23,-7.42 8.58,-14.11 13.3,-17.93zm-22.66 -360.46c-0.56,-0.65 -1.68,-1.51 -1.59,-1.94 0.39,-1.8 1.07,-3.43 1.71,-5.11 0.53,0.68 1.6,1.55 1.51,2.06 -0.34,1.71 -1.07,3.36 -1.63,4.99zm-3.14 562.97c-0.9,1.15 -2.66,1.15 -4.16,1.54 0,0.26 0.05,0.48 0.05,0.73 -0.35,0.04 -0.64,0.17 -1.03,0.22 -0.52,0.85 -1.08,1.75 -1.63,2.65 0.12,-0.81 0,-2.1 0.34,-2.39 0.34,-0.26 0.86,-0.22 1.29,-0.26 0.17,-0.3 0.34,-0.56 0.56,-0.86 0.12,-0.05 0.25,-0.05 0.42,-0.09 -0.17,-2.02 -0.64,-4.21 0,-5.67 0.99,-2.48 2.75,-4.67 4.59,-6.22 0.52,-0.43 2.32,1.72 3.56,2.66 -1.29,2.62 -2.31,5.63 -3.99,7.69zm-52.45 274.14c-0.29,-0.22 -0.29,-1.24 -0.43,-1.88 0.6,-0.27 1.25,-0.53 1.89,-0.82 0.13,1.07 0.34,2.14 0.47,3.18 -0.64,-0.14 -1.37,-0.09 -1.93,-0.48zm210.45 -714.31c0.65,-1.46 0.48,-1.04 0,0 0.65,-0.73 0.95,-1.04 0,0.03 -0.25,0.65 -0.59,1.51 -1.03,2.45l-0.43 0.99 -0.13 -1.63c0.64,-0.73 1.17,-1.33 1.59,-1.84zm-260.8 -431.81c-2.19,-3.65 -5.53,-7.03 -6.18,-11.12 -0.39,-2.57 3.31,-6.27 5.2,-9.39 2.75,3.12 5.5,6.3 9.44,10.85 -3.86,4.43 -6.13,7.04 -8.46,9.66zm-7.2 657.87c-11.04,-0.76 -19.97,-13.09 -18.08,-23.69 1.08,-6.01 6.48,-13.56 10.9,-15.02 6.57,-2.11 16.1,12.92 14.72,23.31 -0.85,6.22 -5.57,11.54 -7.54,15.4zm-16.18 -577.69l-0.18 2.41 -1.76 -1.46 1.94 -0.95zm-184.19 47.95c-1.8,-0.95 -3.26,-3.09 -4.85,-4.77 1.37,-1.93 2.7,-3.87 5.11,-7.21 1.37,3.95 2.61,6.23 2.78,8.62 0.09,1.09 -2.39,3.7 -3.04,3.36zm584.48 -439.57c0.51,0.04 0.99,1.33 1.46,2.01 -0.56,0.64 -1.12,1.81 -1.68,1.76 -0.51,-0.05 -0.98,-1.29 -1.46,-2.02 0.56,-0.6 1.12,-1.75 1.68,-1.75zm39.74 435.53c0.61,1.94 1.21,3.86 1.63,5.84 0.05,0.17 -1.19,0.77 -1.84,1.16 -0.98,-1.55 -1.98,-3.14 -2.92,-4.72 1.03,-0.73 2.11,-1.51 3.13,-2.28zm17.05 -17.69c-0.82,1.68 -1.68,3.39 -2.5,5.07l-0.59 -0.6c1.03,-1.5 2.05,-2.96 3.09,-4.47zm18.66 -238.17c2.72,-0.9 6.23,2.36 13.62,5.62 -10.22,7.51 -13.01,11.24 -15.33,10.82 -2.49,-0.48 -4.55,-4.94 -6.83,-7.64 2.84,-3.09 5.33,-7.73 8.54,-8.8zm351.58 -56.58c0.65,1.51 1.29,3.06 1.94,4.55 -0.6,0.65 -1.21,1.29 -1.84,1.94 -0.7,-1.63 -1.43,-3.23 -1.98,-4.89 -0.04,-0.17 1.25,-1.04 1.88,-1.6zm29.28 46.36c-6.48,17.05 -6.48,17.05 -26.65,15.2 10.99,-6.32 18.07,-10.31 26.65,-15.2zm-22.23 -308.57l0.34 1.85c10.86,6.18 21.68,12.4 33.22,18.97 -20,11.72 -28.98,6.13 -33.7,-19.66l0.14 -1.16zm36.13 65.76c-0.51,0.6 -1.11,1.8 -1.63,1.72 -0.51,-0.05 -0.94,-1.25 -1.46,-1.98 0.56,-0.65 1.12,-1.28 1.68,-1.89 0.48,0.73 0.95,1.42 1.41,2.15zm11.68 152.85c5.5,2.36 11.68,10.51 13.4,17.76 2.57,11 -8.46,23.53 -22.54,23.18 -2.79,-3.86 -10.08,-9.56 -11.93,-17.46 -2.41,-10.53 12.45,-27.17 21.07,-23.48zm-23.18 79.45c-2.66,-6.06 -5.31,-12.15 -7.98,-18.24 1.94,-1.17 3.82,-2.33 5.76,-3.53 2.22,6.18 4.45,12.36 6.64,18.51 -1.46,1.12 -2.96,2.19 -4.42,3.26zm45.41 48.71c8.17,1.16 16.23,2.36 24.94,3.61 0.43,-7.6 0.73,-12.84 1.12,-20.69 5.88,2.67 11.29,5.11 19.36,8.71 -3.17,10.73 -4.6,22.28 -9.44,30.18 -8.89,14.63 -17.73,15.11 -29.71,5.79 -8.37,-6.52 -13.95,-13.94 -6.27,-27.6zm47.22 -156.45c0.31,2.32 -1.71,5.24 -3.26,9.15 -2.36,-2.67 -5.19,-4.35 -5.28,-6.32 -0.13,-2.31 1.76,-6.26 3.35,-6.91 1.41,-0.51 4.94,2.23 5.19,4.08zm-1.46 -78.2c-0.98,8.66 -3.95,13.38 -11.12,10.85 -1.15,-0.42 -2.75,-3.34 -2.53,-4.58 1.85,-9.92 6.49,-11.21 13.65,-6.27zm30.6 61.46c0.34,-0.09 0.87,1.42 1.29,2.19 -1.29,0.64 -2.61,1.29 -3.9,1.93 -0.34,-0.86 -0.77,-1.68 -1.12,-2.53 1.25,-0.56 2.44,-1.33 3.73,-1.59zm30.7 -2.4c3.77,1.54 10.34,1.75 12.09,5.66 1.65,3.82 -0.34,12.97 -3.04,16.99 -4.41,6.57 -10.73,10.78 -15.92,15.68 5.49,9.78 8.28,14.72 12.27,21.88 -5.11,1.17 -9.66,3.87 -10.94,2.16 -3.65,-4.86 -9.23,-12.58 -8.28,-17.17 3,-14.82 8.58,-28.76 13.82,-45.2zm-0.86 170.65c-0.39,0.09 -1.04,-1.49 -1.55,-2.36 1.41,-0.73 2.79,-1.66 4.25,-2.05 0.39,-0.09 1.03,1.49 1.59,2.31 -1.46,0.78 -2.83,1.68 -4.29,2.1zm-11.38 -75.41c-0.48,-0.69 -0.94,-1.37 -1.41,-2.1 0.56,-0.6 1.12,-1.68 1.58,-1.68 0.47,0.05 0.95,1.29 1.37,1.98 -0.51,0.6 -1.02,1.21 -1.54,1.8zm75.07 45.97c6.83,7.77 7.56,19.78 -4.38,32.06 -5.79,-7.2 -11.02,-13.69 -17.42,-21.58 7.08,-10.82 13.34,-20.18 21.8,-10.48zm179.72 -83.61l1.2 1.07 -1.32 0.69 0.12 -1.76zm16.91 -108.9l-1.03 2.24 -0.77 -2.41 1.8 0.17zm30.65 53.44c1.63,-0.77 3.99,1.24 8.07,2.79 -3.77,4 -5.88,6.96 -8.49,8.59 -0.7,0.47 -2.84,-3.18 -4.3,-4.98 1.55,-2.24 2.83,-5.5 4.72,-6.4zm2.14 50.96c-1.07,-2.24 -2.19,-4.43 -3.26,-6.62 1.89,-1.5 3.79,-3.01 5.67,-4.5 0.65,1.76 1.29,3.51 2.31,6.35 -1.46,1.51 -3.09,3.09 -4.72,4.77zm85.72 -214.5c-0.94,1.29 -1.94,2.58 -2.87,3.91l-0.51 -0.77c1.1,-1.03 2.27,-2.1 3.38,-3.14zm15.5 184.05l0.68 2.19 -1.63 -0.12 0.95 -2.07zm12.57 -186.44c1.9,2.31 3.9,4.63 5.36,7.47 0.7,1.32 0.53,3.38 0.61,5.28 0.26,0.08 0.51,0.17 0.73,0.25 -0.08,0.26 -0.22,0.51 -0.3,0.77 8.8,1.89 17.64,3.78 29.32,6.23 -12.49,18.07 -22.33,13.6 -33.45,4.42 1.43,-3.61 2.75,-7.13 4.13,-10.65 -0.09,0 -0.22,-0.04 -0.31,-0.04 -0.03,-0.35 -0.12,-0.64 -0.12,-0.98 -1.42,-0.48 -2.97,-0.82 -3.78,-2.02 -1.72,-2.67 -2.84,-6.06 -4.11,-9.19 0,-0.08 1.75,-1.76 1.92,-1.54zm22.71 -14.22c2.19,-0.25 6.27,3.69 6.53,6.32 0.25,2.79 -2.97,6.13 -5.76,11.38 -3.09,-4.55 -6.57,-7.52 -6.4,-9.97 0.27,-3 3.48,-7.51 5.63,-7.73zm38.5 -759.34c0.95,0.61 1.07,3.34 1.5,5.16 -0.99,1.11 -1.97,2.22 -3,3.34 -0.81,-2.32 -1.64,-4.63 -2.49,-6.96 1.38,-0.56 3.13,-2.19 3.99,-1.54zm-1.33 -41.08l1.38 1.21 -1.64 0.68 0.26 -1.89zm38.84 615.56c2.16,0.3 4.16,1.8 7.39,3.48 -2.23,3.17 -3.6,5.23 -4.98,7.29 -1.68,-2.1 -3.52,-4.03 -4.8,-6.48 -0.31,-0.52 1.66,-4.38 2.39,-4.29zm33.01 -131.13c22.71,15.8 24.86,29.96 8.8,45.58 -2.87,2.87 -8.66,4.38 -11.58,2.45 -3.1,-1.97 -6.49,-9.48 -5.85,-13.52 1.81,-11.63 5.54,-22.7 8.63,-34.51zm-2.61 -277.67l-0.9 1.85 -0.56 -2.11 1.46 0.26zm11.29 -254.66c0.39,0.34 0.39,1.42 0.56,2.19 -0.65,0.43 -1.29,0.9 -1.9,1.33 -0.26,-1.38 -0.55,-2.74 -0.82,-4.11 0.73,0.17 1.6,0.12 2.16,0.59zm5.06 502.03c-0.6,0.73 -1.24,1.46 -1.85,2.14 -0.6,-0.82 -1.11,-1.63 -1.72,-2.4 0.65,-0.73 1.29,-2.02 1.89,-1.97 0.61,0.04 1.12,1.41 1.68,2.23zm-2.75 -708.14c1.29,0.51 2.61,1.02 3.9,1.55 -0.64,4.8 -1.24,9.65 -2.19,14.41 -0.03,0.26 -2.7,-0.38 -4.16,-0.56 0.82,-5.14 1.63,-10.29 2.45,-15.4zm23.23 75.02c6.18,5.11 8.93,13.31 0.42,23.62 -5.96,-4.38 -12.14,-8.89 -18.85,-13.87 4.18,-14.42 11.21,-15.67 18.43,-9.75zm-0.7 -174.69c1.43,0.78 2.8,1.59 4.21,2.44 -0.56,1.55 -0.98,4.21 -1.76,4.43 -1.28,0.34 -2.79,-0.9 -4.25,-1.46 0.61,-1.8 1.21,-3.61 1.8,-5.41zm3.44 -95.16c1.11,0.95 3.13,2.11 3.05,2.7 -0.31,1.72 -1.41,3.26 -2.19,4.9 -0.68,-0.64 -1.94,-1.33 -1.89,-1.89 0.04,-1.84 0.6,-3.65 1.03,-5.71zm13.39 1056.84c-2.65,2.96 -4.33,4.72 -6.01,6.52 -1.84,-3.09 -4.28,-5.87 -5.15,-9.39 -0.39,-1.51 2.67,-4.43 4.21,-6.74 2.06,2.87 4.16,5.76 6.95,9.61zm12.19 -65.32c-5.62,6.18 -9.49,10.43 -15.88,17.42 -0.98,-18.63 3.35,-22.19 15.88,-17.42zm-10.9 -971.13c0.95,1.63 1.93,3.35 2.87,5.03 -0.94,1.49 -1.97,4.19 -2.91,4.16 -1.34,-0.05 -2.63,-2.11 -3.9,-3.31 1.32,-1.97 2.61,-3.94 3.94,-5.88zm68.21 198.35c3.29,8.83 4.38,23.56 2.65,41.25 -10.68,-5.59 -19.87,-3.44 -30.26,4.72 -8.32,6.52 -20.65,4.12 -30.21,5.53 -4.04,-13.65 -6.71,-23.09 -9.66,-32.36 -6.52,-20.77 -5.2,-27.26 8.67,-39.62 24.76,-22.19 45.72,-14.85 58.81,20.48zm-43.62 -161.06c1.29,-0.12 2.83,4.01 5.46,8 -3.95,2.19 -6.82,5.18 -9.23,4.63 -1.8,-0.43 -3.05,-5.36 -4.51,-8.33 2.74,-1.55 5.46,-3.99 8.28,-4.3zm19.45 33.37c0.73,0.34 1.41,0.68 2.06,1.02 0,0.78 0.22,1.97 -0.09,2.32 -0.51,0.6 -1.33,0.65 -2.05,0.94 0.03,-1.41 0.03,-2.87 0.08,-4.28zm19.36 -150.07c0.6,2.92 1.16,5.58 1.72,8.25 -1.46,0.25 -3.31,1.32 -4.21,0.51 -1.16,-1.04 -2.06,-3.6 -2.02,-5.49 0,-0.95 2.36,-1.81 4.51,-3.27zm-4.63 401.07c-1.99,-0.17 -3.83,-3.22 -5.72,-5.02 1.59,-1.8 3.09,-4.89 4.81,-5.11 1.93,-0.21 4.08,2.15 7.6,4.29 -3.06,2.84 -4.94,5.93 -6.69,5.84zm-7.05 313.73c-0.64,-1.93 -1.97,-4.04 -1.72,-5.72 0.22,-1.32 2.4,-2.1 3.74,-3.09 0.9,1.42 1.8,2.84 2.7,4.3 -1.58,1.51 -3.13,3 -4.72,4.51zm-7.38 -218.4c-1.67,-2.02 -3.35,-3.9 -4.76,-6.09 -0.14,-0.17 1.71,-2.57 3.43,-5.07 1.41,2.28 3.09,4.17 3.77,6.53 0.27,0.98 -1.58,3.05 -2.44,4.63zm-10.09 331.8c-3.43,-4.04 -6.83,-8.03 -10.26,-12.06 1.77,-2.45 3.52,-4.9 5.28,-7.35 2.96,4.77 5.93,9.54 8.88,14.3 -1.32,1.68 -2.61,3.43 -3.9,5.11zm1.07 -173.88c-1.11,3.73 -1.67,5.57 -2.23,7.38 -2.61,-2.02 -5.31,-3.95 -7.86,-6.23 -0.12,-0.12 1.29,-4.38 1.73,-4.29 2.79,0.69 5.49,1.98 8.36,3.14zm-24.64 -293.56c-1.41,-0.51 -2.74,-1.58 -4.16,-2.39 0.61,-0.73 1.37,-2.28 1.8,-2.11 1.46,0.48 2.8,1.6 4.21,2.45 -0.64,0.73 -1.37,2.19 -1.85,2.05zm1.73 250.6c9.48,-4.47 17.25,-6.96 19.95,6.94 0.65,3.31 -3.48,11.42 -5.96,11.89 -8.76,1.68 -15.07,-2.75 -13.99,-18.83zm-29.15 -114.18c-8.54,1.11 -10.99,-6.18 -11.64,-15.54 8.51,-7.94 13.35,-3.53 15.85,6.35 0.59,2.36 -2.5,8.93 -4.21,9.19zm-27.73 615.51c0.9,-1.29 2.66,-1.46 4.07,-2.14 0.39,1.63 1.38,4.07 0.92,4.67 -0.95,1.29 -2.67,1.63 -4.04,2.36 -0.39,-1.67 -1.43,-4.21 -0.95,-4.89zm11.12 85.85c-4.21,8.36 -12.23,14.45 -20.09,6.22 -7.17,-7.48 -7.3,-18.29 -1.24,-26.7 4.89,-6.87 4.03,-13.14 3.91,-21.24 -0.09,-6.15 4.33,-12.41 8.45,-22.97 6.1,15.53 12.14,25.75 13.94,37.13 1.34,8.54 -1.24,19.92 -4.97,27.56zm113.61 -773.25l0.6 2 -1.54 -0.17 0.94 -1.83zm15.15 -129.21c0.65,-9.35 1.12,-17.51 2.07,-25.54 0.09,-0.38 6.18,-0.51 6.3,0.17 1.38,8.07 2.28,16.41 3.01,24.64 0.25,3.18 -0.17,6.49 -0.31,9.83 -7.37,1.85 -13.55,16.02 -24.03,1.12 5.41,-4.25 9.87,-7.77 12.96,-10.22zm-1111.86 1668.84c11.16,-15.63 15.45,-9.87 20.77,0l-20.77 0zm41.2 36.49l-0.9 1.71 -0.65 -2.41 1.55 0.7zm49.83 -42.33c0.14,0 0.22,1.8 0.34,2.75 -1.27,0.08 -2.53,0.34 -3.82,0.22 -0.12,0 -0.2,-1.77 -0.34,-2.72 1.26,-0.12 2.53,-0.38 3.82,-0.25zm-65.32 188.82c0.81,-0.09 1.67,0 2.49,0.22 0.13,0 0.13,1.1 0.17,1.66 -1.68,-0.3 -3.31,-0.59 -4.94,-0.93 0.73,-0.31 1.46,-0.78 2.28,-0.95zm50.6 -1.29c0.87,1.63 2.41,3.31 2.28,4.89 -0.09,1.71 -1.63,3.26 -2.58,4.94 -0.77,-1.77 -2.18,-3.57 -2.18,-5.37 0,-1.46 1.58,-2.95 2.48,-4.46zm65.59 -42.4c1.08,0.2 1.84,2.61 2.74,4.02 -1.19,1.26 -3.12,3.79 -3.43,3.48 -1.5,-1.54 -2.58,-3.82 -3.77,-5.84 1.5,-0.64 3.09,-2.02 4.46,-1.66zm51.85 -11.08l1.51 1.2 -1.72 0.69 0.21 -1.89zm299.09 214.74l-0.48 -1.76 1.29 0.26 -0.81 1.5zm540.61 2351.39c4.77,-0.44 9.32,0.56 13.87,2.02 12.65,-2.07 25.35,-4 37.98,-6.31 -11.34,-8.68 -23.48,-11.8 -36.74,-10.95 -4.13,0.27 -8.34,5.11 -12.19,4.51 -4.17,-0.73 -7.9,-5.41 -11.85,-8.33 3.17,-4.12 6.05,-8.97 9.74,-12.1 1.55,-1.34 4.6,0.38 7.05,0.99 0.08,-0.87 0.2,-1.72 0,-2.45 -9.63,-36.57 -6.66,-59.32 33.69,-59.53 -7.73,-5.07 -14.21,-9.32 -20.69,-13.53 1.28,-10.21 2.36,-18.66 3.43,-27.08 -0.25,0.04 -0.34,0.13 -0.61,0.21 0.14,-0.25 0.27,-0.51 0.39,-0.77 -9.01,-1.42 -9.91,-9.79 -9.57,-19.23 -0.17,0 -0.34,0 -0.46,0 -2.19,-2.58 -4.38,-5.06 -6.57,-7.64 -0.05,-0.77 -0.05,-1.54 -0.05,-2.31 -0.9,-3.09 -1.75,-6.18 -2.65,-9.32 0.76,-0.17 1.58,-0.39 2.39,-0.6 0.09,3.3 0.17,6.61 0.26,9.92 0.17,0.63 0.35,1.24 0.52,1.89 2.19,2.48 4.33,5.02 6.52,7.5 0,0.22 0.04,0.34 0.04,0.56 6.48,-0.25 13.01,-0.42 19.49,-0.64 0.13,-0.26 0.26,-0.51 0.39,-0.77l0.64 0.73c0.43,-5.67 0.86,-11.29 1.42,-18.33 -5.63,-1.55 -11.25,-3.1 -18.41,-5.07 2.61,-5.41 3.51,-9.74 5.31,-10.59 20.82,-9.83 27.09,-30.4 23.52,-56.88 -1.24,-9.23 1.17,-13.44 4.86,-20.52 14.42,-27.64 10.81,-45.41 -10.86,-68.38 -4.25,-4.55 -6.22,-12.57 -10.26,-17.72 -3.52,-4.56 -8.46,-7.34 -12.66,-10.82 -13.82,12.8 -0.35,21.72 2.23,34.16 -3.91,6.96 -8.37,14.94 -13.91,24.81 11.8,30.82 10.95,66.63 12.67,104.61 -19.7,-4.46 -37.34,18.55 -56.49,3.47 0.73,-19.05 13.53,-13.38 20.17,-21.97 -0.04,-24.38 -15.66,-34.42 -29.92,-55.32 0.65,13.12 0,19.3 1.34,24.67 5.75,23.96 2.05,30.31 -19.92,30.48 -2.79,-21.38 -9.83,-42.23 -4.98,-65.33 -19.79,-30.78 -28.93,-65.24 -17.98,-106.11 1.28,-4.8 0.73,-10.64 0.77,-16.01 0.08,-16.44 0,-32.87 0,-55.24 -1.89,-2.1 -7.22,-7.86 -12.62,-13.82 0,-3.39 -0.25,-6.65 0.04,-9.87 0.64,-6.35 2.63,-12.79 2.19,-18.93 -1.33,-17.51 -5.23,-34.89 -5.2,-52.32 0.05,-47.99 -5.14,-96.27 3.01,-144.09 1.2,-7.08 -1.16,-15.28 -1.75,-22.97 -0.65,-8.92 -2.33,-18.11 -1.43,-26.78 1.21,-11.29 0.39,-21.04 -1.49,-32.54 -3.18,-19.27 -1.25,-40.26 -0.05,-60.39 0.78,-13.22 3.35,-26.53 6.53,-39.23 3.47,-13.94 3.86,-25.45 -4.17,-37.68 -3.21,-4.99 -2.36,-15.37 -2.28,-23.26 0.56,-39.5 3.96,-79.2 1.6,-118.34 -2.02,-33.79 1.63,-66.71 2.14,-100.06 0.56,-37.34 4.34,-74.68 4.77,-112.02 0.3,-24.73 -3.35,-49.54 -4.21,-74.35 -0.48,-12.27 1.29,-24.68 2.1,-37 0.6,-9.83 0.99,-19.71 1.94,-29.49 0.76,-8.54 2.05,-16.95 3.26,-25.45 1.2,-8.8 4.41,-17.85 3.6,-26.31 -2.11,-21.08 1.03,-40.82 4.63,-60.99 1.63,-9.24 -0.12,-19.63 -0.85,-29.41 -0.52,-6.61 -4.21,-14.59 -2.44,-19.36 10.81,-29.14 3,-60.73 7.89,-90.47 0.56,-3.31 1.03,-7.18 0.21,-10.18 -10,-38.25 -1.02,-76.23 0.95,-114.25 0.51,-10.22 2.19,-20.53 1.63,-30.57 -2.7,-49.97 1.16,-99.54 3.05,-149.32 2.96,-79.89 3.09,-159.89 5.41,-239.82 1.85,-63.82 5.11,-127.65 7.72,-191.43 0.17,-4.33 0,-8.71 0,-17.22 -19.05,4.69 -36.78,7.86 -54.03,13.45 -50.96,16.47 -101.73,33.72 -152.52,51.24 -9.52,3.3 -16.94,3.18 -21.36,-10.08 -6.79,6.43 -13.01,13.43 -19.97,18.71 -9.83,7.47 -15.62,0.43 -19.1,-15.93 -5.06,28.16 -17.64,33.35 -34.98,31.89 -9.66,-0.85 -19.66,4.64 -29.75,7.34 -1.15,-8.54 -1.84,-13.77 -2.4,-17.68 -14.89,4.98 -29.15,9.75 -43.99,14.67 1.29,5.93 2.48,11.09 4.72,21.21 -10.22,-5.45 -17,-9.1 -25.42,-13.52 -7.42,5.97 -15.49,22.15 -27.08,5.41 -0.9,-1.33 -3.38,-1.59 -4.93,-1.2 -15.2,3.95 -30.34,8.16 -45.88,12.37 -4.69,-4.77 -9.8,-9.92 -14.86,-15.03 -0.17,0 -0.34,0 -0.47,0 1.03,5.92 4.04,14.3 2.32,16.69 -7.52,10.31 -14.9,2.75 -22.88,-4.19 1.76,-4.3 3.52,-8.38 5.19,-12.46 -0.17,0 -0.34,0 -0.51,0 0.21,-0.38 0.39,-0.43 0.6,-0.73 -4.12,-0.86 -8.2,-1.72 -12.79,-2.66 -1.04,-13 -2.45,-24.98 -2.62,-36.96 0,-3.21 3.86,-6.47 5.93,-9.78l-0.18 0.47c13.7,-11.85 37.18,-17.86 53.23,-11.29 -13.23,6.57 -23.74,11.85 -35.46,17.68 2.58,13.36 12.5,13.7 18.33,21.26 10.17,-12.62 19.4,-24.17 28.76,-35.76 -1.21,-5.49 -2.33,-10.48 -3.96,-18.07 9.41,2.92 17.56,5.4 25.59,7.9 4.98,-5.93 3.69,-21.59 15.71,-15.63 2.53,1.24 6.87,-4.16 10.43,-6.26 3.52,-1.97 7.99,-6.4 10.56,-5.03 11.54,6.01 21.46,1.51 32.62,-2.87 10.25,-4.08 21.93,-1.72 33.01,-2.19 0,0.12 0,0.21 0,0.34 2.15,-4.63 3.99,-12.58 6.57,-13.04 18.03,-3.14 35.32,-16.01 54.3,-8.17 3.13,1.29 8.27,3.48 9.65,1.63 14.8,-20.38 36.14,-6.52 52.28,-17.93 3.43,-2.45 5.41,-8.59 8.42,-13.7 27.51,4.51 52.66,-0.21 70.26,-35.71 -18.28,-13.82 -34.38,-1.89 -47.22,7.35 -25.84,18.75 -54.86,14.33 -81.42,25.54 -3.14,1.32 -6.87,-0.14 -10.13,0.76 -47.09,12.79 -94.09,25.97 -141.22,38.6 -12.1,3.26 -24.51,4.8 -41.51,8.02 -8.8,15.7 -27.59,17.42 -45.36,20.51 -17.73,3.05 -35.76,2.63 -53.62,4.38 -4.11,0.39 -8.07,3.61 -12.09,5.5l0.17 0.39c-2.07,-0.05 -4.08,-0.05 -6.1,-0.05l0.12 -0.51c-4.28,3.21 -8.62,6.3 -12.87,9.66 -4.25,3.35 -8.46,10.12 -12.53,9.9 -30.56,-1.54 -59.96,13.48 -90.22,11.38 -16.32,-1.16 -25.72,5.62 -29.88,28.12 -9.4,-6.01 -16.78,-10.69 -24.93,-15.88 -13.57,9.19 -22.84,31.84 -41.86,26.39l0.56 0.69c-0.73,0.04 -1.29,0.09 -1.76,0.12 -0.04,0 -0.04,0 -0.04,0 0.04,0 0,0 0.04,0 -1.33,0.91 -0.85,0.61 -0.04,0 -1.12,0.14 -0.81,0.09 0.04,0 0.34,-0.2 0.69,-0.42 1.07,-0.73 -9.36,-11.49 -20.17,-7.98 -30.94,-4.67 -26.92,8.29 -53.69,17.26 -80.74,24.51 -8.93,2.44 -18.8,2.44 -27.77,0.22 -17.6,-4.34 -34.69,-12.11 -52.33,-16.32 -9.83,-2.36 -20.26,-0.43 -31.24,-0.43 -1.77,-4.89 -2.75,-9.13 -4.59,-12.7 -23.23,-44.81 -1.93,-76.32 28.24,-96.11 17.47,-11.46 36.53,-18.54 56.56,-28.41 -0.85,-5.88 -2.56,-12.02 -2.53,-18.2 0.05,-10.64 4.6,-18.32 12.93,-16.35 8.37,1.93 11.15,9.75 6.48,20.51 -0.82,1.8 -0.73,4.33 -1.68,10.52 36.15,-17.17 70.87,-33.39 105.43,-50.3 3.64,-1.8 6.35,-7.13 9.36,-10.95 4.92,-6.27 9.39,-13.18 14.67,-18.8 9.14,-9.75 20.22,-17.08 27.73,-28.55 6.96,-10.56 10.25,-25.23 16.61,-41.75 5.53,8.83 9.49,15.06 14.29,22.7 5.54,-3.73 11.46,-7.81 19.61,-13.43 -5.62,-5.11 -9.52,-8.73 -13.43,-12.28l-0.17 2.06 0.09 -1.29c-1.46,-3.77 -2.96,-7.51 -4.42,-11.29 -7,-3.09 -13.91,-6.35 -21.04,-9.05 -5.28,-2.06 -10.76,-3.27 -20.98,-6.27 6.48,13.43 10.22,21.24 14.21,29.39 -15.93,7.61 -21.13,5.55 -47.82,-19.35 0.6,12.58 1.02,21.98 1.46,31.34 0.17,-0.17 0.38,-0.26 0.55,-0.44 0.39,0.65 0.78,1.29 1.17,1.94 2.56,1.85 5.19,3.69 7.76,5.5 -0.73,1.24 -1.5,2.48 -2.28,3.73 -1.8,-3.09 -3.65,-6.14 -5.48,-9.23 -0.56,-0.43 -1.17,-0.82 -1.72,-1.21 0,-0.12 0,-0.21 0,-0.29 -3.18,2.4 -7,4.08 -8.98,7.59 -12.45,22.62 -16.27,24.3 -34.98,12.84 -10.48,36.22 -36.61,40.94 -59.96,50.82 -3.65,1.5 -8.84,-0.3 -12.58,-2.58 -15.45,-9.36 -29.83,-3.26 -45.1,1.72 -13.79,4.46 -29.24,7.55 -42.76,3.87 -16.87,-4.69 -21.2,-11.26 -14.72,-34.3 23.43,-12.32 45.54,-24 68.98,-36.36 -11.33,-12.06 -20.74,-22.11 -31.38,-33.43 6.09,-6.96 10.39,-11.85 14.6,-16.66 0,0 0,0 0,0 -0.14,-0.73 -0.27,-1.46 -0.39,-2.23 -0.61,-0.9 -1.24,-1.8 -1.8,-2.8 -0.14,-0.17 0.64,-1.24 1.02,-1.92 0.27,1.58 0.52,3.18 0.78,4.72 0.34,0.51 0.64,1.02 0.98,1.55 -0.17,0.2 -0.39,0.46 -0.59,0.68 2.82,7.55 5.7,15.06 9.39,24.98 7.64,-8.92 13.79,-16.14 19.88,-23.3 7.98,-9.32 12.31,-24.64 26.05,-24.86 2.75,-0.04 5.4,-10.12 9.31,-17.98 10.35,12.87 20.73,9.7 32.45,3.95 15.67,-7.72 32.33,-12.1 48.54,-17.91 14.9,-5.27 16.92,-8.66 16.44,-27.98 -20.46,10.05 -40.89,20.13 -62.57,30.78 -13.09,-4.72 -4.86,-22.58 -9.32,-35.25 -17.6,-4.5 -34.38,-1.83 -54.34,11.63 9.66,9.15 16.62,15.76 23.62,22.37 -12.03,14.38 -24.61,9.23 -39.2,0.91 2.45,-7.56 4.9,-15.11 7.29,-22.63 -23.64,-4.55 -45.54,0.39 -65.44,25.2 -4.55,-12.45 -9.24,-27.26 -20.14,-18.16 -13.35,11.21 -1.41,23.44 0.82,37.31l24.94 0c0.25,-0.22 0.51,-0.44 0.81,-0.7 0.17,0.22 0.38,0.31 0.6,0.52 7.08,-5.32 14.21,-15.46 23.4,0.39 -9.49,9.7 -16.58,6.48 -23.4,-0.39 -0.09,0.04 -0.17,0.13 -0.26,0.18l-1.15 0c-13.82,12.65 -28.04,22.01 -45.85,23.47 -16.09,1.29 -32.06,8.08 -47.73,13.91 -5.02,1.89 -9.05,8.11 -13.48,12.61 0.18,0.36 0.3,0.7 0.47,1.04 1.72,0.61 3.4,1.2 5.08,1.8 -0.78,1.37 -1.55,2.75 -2.33,4.16 -0.95,-1.97 -1.85,-3.99 -2.75,-5.96 -0.34,-0.12 -0.73,-0.26 -1.07,-0.34l0.56 -0.78c-10.51,-0.55 -21.85,-8.8 -30.65,5.63 0.05,0 0.09,-0.05 0.09,-0.05 0,0.43 0,0.82 0,1.24 4.38,4.72 5.96,9.27 -0.34,13.35 -0.05,0.44 -0.05,0.86 -0.05,1.29 -0.77,0.3 -1.58,0.61 -2.36,0.9 -3.65,3.44 -7.34,6.88 -10.99,10.35 -0.59,-1.81 -1.2,-3.56 -1.8,-5.36 4.25,-1.63 8.54,-3.31 12.79,-4.99 0.61,-0.51 1.17,-1.07 1.76,-1.63 0.31,-0.17 0.34,-0.34 0.65,-0.56 0.08,-4.42 0.22,-8.88 0.34,-13.35 -0.22,-0.2 -0.3,-0.42 -0.51,-0.59 0.17,-0.26 0.29,-0.39 0.42,-0.6 -19.52,10.34 -39.05,20.68 -59.14,31.33 -6.48,-9.44 -17.56,-13.05 -14.13,-29.61l-0.42 0.2c0,-2.7 0.04,-5.4 0.04,-8.1l0.43 0.21c-8.81,-19.4 3.74,-33.27 11.38,-40.01 24.72,-21.89 49.26,-45.71 81.03,-49.23 17.17,-1.93 32.88,-10.78 48.63,-21.33 12.84,-8.62 29.06,-8.54 46.27,-13 -0.59,10.6 -1.03,18.41 -1.67,29.31 15.41,-8.85 29.18,-16.69 43.91,-25.15 -1.89,-8.03 -4.55,-16.83 -13.1,-11.33 -7.42,4.76 -11.15,2.28 -15.01,-8.25 4.72,-3.17 9.39,-6.3 13.94,-9.35 0.39,-13.61 -6.94,-18.33 -12.83,-24.47l-0.21 2.07 0.12 -1.29c-0.76,-11.85 4.69,-18.55 12.33,-16.57 20.29,5.28 34.81,-6.4 45.71,-24.59 18.07,3.38 9.87,19.1 10.99,32.28 6.74,2.31 13.68,4.67 19.74,6.72 8.92,-16.35 -4.25,-21.84 -5.89,-34.45 6.83,-10.36 14.18,-19.33 27.31,-17.35 5.5,0.81 11.5,-3.82 17.17,-6.14 3.22,-1.29 7.6,-5.58 9.35,-4.12 17.25,14.38 28.76,-2.4 42.15,-11.67 11.81,-8.11 22.8,-19.32 38.42,-14.81 5.71,1.63 13.13,-7.08 22.88,-12.92 11.54,3.69 28.45,21.76 38.24,-12.66 16.62,17.33 29.92,2.05 42.58,-3.86 12.14,-5.72 22.02,-19.92 35.41,-32.8 4.77,2.88 8.37,17.6 21.72,15.02 9.49,-1.85 16.57,-5.06 25.19,-10.08 16.79,-9.79 35.76,-13.09 53.83,-19.23 12.23,-4.17 26.1,-0.47 36.44,-14.38 2.41,-3.22 8.24,-3.7 12.14,-2.92 12.84,2.62 25.93,9.02 33.91,-11.97 0.56,-1.42 3.06,-1.94 4.77,-2.19 31.38,-5.07 62.76,-12.45 94.26,-14.16 21.89,-1.21 42.62,-7 63.66,-13.06 12.53,-3.6 25.32,-6.01 38.07,-7.51 3.3,-0.34 6.95,4.72 10.6,7.43 -2.96,5.79 -5.06,9.91 -10.94,21.37 14.2,-8.15 22.79,-13.09 31.37,-18.03 -3.99,-12.14 -7.04,-21.46 -10.13,-30.82 17.94,11.99 33.13,3.91 49.75,-0.03 41.64,-10.05 83.91,-15.88 126.07,-22.2 12.01,-1.85 24.37,0.39 40.17,0.9 15.19,-8.03 34.29,-18.11 55.75,-29.49 2.07,-21.45 4.43,-44.93 6.49,-68.41 7.64,-85.03 15.4,-169.98 22.45,-255.05 1.32,-16.22 -0.52,-32.84 -1.07,-56.48 13.17,-18.12 14.02,-48.9 15.01,-79.54 0.44,-13.56 -0.63,-27.04 8.55,-37.73 2.7,-3.17 2.4,-11.68 2.53,-17.77 0.73,-40.82 10.94,-77.6 27.04,-111.94l-0.51 0.73 0 -2.71c-1.34,-5.06 -2.62,-10.12 -3.96,-15.19 1.34,-0.3 2.62,-0.6 3.96,-0.86l0 16.05c0.12,0.52 0.25,1.03 0.39,1.54 9.82,-29 10.03,-31.8 5.45,-57.94 -13.18,16.36 -25.59,4.77 -38.99,-4.04 9.54,-3.09 19.02,-6.21 30.57,-10.03 0,-7.08 2.05,-16.83 -0.39,-19.53 -7.98,-8.71 -3.77,-18.29 -3.38,-27.69 0.51,-12.45 2.05,-25.02 1.15,-37.3 -0.42,-6.35 -5.23,-12.15 -8.62,-19.35 9.49,-22.11 20.03,-47.78 20.51,-77.53 0.47,-28.02 -0.56,-55.36 5.71,-83.48 5.71,-25.71 4.38,-54.08 6.65,-81.22 1.07,-13.26 0.51,-27.64 11.24,-36.39 1.68,-1.42 0.65,-8.67 0.73,-13.22 0.05,-3.01 -1.07,-6.66 -0.17,-8.93 9.32,-23.08 8.68,-29.53 5.71,-52.1 -2.09,-16.4 -1.41,-34.22 1.03,-50.62 4.89,-32.31 6.74,-64.34 5.33,-97.3 -0.69,-16.57 3.74,-33.52 6.27,-50.21 1.75,-11.73 -1.94,-18.81 -12.16,-23.96 10.48,-5.84 16.44,-11.97 14.39,-28.12 -1.67,-13.34 1.88,-28.07 3.95,-41.97 3.47,-23.27 7.59,-46.36 11.55,-69.45 0.93,-5.57 4.19,-11.89 3.04,-16.31 -6.95,-26.87 4.21,-49.07 9.18,-73.01 2.54,-12.19 2.96,-23.77 10.87,-34.69 2.27,-3.13 3.91,-6.81 4.81,-10.6 -761.2,577.96 -1149.69,1351.56 -1308.46,1742.7 -16.83,41.47 -79.28,25.93 -74.31,-18.54 136.54,-1216 1160.12,-2276.78 1639.87,-2713.05 33.91,-30.81 -4.89,-84.34 -45.03,-62.24 -2672.62,1473.45 -3410.42,4855.88 -1269.53,5704.64 298.79,118.46 611.09,148.43 907.4,103.23 0.25,-1.41 0.51,-2.67 0.77,-4.25z"/>
   <path class="fil0" d="M11527.83 15123.44c3.96,-1.1 7.81,-2.74 11.68,-4.24 -0.86,-2.71 -1.76,-5.41 -2.66,-8.16 -3.6,2.28 -7.3,4.51 -10.82,7.09 -0.08,0.13 1.51,5.4 1.8,5.31z"/>
   <path class="fil0" d="M11392.94 15364.19c0.3,-0.35 0.13,-1.37 0.13,-2.15 -0.61,-0.26 -1.2,-0.51 -1.8,-0.82 -0.05,1.21 -0.13,2.45 -0.18,3.65 0.61,-0.17 1.42,-0.17 1.85,-0.68z"/>
   <path class="fil0" d="M11579.97 15115c-0.73,-1.84 -1.24,-3.21 -1.8,-4.59 -0.26,0.99 -0.9,2.19 -0.65,2.87 0.22,0.73 1.29,0.95 2.45,1.72z"/>
   <path class="fil0" d="M11566.32 15117.76c0.56,-0.46 1.07,-0.9 1.63,-1.37 -0.31,-0.77 -0.43,-1.89 -0.9,-2.18 -0.51,-0.31 -1.29,0.2 -1.97,0.34 0.42,1.07 0.81,2.14 1.24,3.21z"/>
   <path class="fil0" d="M11619.29 15023.02c16.27,10.9 16.27,10.9 29.79,-4.9 -10.13,1.68 -19.06,3.09 -29.79,4.9z"/>
   <polygon class="fil0" points="12447.42,14614.8 12445.44,14614.8 12445.44,14631.8 12447.42,14631.8 "/>
   <path class="fil0" d="M11765.59 15027.88c1.16,-0.64 2.23,-1.71 3.3,-2.61 -0.51,-0.78 -1.03,-1.55 -1.55,-2.36 -1.07,0.98 -2.19,2 -3.3,3 0.55,0.68 1.28,2.14 1.55,1.97z"/>
   <path class="fil0" d="M11647.08 15064.96l1.64 0.73 -1.11 -1.51c-0.78,-0.21 -1.6,-0.43 -2.37,-0.65 0.6,0.48 1.21,0.95 1.84,1.43z"/>
   <path class="fil0" d="M12484.72 17711.16c0.65,0.03 1.29,-0.87 1.9,-1.38 -0.61,-0.56 -1.17,-1.54 -1.81,-1.59 -0.6,-0.09 -1.24,0.86 -1.89,1.37 0.61,0.56 1.17,1.55 1.8,1.6z"/>
   <path class="fil0" d="M11496.43 14947.32c1.85,2.66 3.73,5.32 5.58,7.99 0.52,0.2 1.07,0.42 1.59,0.64 -0.38,-0.39 -0.77,-0.81 -1.11,-1.25 -1.89,-2.66 -3.74,-5.37 -5.59,-8.02l-0.47 0.64z"/>
   <path class="fil0" d="M12025.72 15358.05c0.35,0.42 2.63,-1.72 4.69,-3.06 -1.64,-2.53 -2.88,-5.28 -4.73,-6.99 -0.59,-0.51 -2.61,1.63 -3.95,2.49 1.29,2.58 2.36,5.45 3.99,7.56z"/>
   <path class="fil0" d="M12985.59 13965.98c0,-0.05 0,-0.05 0,-0.09 -0.17,-0.13 -0.39,-0.3 -0.56,-0.42l0.56 0.51z"/>
   <path class="fil0" d="M13419.55 14811.5c0.52,-0.51 1.08,-1.03 1.68,-1.54 -0.81,-1.16 -1.46,-2.5 -2.36,-3.4 -0.22,-0.25 -1.16,0.78 -1.76,1.26 0.77,1.24 1.63,2.44 2.44,3.68z"/>
   <path class="fil0" d="M13376.58 14808.72c-4.28,-1.41 -6.61,-2.84 -7,-2.23 -1.54,2.57 -2.48,5.74 -3.6,8.66 2.84,-1.66 5.67,-3.43 10.6,-6.43z"/>
   <path class="fil0" d="M13177.22 14146.93c-0.59,0.22 -1.63,0.86 -1.75,0.59 -0.44,-0.81 -0.61,-1.92 -0.91,-2.92 1.03,-0.29 2.07,-0.59 3.05,-0.9 -0.08,1.09 -0.25,2.16 -0.39,3.23zm-71.16 114.04c-1.41,-0.29 -2.7,-1.8 -4.03,-2.84 0.6,-0.76 1.19,-2.22 1.8,-2.17 1.46,0.03 2.87,0.76 4.55,1.32 -0.86,1.38 -1.71,3.77 -2.32,3.69zm-9.14 -251.43c-0.56,-1.82 -1.25,-3.57 -1.59,-5.45 -0.09,-0.39 1.63,-1.82 1.8,-1.6 0.98,1.07 1.76,2.5 2.58,3.77 -0.9,1.09 -1.85,2.19 -2.79,3.28zm-15.24 -36.63c0.73,-1.8 1.46,-3.6 2.19,-5.4 1.33,1.07 2.61,2.06 4.94,3.91 -2.96,0.59 -5.03,1.07 -7.13,1.49zm-5.71 129.63c-3.52,-0.81 -7.03,-1.63 -10.51,-2.44 0.47,-2.11 1.15,-5.97 1.46,-5.88 3.43,0.64 6.82,1.85 10.17,2.96 -0.34,1.8 -0.73,3.56 -1.12,5.36zm-15.37 -34.25c-0.17,-0.68 2.28,-3.82 3.31,-3.65 1.8,0.34 3.52,2.32 6.74,4.68 -3.22,2.84 -5.19,5.85 -6.62,5.46 -1.49,-0.39 -2.78,-3.96 -3.43,-6.49zm-0.25 -78.42c1.32,0.09 2.66,0.43 4.04,0.65 -0.31,0.94 -0.56,1.93 -0.87,2.87 -1.15,-0.22 -2.36,-0.43 -3.56,-0.68 0.13,-0.99 0.25,-2.84 0.39,-2.84zm-8.85 -39.87c1.9,-10.81 1.72,-15.58 3.44,-18.37 2.36,-3.87 6.09,-6.27 11.16,-11.17 3.09,15.64 -2.88,20.36 -14.6,29.54zm-17.25 -49.49c-0.68,-1.97 -2.4,-5.03 -1.97,-5.71 1.46,-2.24 3.68,-3.65 5.57,-5.33 0.73,1.85 1.51,3.7 2.58,6.4 -2.06,1.5 -4.13,3.09 -6.18,4.64zm-12.84 160.57c-0.2,0.26 -0.38,0.52 -0.59,0.77l0.51 -0.77c0.05,0 0.05,0 0.08,0 0.44,-0.47 0.82,-0.94 1.26,-1.46 3.12,-3.81 4.24,-13.95 10.93,-6.82 1.29,1.36 0.78,5.71 1.12,8.67 -4.41,-0.13 -8.84,-0.21 -13.31,-0.39zm5.25 451.72c-1.6,-1.07 -2.16,-4.77 -3.18,-7.33 1.41,-0.95 2.96,-3.01 4.11,-2.63 1.77,0.52 3.23,2.75 6.18,5.5 -3.51,2.36 -6.01,5.19 -7.11,4.46zm-2.16 -590.75c0.95,-0.94 3.62,-0.73 4.52,0.35 7.25,8.62 1.46,14.94 -2.58,25.45 -6.91,-11.46 -9.02,-18.88 -1.94,-25.8zm-11.15 -69.1c-0.73,-1.84 3.17,-6.83 5.96,-12.37 3.39,4.08 7.6,7 7.47,9.45 -0.26,4.51 -3.09,8.76 -4.84,13.09 -3.01,-3.3 -6.96,-5.96 -8.59,-10.17zm-3.35 34.68c-1.59,0.26 -3.52,-3.31 -6.18,-6.09 2.78,-2.53 4.63,-5.59 6.4,-5.45 1.71,0.12 3.26,3.56 4.84,5.49 -1.67,2.19 -3.21,5.8 -5.06,6.05zm-15.79 -78.89c-1.26,-3.56 -3.43,-7.08 -3.53,-10.69 -0.04,-4.33 1.73,-8.71 2.66,-13.09 2.02,1.71 3.99,3.43 5.98,5.16 1.36,3.55 4.5,8.74 3.72,10.29 -1.97,3.7 -5.79,5.62 -8.83,8.33zm-0.78 29.57c-1.21,-0.29 -2.4,-0.65 -3.57,-0.99 0.82,-5.57 1.68,-11.2 2.5,-16.82 1.29,0.34 2.53,0.69 3.77,1.03 -0.9,5.59 -1.8,11.21 -2.7,16.78zm-18.89 -5.49c-0.73,-1.59 -1.2,-3.34 -1.76,-5.07 0.69,-0.29 1.38,-0.63 2.11,-0.94 0.55,1.72 1.2,3.43 1.76,5.15 -0.73,0.3 -2.02,1.07 -2.11,0.86zm25.63 -99.79l1.29 -0.09 -0.7 0.21c-0.03,0.47 -0.03,0.95 -0.08,1.42 1.37,4.03 2.75,8.11 4.12,12.15 -1.58,0.34 -3.17,0.73 -4.75,1.11 0.2,-4.42 0.42,-8.84 0.63,-13.26 -0.17,-0.52 -0.34,-1.08 -0.51,-1.54zm-47.21 -44.39l-0.13 -0.42c0.08,-0.65 0.17,-1.34 0.22,-1.99 0.12,-2.56 0.25,-5.14 0.37,-7.72l1.34 -0.73 -0.81 0.47c-0.31,2.67 -0.61,5.33 -0.9,7.98 0,0.7 -0.05,1.34 -0.09,2.02 0.6,0.22 1.24,0.39 1.84,0.56 -0.65,-0.05 -1.24,-0.08 -1.84,-0.17zm-22.92 171.05c-0.9,-2.11 -0.17,-7.6 1.15,-8.76 10.9,-9.27 15.32,6.53 22.96,11.46 -8.83,4.04 -18.1,12.02 -24.11,-2.7zm-6.18 -46.75c-3.57,-0.43 -8.51,-7 -9.24,-11.84 -0.51,-3.48 4.81,-11.85 7.69,-11.98 3.65,-0.12 7.37,5.92 13.04,11.08 -4.94,5.83 -8.49,13.13 -11.49,12.74zm-20.65 -95.11c-2.15,-6.74 5.11,-16.27 10.85,-14.21 3.45,1.29 6.1,6.1 11.09,11.38 -5.45,5.28 -8.9,10.85 -12.84,11.63 -2.75,0.56 -7.77,-4.69 -9.1,-8.8zm47.21 -0.61c0.56,-0.25 2.88,2.92 2.71,4.04 -0.44,2.41 -1.93,4.5 -3.82,8.51 -1.93,-3.92 -3.05,-6.06 -4.17,-8.25 1.76,-1.5 3.39,-3.48 5.28,-4.3zm-48.72 214.92c-0.55,0.17 -2.65,-3.39 -2.36,-4.21 0.95,-2.53 2.66,-4.63 5.02,-8.32 1.38,4.03 3.44,7.3 2.88,8.76 -0.82,2.06 -3.52,3.18 -5.54,3.77zm292.09 192.37c-6.18,-5.35 -11.03,-14.41 -12.53,-24.45 -47,-91.98 -91.9,-184.78 -133.14,-278.92 -1.51,2.45 -3.61,4.6 -6.74,6.06 -1.68,0.82 -6.66,-3.78 -7.22,-6.83 -1.66,-8.62 1.21,-13.22 6.57,-16.09 -33.31,-76.97 -64.13,-154.83 -91.47,-233.89 -1.29,17.73 -2.53,35.46 -3.82,53.44 1.24,1.88 2.5,5.06 4.51,6.69 6.87,5.67 14.93,11.63 7.09,23.01 -1.77,2.61 -11.04,-3.65 -19.07,-6.66 -3.13,6.32 -7.68,15.59 -12.23,24.95 -24.5,2.57 -24.5,2.57 -23.57,-43.14 -14.97,12.49 -14.92,20.09 0.48,59.49 -8.51,7.98 -17.08,16.01 -25.67,24.08 0.64,1.85 1.2,3.69 1.81,5.58 5.01,-0.56 10.04,-1.12 16.69,-1.85 4.08,27.73 1.24,54.64 0.31,81.73 -0.95,25.58 -8.12,51.85 2.95,76.78 6.14,-1.93 12.28,-3.85 18.68,-5.87 0.29,4.12 1.16,6.69 0.51,7.98 -4.12,8.24 -7.3,18.71 -13.14,23.77 -9.19,8.03 -11.28,18.85 -12.53,31.3 -2.36,23.22 -4.72,46.44 -6.78,66.87 5.79,11.42 10.94,21.54 17.39,34.21 10.29,-21.85 25.1,-15.49 43.13,-7.34 -2.23,-22.58 -3.91,-41.04 -5.96,-59.36 -1.94,-17.17 3.86,-36.32 -7.47,-51.33 -0.22,-0.26 3.56,-5.76 5.7,-9.15 4.21,-14.64 6.78,-31.42 23.69,-27.73 1.94,0.44 5.93,-2.01 6.27,-3.99 3.14,-17.42 14.17,-10.99 23.62,-16.74l0 19.32c-5.28,-0.78 -9.71,-1.41 -15.59,-2.28 2.28,19.36 6.06,34.42 20.39,40.18 -3.7,17.22 -7.38,34.42 -11.03,51.59 3.39,2.92 8.06,5.24 9.27,9.32 13.43,45.06 22.02,90.69 7.77,138.64 -2.19,7.34 -5.07,16.78 -3.31,23.26 8.46,31.29 -1.46,60.78 -3.17,91.04 -0.95,15.71 -0.56,31.46 -1.72,47.13 -0.69,8.67 -1.37,19.4 -5.41,25.19 -19.31,27.95 -19.45,60.57 -13.26,95.51 2.53,-17.35 5.07,-34.72 7.64,-52.11 3.14,14.94 18.67,26.57 5.84,44.21 -1.59,2.1 1.54,9.96 2.22,15.24 2.38,17.64 5.72,35.62 -10.03,51.12 -2.96,-10.78 -5.37,-19.49 -8.03,-29.19 -2.54,1.59 -5.97,2.36 -6.48,4.34 -8.76,34.16 -7.94,69.4 -6.45,112.32 5.76,-11.97 8.85,-18.37 13.66,-28.37 4.85,10.56 9.06,19.66 13.78,30 12.7,1.8 26.91,-15.84 40.35,1.43 1.37,1.75 6.91,-0.36 9.66,-2.55 18.24,-14.8 36.98,-16.08 57.94,-10.72 11.76,3 24.94,-4.38 37.56,-6.31 5.06,-0.82 10.59,-0.95 15.45,0.85 13.52,4.94 26.61,16.32 40.13,-1.63 2.23,-2.96 10.35,-0.25 14.89,2.24 13.05,7.17 26.32,8.41 40.09,6.83 18.54,-2.11 37.17,-2.75 55.59,-6.1 4.64,-0.86 8.54,-9.49 13.86,-15.84 2.92,4.85 5.19,11.24 9.01,14.08 3.35,2.44 8.46,1.42 12.71,1.11 23.95,-1.93 47.86,-4.03 71.81,-6.23 -71.81,-131.37 -144.52,-262.94 -213.2,-396.22z"/>
   <polygon class="fil0" points="13436.39,14806.22 13434.89,14806.82 13436.22,14808.02 "/>
   <polygon class="fil0" points="12854.07,17093.68 12852.61,17093.56 12853.25,17095.7 "/>
   <path class="fil0" d="M13626.03 15137.64l-2.02 -1.36 2.28 -0.87 -0.26 2.23zm-18.71 -34.25c-2.07,0.05 -6.06,-5.4 -6.01,-8.28 0.17,-10.01 2.36,-19.45 11.88,-24.21 0.6,8.97 1.85,17.17 1.33,25.15 -0.26,2.92 -4.64,7.3 -7.2,7.34zm-58.43 97.06c-0.68,-1.68 -2.14,-4.55 -1.89,-4.86 1.38,-1.63 3.23,-2.7 4.94,-3.95 0.3,2.02 1.2,4.38 0.73,5.97 -0.43,1.38 -2.44,1.89 -3.78,2.84zm-100.01 598.34c5.89,-15.84 8.03,-30.14 19.96,-35.59 8.41,28.25 5.37,34.47 -19.96,35.59zm-278.74 -608.48l-0.85 -2.32 1.67 0 -0.82 2.32zm-18.37 223.67c-3.77,-0.99 -8.49,-7.39 -9.53,-12.45 -2.05,-10.29 5.15,-21.29 15.32,-21.5 2.28,3.74 7.22,8.75 8.81,15.15 1.92,7.73 -7.81,20.51 -14.6,18.8zm-132.63 1811.25l-0.43 -2.45 1.55 0.61 -1.12 1.84zm-88.42 217.96c-5.84,-6.86 -9.95,-11.72 -14.08,-16.56 1.29,-2.75 2.62,-5.45 3.96,-8.2 5.45,0.81 10.93,1.58 18.62,2.75 -2.97,7.64 -4.99,12.92 -8.5,22.01zm-7.56 68.94c-0.51,0.22 -1.37,-1.04 -2.1,-1.58 0.95,-1.65 1.85,-3.28 2.8,-4.86 0.98,1.21 2.02,2.5 3,3.74 -1.2,0.9 -2.36,2.14 -3.7,2.7zm-48.92 -611.09c-3.23,4.55 2.62,19.1 2.91,29.14 0.35,13.44 -6.27,14.04 -14.03,10.78 -5.67,-62.93 -0.17,-112.41 19.92,-136.88 -1.12,16.27 -2.28,32.57 -3.23,48.84 -0.94,16.06 5.33,32.63 -5.57,48.12zm-18.73 527.73l0.14 -1.71 1.54 1.07 -1.68 0.64zm-5.26 63.14c-0.39,-0.77 -1.09,-1.72 -0.95,-2.27 0.22,-0.73 1.07,-1.12 1.68,-1.68 0.63,0.39 1.24,0.77 1.88,1.16 -0.86,0.95 -1.76,1.89 -2.61,2.79zm853.13 -2373.19c0.2,-1.98 1.15,-3.9 2.1,-5.89 -9.92,-23.01 -20.09,-45.92 -30.48,-68.8 -35.71,4.34 -70.82,13.9 -106.67,14.81 -14.16,0.38 -16.22,14.46 -19.05,28.45 -13.74,-15.83 -13.77,-16.74 -32.06,-15.36 -21.8,1.54 -43.62,3.87 -65.2,7.77 -12.32,2.23 -26.1,4.13 -30.52,28.93 -6.74,-11.51 -11.12,-19.01 -16.44,-28.11 -5.36,2.7 -10.86,5.4 -16.96,8.45 -1.71,14.25 -3.43,28.38 -5.48,45.41 -7.52,-7.12 -12.84,-12.19 -18.21,-17.25 -2.1,-1.97 -5.62,-6.18 -6.14,-5.62 -21.84,23.99 -26.53,-20.96 -47.55,-16.27 -16.74,16.13 -40.14,24.72 -65.76,24.13 -9.41,-0.22 -19.14,1.71 -28.21,5.01 -15.06,5.58 -29.73,11.85 -45.4,3.61 -2.24,-1.17 -6.23,-1.81 -7.51,-0.13 -15.55,19.92 -34.18,6.57 -51.3,8.88 -17.16,2.32 -34.3,5.42 -51.29,9.41 -9.96,2.31 -19.58,7.25 -29.4,10.73 -20.73,7.38 -41.51,14.5 -62.28,21.72 -14.08,4.89 -28.16,9.66 -43.32,14.85 -1.1,11.67 -2.44,21.59 -2.95,31.59 -3.35,69.06 -6.15,138.17 -9.88,207.19 -2.45,45.32 -6.39,90.52 -9.06,135.8 -1.93,32.67 -6.91,65.46 0.35,98.08 0.25,1.11 0.9,2.57 0.6,3.27 -14.04,31.02 0.21,62.01 -0.04,93 -0.09,9.1 0.86,20.26 -2.67,26.75 -7.63,14.12 -8.1,30.68 -6.3,44.33 3.56,26.79 -7.81,50.4 -4.86,77.01 2.89,25.84 1.34,52.62 1.26,78.97 -0.1,30.23 -0.7,60.57 -1.26,90.78 -0.12,5.64 0.39,14.04 -2.05,16.32 -10.14,9.57 -3.26,17.95 -1.89,28.63 2.65,20.77 1.38,42.14 -9.62,60.52 -3.13,5.24 -5.06,19.44 -3.91,20.22 16.83,11.46 5.63,34.2 12.07,50.55 6.13,15.72 -4.55,29.71 -19.36,30.91l0 29.96c4.89,-4.59 8.72,-8.2 12.4,-11.71 9.61,10.51 2.7,19.61 1.85,29.14 -0.86,8.84 1.21,18.2 2.23,30.99 -5.83,-6.49 -10.09,-11.16 -15.83,-17.6 -7.56,29.84 -7.39,58.93 -1.43,88.37 0.09,-0.03 0.18,-0.03 0.31,-0.08 1.85,-14.85 3.65,-29.74 5.79,-47.12 9.41,5.79 15.2,9.18 14.04,22.83 -1.42,16.91 -9.23,22.15 -19.83,24.29 -0.05,0.35 -0.09,0.69 -0.13,1.03l-0.6 -0.81c-6.91,17.69 -8.32,36.01 -7.86,56.05 0.95,44 -0.68,88.04 -0.6,132.07 0,13.4 2.02,26.8 3.13,40.53 6.96,-1 11.98,-1.73 17.05,-2.41 -14.77,15.2 -16.58,37.56 -22.4,56.31 -3.28,10.44 -6.1,21.85 0.03,35.29 3.99,8.79 2.79,24.21 0.34,35.28 -4.97,22.5 -0.98,43.91 -0.47,66.02 0.39,18.85 3.09,39.87 -4.98,58.58 -2.36,5.54 -3.09,13.27 -2.65,19.75 2.09,30.52 4.81,60.99 7.29,91.42l0.34 1.38 0.13 -2.06c1.33,-7.08 2.62,-14.16 3.99,-21.29 1.46,-7.86 3.01,-15.71 4.55,-23.57 1.98,-0.17 3.91,-0.42 5.88,-0.59 2.45,7.5 7,15.11 6.91,22.57 -0.46,37.22 -2.22,74.39 -3.34,111.56 -0.26,8.62 0.69,17.3 0.13,25.79 -0.34,5.98 -1.12,15.5 -3.7,16.88 -6.61,3.43 -11.02,-2.24 -12.36,-11.72 -0.43,-3.01 -2.06,-5.72 -3.69,-9.88 -3.48,8.93 -6.4,16.44 -9.32,23.91l0.56 -0.9 -0.73 1.46c6.88,29.95 7.17,59.41 -4.37,87.77 -0.39,1 -1.16,1.85 -1.33,2.88 -1.89,12.23 -6.36,24.98 -4.98,36.57 3.48,30.13 -11.33,59.19 -0.78,89.97 4.9,14.29 10.7,31.67 1.29,47.99 8.89,28.24 -2.96,56.65 0.56,85.19 1.97,15.54 1.2,31.69 1.72,47.53 0.52,15.66 1.12,31.24 1.76,48.36 10.43,10.7 14.42,18.76 11.94,28.98 432.83,-179.24 790.88,-531.94 956.86,-1010.79 195.05,-562.84 98.77,-1042.46 -95.33,-1497.53 -2.61,-0.43 -7.89,-5.45 -7.67,-7.29z"/>
   <path class="fil0" d="M13276.58 14812.83c1.2,1.12 2.45,2.15 4.29,3.82 1.08,-2.62 2.32,-5.06 2.96,-7.76 0.09,-0.53 -3.13,-3.18 -3.39,-2.84 -1.5,1.94 -2.62,4.47 -3.86,6.78z"/>
   <path class="fil0" d="M13241.1 14842.71c0.61,0.31 1.2,0.61 1.8,0.95 0.44,-0.64 1.21,-1.29 1.21,-1.93 0.04,-0.65 -0.65,-1.38 -1.04,-2.06 -0.68,1.03 -1.28,2.02 -1.97,3.04z"/>
   <path class="fil0" d="M13257.55 14843.54c3.74,-1.5 7.47,-2.96 11.21,-4.42 -0.73,-2.71 -1.46,-5.41 -2.15,-8.11 -3.65,2.36 -7.3,4.67 -10.9,7.04 0.6,1.8 1.2,3.64 1.84,5.49z"/>
   <path class="fil0" d="M12843.7 17158.87c0,0.04 0,0.08 0,0.12 0.09,-0.17 0.13,-0.29 0.22,-0.46l-0.22 0.34z"/>
   <path class="fil0" d="M13292.7 14828.78c-0.22,0.85 1.85,2.79 3.09,4.55 4.21,-3.31 8.41,-6.61 10.95,-8.59 -0.73,-7.81 -1.25,-13.52 -1.81,-19.27 -0.12,0.22 -0.34,0.47 -0.46,0.69 -15.08,-2.66 -9.46,13.69 -11.77,22.62z"/>
   <path class="fil0" d="M13324.37 14827.7c1.38,0.64 2.89,2.14 4,1.75 0.86,-0.29 1.2,-3.01 1.76,-4.67 -1.33,-0.82 -2.62,-1.63 -3.95,-2.45 -0.6,1.8 -1.2,3.6 -1.81,5.37z"/>
   <path class="fil0" d="M12843.49 17159.57l0.26 -0.51c0,0 0,-0.04 -0.05,-0.08 -0.04,0.22 -0.12,0.39 -0.21,0.59z"/>
   <path class="fil0" d="M13342.39 14823.46c3.31,-1.37 6.61,-2.75 9.92,-4.12 -0.9,-2.45 -1.8,-4.89 -2.67,-7.25 -2.92,2.19 -5.87,4.43 -8.79,6.65 0.51,1.55 1.03,3.14 1.54,4.72z"/>
   <path class="fil0" d="M12939.64 13905.46l-1.07 -0.34c-0.09,0.13 -0.22,0.34 -0.31,0.47 0,0.09 -0.03,0.22 -0.08,0.31l1.46 -0.44z"/>
   <path class="fil0" d="M12879.63 13764.02c-0.39,0.86 -0.95,1.72 -1.03,2.66 -0.09,0.87 0.34,1.89 0.59,2.84 1.08,-0.68 2.19,-1.41 3.31,-2.14 -0.95,-1.17 -1.89,-2.24 -2.87,-3.36z"/>
   <path class="fil0" d="M12533.42 17646.42c-2.01,0.99 -4.03,2.02 -6.1,3l6.31 0c-0.04,-1.02 -0.13,-2.01 -0.21,-3z"/>
   <path class="fil0" d="M12507.52 17542.9c-1.83,-1.84 -3.63,-3.69 -6.04,-6.09 -1.77,2.91 -4.08,5.19 -4.25,7.63 -0.05,1.9 2.57,4.04 3.99,6.1 2.11,-2.57 4.21,-5.1 6.3,-7.64z"/>
   <path class="fil0" d="M12527.34 17649.43l-1.58 0c-0.3,0.43 -0.61,0.85 -0.95,1.33 0.51,-0.31 1.04,-0.56 1.5,-0.82 0.35,-0.17 0.69,-0.34 1.03,-0.51z"/>
   <path class="fil0" d="M12509.95 17633.51c0.51,0.81 1.03,2.22 1.46,2.22 1.37,-0.22 2.66,-0.98 3.99,-1.54 -0.48,-0.82 -0.99,-2.41 -1.38,-2.31 -1.37,0.25 -2.7,1.02 -4.07,1.63z"/>
   <path class="fil0" d="M12895.45 14232.42c0.13,-3.61 0.08,-7.17 0.08,-10.78 -1.24,0.17 -2.53,0.35 -3.77,0.52 0.51,3.69 1.07,7.34 1.63,10.99 0.73,-0.21 2.06,-0.47 2.06,-0.73z"/>
   <path class="fil0" d="M12893.62 15329.09c-1.25,0.26 -2.49,0.51 -3.73,0.77 0.3,7.82 0.56,15.72 0.81,23.56 2.02,-0.47 3.99,-0.93 6.05,-1.41 -1.07,-7.64 -2.11,-15.24 -3.13,-22.92z"/>
   <path class="fil0" d="M12899.53 15254.36c-1.46,-0.21 -2.92,-0.46 -4.33,-0.72 -0.98,6.65 -1.97,13.3 -2.92,19.96 2.02,0.21 3.99,0.42 6.01,0.59 0.43,-6.6 0.82,-13.21 1.24,-19.83z"/>
   <path class="fil0" d="M12500.14 17586.53c0.61,-1.89 1.88,-3.99 1.59,-5.67 -0.22,-1.58 -2.1,-2.7 -3.26,-4.08 -0.61,1.97 -1.25,3.96 -1.85,5.88 1.16,1.29 2.36,2.58 3.52,3.87z"/>
   <path class="fil0" d="M13223.29 15104.44c0.59,-0.44 1.24,-0.82 1.85,-1.21 -0.44,-0.64 -0.87,-1.68 -1.34,-1.8 -0.56,-0.13 -1.21,0.68 -1.85,1.07 0.44,0.65 0.91,1.29 1.34,1.94z"/>
   <polygon class="fil0" points="12878.05,15586.95 12879.41,15587.34 12878.98,15584.93 "/>
   <path class="fil0" d="M12829.66 13285.95c1.2,-16.39 -1.41,-18.46 -15.37,-18.75l0.14 0.38 -0.65 -0.34c-11.16,30.39 -10.73,62.5 -2.87,92.84 4.11,16.01 3.35,23.52 -5.71,34.81 -12.83,15.97 -13.73,45.24 -4.77,66.75 -5.96,8.02 -14.29,15.19 -3.48,27.43 1.85,2.1 2.62,10.42 1.25,12.22 -13.3,17.09 4.42,23.83 5.66,36.1 4.21,-11.54 8.8,-22.87 9.11,-34.42 0.68,-24.98 14.63,-49.49 2.1,-75.15 -1.07,-2.16 -0.47,-8.12 0.95,-9.49 10.9,-10.43 8.63,-21.98 4.37,-36.19 -2.23,-7.38 0.27,-17.47 1.25,-26.22 2.57,-23.35 6.3,-46.53 8.02,-69.97z"/>
   <path class="fil0" d="M12876.88 15651.18l0 -2.7c-0.78,-0.39 -1.55,-1.21 -2.11,-1.03 -0.52,0.17 -0.86,1.5 -1.25,2.27 1.12,0.52 2.24,0.99 3.36,1.46z"/>
   <path class="fil0" d="M12828.05 13103.67c-1.07,1.12 -2.07,2.45 -3.26,3.13 -0.44,0.27 -2.02,-1.24 -1.98,-1.5 0.44,-1.76 1.12,-3.48 1.76,-5.19 1.16,1.2 2.32,2.41 3.48,3.56zm-7.77 -142.46c-8.15,37.13 -21.08,72.63 -25.03,111.05 -2.26,22.28 -0.43,45.41 0.48,68.07 0.52,13.52 10.64,22.62 22.1,21.76 12.67,-0.9 16.18,-5.54 16.4,-23.44 0.17,-16.04 0.13,-32.36 0.09,-49.02 -5.37,-43.04 -9.36,-86.57 -11.94,-130.52 -0.98,0.6 -1.93,1.2 -2.1,2.1z"/>
   <path class="fil0" d="M12887.04 14083.48c8.76,-10.35 9.01,-20.13 0,-31.33l0 31.33z"/>
   <path class="fil0" d="M12524.83 17650.73c-3.78,2.02 -7.51,4.04 -11.25,6.1 1.04,1.8 2.06,3.61 3.09,5.41 2.75,-3.86 5.45,-7.68 8.16,-11.51z"/>
   <path class="fil0" d="M12909.1 14095.98c0.81,-1.58 1.63,-3.12 2.44,-4.72 -1.32,0.95 -2.7,1.85 -4.07,2.79 0.56,0.64 1.12,1.29 1.63,1.93z"/>
   <path class="fil0" d="M12911.56 14091.27c0.34,-0.21 0.64,-0.47 0.98,-0.69 1.77,-2.92 3.52,-5.88 5.25,-8.8 -0.1,-0.17 -0.22,-0.39 -0.36,-0.56 -1.75,2.96 -3.51,5.93 -5.28,8.89 -0.21,0.39 -0.38,0.78 -0.59,1.16z"/>
   <path class="fil0" d="M13101.47 15031.87c-0.68,0.48 -1.37,0.95 -2.06,1.46 0.69,0.53 1.38,1.07 2.06,1.6l0 -3.06z"/>
   <path class="fil0" d="M12908.45 14051.54c0.7,5.84 1.38,11.66 2.02,17.51 0.73,-5.76 1.43,-11.55 2.14,-17.29 -1.41,-0.1 -2.78,-0.14 -4.16,-0.22z"/>
   <path class="fil0" d="M12942.51 14075.09c1.32,-0.05 2.61,-0.08 3.94,-0.13l0 -23.35c-1.33,0.08 -2.62,0.12 -3.94,0.26l0 23.22z"/>
   <path class="fil0" d="M13056.32 15048.55c0.83,0.22 1.64,0.39 2.41,0.56 0.78,-0.29 1.51,-0.59 2.27,-0.93 -0.64,-0.56 -1.32,-1.68 -1.85,-1.55 -0.98,0.26 -1.88,1.24 -2.83,1.92z"/>
   <polygon class="fil0" points="12885.21,14275.95 12883.62,14275.69 12884.26,14278.27 "/>
   <path class="fil0" d="M12916.35 14303.01c0.08,-0.77 -0.46,-1.59 -0.77,-2.4 -0.13,1.46 -0.25,2.96 -0.39,4.42 0.39,-0.69 1.12,-1.33 1.16,-2.02z"/>
   <polygon class="fil0" points="12884.08,15467.32 12884.98,15465.47 12883.52,15465.21 "/>
   <path class="fil0" d="M12886.67 15391.6c-0.95,16.41 -1.89,32.84 -2.83,49.24 7.34,-15.72 11.46,-31.76 2.83,-49.24z"/>
   <path class="fil0" d="M12910.48 14069.05c-0.08,0.77 -0.17,1.54 -0.3,2.32 0.22,0.12 0.51,0.12 0.73,0.25 -0.04,-0.13 -0.08,-0.21 -0.17,-0.3 -0.08,-0.73 -0.17,-1.5 -0.26,-2.27z"/>
   <path class="fil0" d="M12910.92 14071.6c2.16,3.22 4.35,6.44 6.54,9.61 0.03,-0.03 0.08,-0.12 0.12,-0.2 2.27,-9.15 -3.09,-8.08 -6.66,-9.41z"/>
   <polygon class="fil1" points="912.16,16027.33 520.62,16027.33 520.62,14075.13 912.16,14075.13 "/>
   <path class="fil1" d="M2657.39 14662.47c-44.72,-81.98 -106.31,-144.44 -184.57,-187.36 -78.33,-42.88 -169.71,-64.34 -274.1,-64.34 -115.67,0 -218.13,26.13 -307.67,78.33 -89.5,52.2 -159.41,126.84 -209.76,223.72 -50.31,96.96 -75.51,208.86 -75.51,335.65 0,130.53 25.62,244.28 76.92,341.19 51.25,97.01 122.58,171.57 213.97,223.71 91.34,52.24 197.57,78.33 318.79,78.33 149.19,0 271.35,-39.56 366.42,-118.84 95.08,-79.2 157.58,-189.72 187.36,-331.41l-671.22 0 0 -299.3 1057.24 0 0 341.24c-26.19,136.15 -82.12,261.99 -167.84,377.58 -85.8,115.64 -196.24,208.35 -331.45,278.27 -135.2,69.93 -286.68,104.86 -454.5,104.86 -188.35,0 -358.46,-42.35 -510.4,-127.22 -151.99,-84.82 -271.28,-202.76 -357.98,-353.81 -86.7,-151.05 -130.05,-322.57 -130.05,-514.6 0,-192.03 43.35,-364.03 130.05,-516.02 86.7,-151.94 205.99,-270.33 357.98,-355.23 151.94,-84.81 321.19,-127.22 507.65,-127.22 219.98,0 411.16,53.58 573.32,160.84 162.25,107.22 274.1,257.75 335.61,451.63l-450.26 0z"/>
   <path class="fil1" d="M3837.63 14972.96l327.2 0c106.31,0 185.51,-25.62 237.74,-76.92 52.16,-51.3 78.35,-122.58 78.35,-213.97 0,-89.54 -26.19,-158.94 -78.35,-208.39 -52.23,-49.41 -131.43,-74.08 -237.74,-74.08l-327.2 0 0 573.36zm615.29 1054.4l-430.73 -760.72 -184.56 0 0 760.72 -391.55 0 0 -1952.22 732.74 0c151.04,0 279.69,26.57 386,79.76 106.24,53.09 185.99,124.9 239.08,215.34 53.14,90.44 79.76,191.56 79.76,303.41 0,128.64 -37.34,244.75 -111.87,348.23 -74.63,103.5 -185.59,174.83 -332.86,213.94l467.09 791.54 -453.1 0z"/>
   <polygon class="fil1" points="5630.34,14391.19 5630.34,14880.64 6287.6,14880.64 6287.6,15191.05 5630.34,15191.05 5630.34,15708.5 6371.48,15708.5 6371.48,16027.32 5238.79,16027.32 5238.79,14072.37 6371.48,14072.37 6371.48,14391.19 "/>
   <path class="fil1" d="M7865.01 14075.13l0 1370.44c0,190.23 -55.02,338.01 -165.03,443.34 -110.02,105.34 -257.29,158 -441.85,158 -186.49,0 -337.02,-54.03 -451.71,-162.2 -114.65,-108.08 -172,-259.13 -172,-453.14l391.54 0c1.85,83.92 21.89,149.24 60.14,195.82 38.2,46.65 93.7,69.91 166.41,69.91 70.83,0 124.91,-22.36 162.25,-67.09 37.21,-44.81 55.93,-106.31 55.93,-184.64l0 -1370.44 394.32 0z"/>
   <polygon class="fil1" points="16263.21,14203.64 15547.22,16155.85 15071.77,16155.85 14355.81,14203.64 14775.29,14203.64 15312.3,15755.9 15846.48,14203.64 "/>
   <polygon class="fil1" points="7940.21,16023.16 8656.19,14070.96 9131.65,14070.96 9847.6,16023.16 9428.12,16023.16 8891.11,14470.91 8356.94,16023.16 "/>
   <polygon class="fil1" points="18531.12,16197.21 19247.11,14245.01 19722.56,14245.01 20438.52,16197.21 20019.04,16197.21 19482.03,14644.96 18947.85,16197.21 "/>
   <polygon class="fil1" points="16889.7,16155.85 16498.16,16155.85 16498.16,14203.64 16889.7,14203.64 "/>
   <polygon class="fil1" points="19029.29,14203.64 18313.29,16155.85 17837.84,16155.85 17121.89,14203.64 17541.38,14203.64 18078.38,15755.9 18612.55,14203.64 "/>
   <path class="fil1" d="M15026.86 16838.75l442.65 0c0.91,-5.19 1.23,-9.79 1.23,-14.07 0,-4.29 0,-8.26 0,-11.94 0,-41.03 -5.82,-79.6 -17.15,-115.72 -11.63,-35.82 -28.47,-67.34 -50.82,-93.98 -22.35,-26.63 -49.89,-47.45 -82.34,-63.06 -32.45,-15.61 -69.19,-23.26 -110.21,-23.26 -38.88,0 -74.38,7.65 -107.15,22.65 -32.75,15 -61.22,35.81 -84.79,62.14 -23.87,26.33 -42.55,57.24 -55.71,92.76 -13.17,35.81 -19.89,73.77 -19.89,114.18 0,43.16 7.33,82.66 22.03,118.47 14.7,36.12 34.59,67.04 60,92.45 25.11,25.71 54.49,45.61 88.47,59.39 33.97,14.08 69.79,21.12 108.06,21.12 53.27,0 97.96,-9.49 134.08,-28.77 35.82,-18.98 67.97,-44.4 95.82,-75.92l-51.74 -46.53c-22.96,23.87 -48.36,42.85 -76.22,57.24 -27.85,14.39 -60.91,21.74 -99.8,21.74 -24.49,0 -47.75,-4.29 -70.09,-12.56 -22.35,-8.26 -42.56,-20.5 -60.62,-36.73 -18.06,-16.22 -32.75,-35.82 -44.08,-59.39 -11.63,-23.26 -18.98,-49.9 -21.73,-80.21zm0 -61.52c2.75,-27.55 9.49,-52.97 19.59,-75.93 10.1,-22.96 22.96,-42.85 38.87,-59.69 15.61,-16.84 33.98,-30.31 54.8,-40.1 20.82,-9.49 43.46,-14.38 67.96,-14.38 28.16,0 52.96,5.19 74.08,15.61 21.12,10.4 39.18,24.19 54.18,41.32 14.7,17.46 26.33,37.65 34.59,60.61 8.28,22.96 13.17,47.15 15.31,72.56l-359.38 0zm1032.24 -149.09c-15,-31.83 -37.35,-58.46 -67.04,-79.58 -29.7,-21.12 -67.04,-31.84 -112.35,-31.84 -23.57,0 -44.39,2.75 -62.44,8.56 -18.07,5.82 -34.29,13.79 -48.68,23.28 -14.38,9.79 -27.24,21.12 -38.27,33.97 -11.33,13.16 -21.42,26.33 -30.91,40.1l0 -93.98 -83.28 0 0 558.37 83.28 0 0 -318.68c0,-26.01 3.97,-49.58 11.93,-70.71 7.96,-21.12 18.98,-39.79 33.07,-55.71 13.77,-15.62 30.3,-27.86 48.97,-36.74 18.68,-8.56 39.19,-12.86 61.53,-12.86 44.7,0 79.9,14.7 105.31,43.78 25.42,29.09 38.26,70.11 38.26,122.75l0 328.17 82.05 0 0 -321.73c0,-27.24 4.28,-51.74 12.55,-73.48 8.26,-21.73 19.29,-39.78 33.36,-54.79 14.09,-14.69 30.62,-25.72 49.29,-33.37 18.68,-7.65 38.57,-11.33 59.39,-11.33 45.31,0 80.81,14.7 106.54,43.78 25.4,29.09 38.26,70.71 38.26,124.91l0 326.01 82.96 0 0 -345.61c0,-69.79 -18.38,-124.6 -55.11,-164.7 -36.73,-40.1 -87.55,-59.99 -152.14,-59.99 -24.49,0 -46.53,2.75 -66.43,8.56 -19.89,5.82 -37.65,13.79 -53.26,23.89 -15.92,10.09 -30.31,22.03 -42.86,35.82 -12.55,13.77 -23.88,28.15 -33.98,43.15zm1387.65 363.98l-52.95 -49.9c-22.35,23.89 -47.15,43.78 -75.01,59.39 -27.85,15.93 -59.69,23.88 -95.81,23.88 -29.39,0 -56.63,-5.51 -81.43,-16.84 -24.79,-11.02 -46.53,-26.32 -64.59,-46.22 -18.37,-19.9 -32.75,-43.17 -43.17,-69.8 -10.71,-26.63 -15.91,-55.09 -15.91,-85.4 0,-30.31 5.2,-58.48 15.3,-84.81 10.1,-26.01 23.89,-48.97 41.94,-68.87 18.06,-19.9 39.18,-35.2 63.67,-46.53 24.49,-11.33 50.82,-16.84 78.99,-16.84 38.27,0 70.4,8.27 96.73,24.8 26.02,16.53 50.5,36.43 72.86,59.38l55.1 -58.15c-13.16,-13.78 -27.24,-26.64 -42.24,-38.88 -15.01,-12.25 -31.54,-22.96 -49.6,-31.84 -18.05,-8.88 -37.65,-15.91 -59.38,-21.12 -21.73,-5.21 -45.92,-7.65 -72.56,-7.65 -41.01,0 -78.97,7.65 -113.88,23.26 -34.9,15.61 -65.2,36.43 -90.61,63.06 -25.4,26.64 -45.31,57.86 -59.69,93.37 -14.39,35.82 -21.73,73.47 -21.73,112.96 0,39.49 7.34,77.14 21.73,112.35 14.38,35.2 34.29,66.12 59.69,92.45 25.41,26.33 55.71,47.14 90.61,62.45 34.91,15.61 72.87,23.26 113.88,23.26 52.66,0 96.74,-10.11 132.55,-30.3 35.52,-19.91 67.35,-45.92 95.51,-77.46zm186.74 -153.37l442.65 0c0.92,-5.19 1.23,-9.79 1.23,-14.07 0,-4.29 0,-8.26 0,-11.94 0,-41.03 -5.81,-79.6 -17.14,-115.72 -11.63,-35.82 -28.47,-67.34 -50.82,-93.98 -22.35,-26.63 -49.9,-47.45 -82.35,-63.06 -32.45,-15.61 -69.18,-23.26 -110.21,-23.26 -38.87,0 -74.38,7.65 -107.14,22.65 -32.76,15 -61.23,35.81 -84.79,62.14 -23.88,26.33 -42.55,57.24 -55.72,92.76 -13.16,35.81 -19.89,73.77 -19.89,114.18 0,43.16 7.34,82.66 22.03,118.47 14.7,36.12 34.59,67.04 60,92.45 25.11,25.71 54.5,45.61 88.48,59.39 33.97,14.08 69.79,21.12 108.05,21.12 53.27,0 97.96,-9.49 134.08,-28.77 35.82,-18.98 67.97,-44.4 95.82,-75.92l-51.73 -46.53c-22.96,23.87 -48.37,42.85 -76.23,57.24 -27.85,14.39 -60.91,21.74 -99.79,21.74 -24.5,0 -47.76,-4.29 -70.1,-12.56 -22.35,-8.26 -42.56,-20.5 -60.62,-36.73 -18.05,-16.22 -32.75,-35.82 -44.08,-59.39 -11.63,-23.26 -18.98,-49.9 -21.73,-80.21zm0 -61.52c2.75,-27.55 9.49,-52.97 19.59,-75.93 10.1,-22.96 22.96,-42.85 38.88,-59.69 15.61,-16.84 33.98,-30.31 54.8,-40.1 20.81,-9.49 43.46,-14.38 67.95,-14.38 28.17,0 52.96,5.19 74.08,15.61 21.13,10.4 39.18,24.19 54.18,41.32 14.7,17.46 26.33,37.65 34.6,60.61 8.27,22.96 13.16,47.15 15.3,72.56l-359.38 0zm198.67 -332.76l121.84 -116.64 -86.33 -40.1 -102.55 156.74 67.04 0zm481.53 642.55l0 -788.26 -83.27 0 0 788.26 83.27 0zm589.59 -238.78c0,26.03 -4.29,49.6 -12.86,71.33 -8.88,21.74 -20.51,40.1 -35.2,55.72 -14.69,15.61 -32.14,27.24 -52.66,35.51 -20.51,8.26 -42.85,12.55 -66.73,12.55 -49.59,0 -87.56,-15 -114.19,-45.31 -26.62,-30.31 -40.09,-71.32 -40.09,-123.06l0 -326.33 -83.27 0 0 346.84c0,33.07 4.9,63.37 14.7,90.62 9.49,27.24 23.56,50.81 41.94,70.71 18.36,19.89 40.71,35.2 67.04,45.92 26.31,10.71 56.32,16.22 90.3,16.22 48.06,0 87.24,-10.71 117.55,-31.83 30.3,-21.12 54.8,-47.15 73.47,-77.46l0 97.35 82.05 0 0 -558.37 -82.05 0 0 319.59zm359.7 238.78l0 -788.26 -83.27 0 0 788.26 83.27 0zm395.2 -492.54c52.66,0 93.67,12.84 122.75,38.26 29.08,25.71 43.47,63.67 43.47,114.18l0 19.28c-25.1,-7.03 -50.82,-12.85 -77.45,-17.14 -26.62,-4.28 -58.16,-6.43 -94.29,-6.43 -35.19,0 -67.34,3.98 -96.42,11.64 -29.08,7.95 -54.5,19.58 -75.62,34.59 -21.12,15 -37.64,33.98 -48.97,56.63 -11.63,22.96 -17.45,48.98 -17.45,78.37 0,29.69 5.82,55.11 17.75,76.84 11.94,21.73 27.55,39.8 47.46,54.48 19.89,14.7 42.24,25.72 67.04,33.07 24.79,7.03 50.2,10.71 76.22,10.71 49.58,0 90.92,-9.8 123.67,-29.38 32.75,-19.29 58.78,-41.64 78.06,-66.74l0 84.18 79.9 0 0 -341.32c0,-74.08 -20.51,-130.1 -61.52,-168.06 -41.03,-37.66 -99.81,-56.64 -176.03,-56.64 -41.02,0 -77.45,4.28 -108.98,12.56 -31.53,8.26 -63.06,19.58 -93.99,33.97l24.8 67.96c26.03,-12.24 52.35,-22.05 79.6,-29.7 26.93,-7.65 56.94,-11.31 90,-11.31zm3.37 209.68c34.59,0 65.2,2.45 92.44,7.35 26.94,5.21 50.82,10.4 71.64,16.22l0 54.19c0,22.34 -4.9,42.55 -14.39,60.92 -9.8,18.36 -23.27,34.29 -40.1,47.44 -16.84,13.47 -36.74,23.89 -59.39,31.54 -22.66,7.65 -46.83,11.33 -72.86,11.33 -18.67,0 -36.73,-2.45 -53.57,-7.66 -16.84,-5.2 -31.84,-12.55 -44.69,-22.35 -13.16,-9.49 -23.28,-21.12 -30.93,-34.89 -7.65,-13.78 -11.31,-29.39 -11.31,-47.45 0,-36.13 14.07,-64.6 42.24,-85.42 27.85,-20.8 68.26,-31.22 120.92,-31.22zm803.57 126.13l0 -2.14c0,-25.11 -5.21,-46.23 -15.61,-63.67 -10.72,-17.15 -24.49,-31.85 -41.64,-44.09 -17.44,-12.25 -36.73,-22.35 -57.85,-30.3 -21.12,-7.96 -42.55,-15.31 -64.29,-21.75 -18.68,-5.81 -36.73,-11.31 -53.88,-17.14 -17.44,-5.82 -32.75,-12.24 -45.92,-19.59 -13.16,-7.03 -23.87,-15.61 -31.84,-25.4 -7.95,-9.49 -11.93,-20.82 -11.93,-33.99l0 -2.14c0,-22.96 9.79,-42.24 29.08,-57.85 19.28,-15.31 45.61,-22.96 78.99,-22.96 27.24,0 55.09,4.89 83.56,14.38 28.47,9.79 55.41,22.96 81.43,39.49l37.96 -62.75c-28.77,-18.68 -60.92,-33.37 -96.13,-44.69 -35.2,-11.33 -70.09,-16.84 -104.68,-16.84 -27.25,0 -52.66,3.67 -76.23,11.33 -23.57,7.65 -43.47,18.37 -60.31,32.44 -16.83,14.08 -29.99,30.92 -39.48,50.81 -9.49,19.91 -14.09,41.64 -14.09,65.22l0 2.45c0,26.01 5.51,47.45 16.84,64.59 11.02,17.45 25.4,31.83 43.16,43.16 17.45,11.63 37.35,21.12 59.39,28.77 21.73,7.66 43.47,14.7 65.21,21.12 18.05,4.91 35.5,10.11 52.34,15.93 16.84,5.82 31.84,12.54 45,20.2 12.85,7.65 22.96,16.23 30.62,26.33 7.65,10.1 11.32,22.03 11.32,35.82l0 2.14c0,27.24 -10.72,48.97 -32.14,64.58 -21.73,15.93 -49.29,23.89 -83.27,23.89 -33.37,0 -66.12,-6.12 -98.87,-18.38 -32.76,-12.24 -64.29,-29.99 -94.6,-52.95l-41.94 59.39c31.54,25.4 67.96,45.3 108.98,60 41.03,14.69 81.74,22.04 122.14,22.04 27.87,0 54.18,-3.67 78.37,-11.33 24.19,-7.65 45.01,-18.67 62.46,-33.07 17.44,-14.38 31.52,-31.82 42.24,-52.34 10.4,-20.51 15.61,-44.08 15.61,-70.71z"/>
  </g>
 </g>
</svg>
