<?xml version="1.0" encoding="UTF-8"?>
<!DOCTYPE svg PUBLIC "-//W3C//DTD SVG 1.1//EN" "http://www.w3.org/Graphics/SVG/1.1/DTD/svg11.dtd">
<!-- Creator: CorelDRAW (Versão OEM) -->
<svg xmlns="http://www.w3.org/2000/svg" xml:space="preserve" width="210mm" height="297mm" version="1.1" style="shape-rendering:geometricPrecision; text-rendering:geometricPrecision; image-rendering:optimizeQuality; fill-rule:evenodd; clip-rule:evenodd"
viewBox="0 0 21000 29700"
 xmlns:xlink="http://www.w3.org/1999/xlink"
 xmlns:xodm="http://www.corel.com/coreldraw/odm/2003">
 <defs>
  <style type="text/css">
   <![CDATA[
    .fil0 {fill:#0BB8F4;fill-rule:nonzero}
    .fil1 {fill:#0F4659;fill-rule:nonzero}
   ]]>
  </style>
 </defs>
 <g id="OBJECTS">
  <metadata id="CorelCorpID_0Corel-Layer"/>
  <g id="_2917886590992">
   <path class="fil0" d="M12933.95 8277.07c-1.41,2.3 -3.71,4.4 -3.95,6.81 -0.16,2.5 1.8,5.31 2.71,7.97 1.41,-2.21 2.77,-4.4 4.12,-6.66 -0.9,-2.65 -1.92,-5.37 -2.88,-8.12z"/>
   <path class="fil0" d="M12850.45 21469.78c0.74,-3.46 1.58,-6.95 2.32,-10.4 -4.46,-0.79 -8.86,-1.57 -13.31,-2.31 1.23,5.7 2.53,11.39 3.77,17.11 2.37,-1.48 4.85,-2.95 7.22,-4.4z"/>
   <path class="fil0" d="M12893.95 20993.72l-1.52 0.4c3.78,8.86 7.66,17.66 11.5,26.46 -3.37,-9.02 -6.65,-18 -9.98,-26.86z"/>
   <path class="fil0" d="M12891.77 22012.88c-61.35,69.76 -61.35,69.76 -26.07,163.51 9.66,-60.35 16.31,-102.28 26.07,-163.51z"/>
   <path class="fil0" d="M12896.38 21125.64c-4.4,-3.95 -8.86,-7.83 -15.96,-14.11 -4.18,8.35 -8.31,16.77 -12.48,25.12 4.68,3.73 11.52,11.97 13.66,10.27 5.92,-4.91 10.05,-13.93 14.78,-21.28z"/>
   <polygon class="fil0" points="12879.63,21305.34 12875.33,21304.33 12876.69,21310.65 "/>
   <path class="fil0" d="M12887.69 20995.3l4.68 -1.2c-0.16,-0.44 -0.39,-0.96 -0.61,-1.4l-4.07 2.6z"/>
   <path class="fil0" d="M12983.53 16889.87c2.3,-39.56 4.68,-80.49 8.52,-145.95 -26.3,84.66 -26.92,87.77 -8.52,145.95z"/>
   <path class="fil0" d="M12984.41 16901.87c-1.48,12.93 -2.88,25.81 -4.42,38.72 4.8,-0.56 9.6,-1.3 14.34,-1.74 -3.27,-12.31 -6.6,-24.67 -9.92,-36.98z"/>
   <polygon class="fil0" points="12935.4,20659.62 12931.69,20666.85 12937.43,20667.92 "/>
   <path class="fil0" d="M12983.53 16889.87c-0.18,2.37 -0.29,4.8 -0.45,7.17 0.45,1.63 0.89,3.22 1.34,4.85 0.23,-2.26 0.51,-4.51 0.74,-6.77 -0.63,-1.98 -1.07,-3.39 -1.63,-5.25z"/>
   <path class="fil0" d="M13082.54 6064.72c0,4.78 0.47,9.58 0.69,14.38 -0.22,-4.8 -0.46,-9.6 -0.69,-14.38z"/>
   <path class="fil0" d="M12972.65 8687.16c2.25,5.36 5.18,10.38 7.95,15.41 3.84,-3.95 7.73,-8.13 11.68,-12.19 -4.29,-3.22 -8.4,-7.4 -12.91,-9.36 -1.76,-0.69 -6.95,5.69 -6.72,6.14z"/>
   <path class="fil0" d="M12798.42 19437.6c-4.4,0.63 -8.91,1.46 -13.37,2.15l0 74.44c7.28,-1.02 14.62,-2.21 21.9,-3.33 -2.77,-24.44 -5.65,-48.87 -8.53,-73.26z"/>
   <path class="fil0" d="M12953.11 20555.02c-1.87,-5.86 -5.13,-10.94 -7.85,-16.42 -3.78,4.85 -7.44,9.72 -11.28,14.63 4.57,3.48 8.86,7.44 13.66,9.69 1.07,0.51 5.86,-6.43 5.47,-7.9z"/>
   <path class="fil0" d="M12971.37 21254.71c-6.66,-0.69 -13.27,-1.43 -19.92,-2.1 -1.25,33.65 -2.61,67.27 -3.84,100.86 3.22,0.17 6.54,0.33 9.76,0.56 4.62,-33.19 9.31,-66.32 14,-99.32z"/>
   <path class="fil0" d="M12869.47 19448.16c5.76,-0.72 11.46,-1.63 17.33,-2.48 4.73,-134.55 17.77,-269.89 11.74,-403.64 -4.75,-106.86 -5.09,-209.68 16.88,-312.35 8.29,-38.83 3.1,-69.88 -37.31,-101.25 -41.44,262.17 -11.07,516.87 -24.78,767.92 -0.9,16.65 10.49,34.54 16.14,51.8z"/>
   <path class="fil0" d="M12640.53 6254.76c-0.62,-6.2 -1.3,-12.41 -1.92,-18.68 -1.74,2.72 -3.84,5.6 -3.39,7.17 1.18,4.12 3.33,7.79 5.31,11.51z"/>
   <path class="fil0" d="M12638.24 6232.29c0.11,1.29 0.29,2.52 0.4,3.82 0.51,-0.78 1.03,-1.52 1.41,-2.19 7.39,-9.31 14.74,-18.58 22.13,-27.89 0.06,-0.73 0.11,-1.41 0.17,-2.14 -0.51,-0.16 -0.96,-0.29 -1.47,-0.45 -7.61,9.6 -15.07,19.25 -22.64,28.85z"/>
   <path class="fil0" d="M12641.36 6153.24c7.63,2.03 15.25,4.17 22.82,6.38 0.6,-0.24 1.18,-0.46 1.74,-0.69 0.06,-0.62 0.11,-1.29 0.18,-1.92 -8.24,-1.23 -16.55,-2.48 -24.74,-3.77z"/>
   <path class="fil0" d="M11960.33 23132.67c0.91,-3.22 1.74,-6.39 2.59,-9.54 -2.93,2.03 -5.81,4.11 -8.73,6.14 2.08,1.14 4.11,2.21 6.14,3.4z"/>
   <path class="fil0" d="M12643.35 6260.89c-0.96,-1.98 -1.81,-4.13 -2.84,-6.09 0.29,2.81 0.58,5.69 0.85,8.57l1.99 -2.48z"/>
   <path class="fil0" d="M6621.96 14271.57c2.26,2.66 4.51,5.36 6.77,8.07 -0.11,-2.03 0,-4.29 -0.67,-5.92 -0.8,-1.75 -4.02,-1.52 -6.1,-2.15z"/>
   <path class="fil0" d="M12707.76 6142.95c-14,5.31 -27.89,10.67 -41.82,15.98 -1.25,15.06 -2.44,29.97 -3.56,44.98 14.05,4.23 28.27,8.63 41.83,12.63 -9.09,133.72 29.45,163.29 151.02,109.39 -20.65,-2.77 -41.42,-5.47 -72.92,-9.65 3.5,-65.91 6.9,-132.63 10.5,-202.18 83.43,-42.89 96.58,-155.36 132.75,-244.82 5.3,-13.15 -2.2,-44.59 -12.41,-61.47 -16.43,3.05 -32.57,8.46 -47.92,18.13 -1.36,3.66 -2.83,7.21 -4.01,10.94 -3.16,9.49 -12.02,15.63 -23.65,29.96 -0.96,-7.21 -2.32,-13.26 -3.55,-20.09 -68.52,46.4 -135.91,93.42 -202.85,140.71 0.63,33.42 2.26,67.34 8.53,102.95 2.81,16.19 43.56,22.35 68.06,52.54z"/>
   <path class="fil0" d="M12985.33 18828.13c-0.16,-2.72 -0.33,-5.42 -0.51,-8.12 -0.16,-0.85 -0.38,-1.65 -0.56,-2.5 -0.45,1.54 -0.78,3.06 -1.29,4.58 0.84,1.98 1.52,4.06 2.36,6.04z"/>
   <path class="fil0" d="M12853.07 21882.34c24.27,49.61 49.01,77.09 92.57,55.25 -26.41,-23.42 -41.77,-81 -92.57,-55.25z"/>
   <path class="fil0" d="M12921.88 22247.67c5.25,-3 13.09,-4.23 14.96,-9.32 1.75,-5.02 -2.72,-13.77 -4.57,-20.83 -5.2,3.11 -12.71,4.76 -15.07,10.12 -1.75,4.17 2.92,13.15 4.68,20.03z"/>
   <path class="fil0" d="M12829.81 20031.24c24.72,-54.64 48.81,-92.62 7.39,-140.47 -2.14,41.35 -4.35,82.79 -7.39,140.47z"/>
   <path class="fil0" d="M12990.04 18840.15c-1.3,-4.18 -3.06,-8.08 -4.69,-12.03 0.34,5.98 0.74,12.03 1.14,17.95 1.29,-1.97 3.95,-4.8 3.55,-5.92z"/>
   <path class="fil0" d="M12846.82 19761.91c-2.03,-0.96 -5.09,1.76 -7.68,2.84 0.17,3.66 0.51,7.32 0.73,11.05 4.12,-1.85 8.18,-3.73 12.24,-5.58 -1.68,-2.93 -2.97,-7.35 -5.29,-8.31z"/>
   <path class="fil0" d="M6933.38 14494.34c0,0 0,-0.05 0,-0.05 0,0 0,0 0,0 0,0.05 0,0.05 0,0.05 0,0 0,0.06 0,0z"/>
   <path class="fil0" d="M12964.66 18731.29c6.55,28.8 13.09,57.52 19.59,86.25 9.8,-31.39 15.68,-62.2 -19.59,-86.25z"/>
   <path class="fil0" d="M8167.63 13567.01l0.61 3.95c-0.23,0.73 -0.45,1.47 -0.68,2.25 0.63,0.12 1.25,0.12 1.88,0.29l-1.81 -6.49z"/>
   <path class="fil0" d="M12803.32 22876.05c-2.37,-1.25 -5.63,-4.47 -6.95,-3.39 -2.03,1.69 -2.7,6.09 -4.78,11.74 4.78,-3.55 8.29,-5.99 11.73,-8.35z"/>
   <path class="fil0" d="M13374.18 8239.02c9.25,25.01 1.41,60.96 1.41,91.32 8.46,1.25 18.91,4.58 19.54,2.71 26.06,-86.75 44.81,-174.68 57.61,-267.63 -18.9,-60.11 -37.36,-120.39 -55.09,-180.9 -4.4,26.64 -9.93,53.23 -17.71,79.8 -24.56,83.93 -40.87,180.39 -5.76,274.7z"/>
   <path class="fil0" d="M13010.55 18466.8c-4.63,46.29 -7.57,75.24 -10.38,102.95 24.49,-39.22 24.6,-42.78 10.38,-102.95z"/>
   <path class="fil0" d="M8727.82 13451c-79.02,-30.77 -89.73,-19.13 -75.91,68.91 0.91,5.87 1.2,12.01 1.58,18.11 9.2,-15.52 17.5,-32.4 28.4,-45.38 12.24,-14.78 27.42,-25.27 45.93,-41.64z"/>
   <path class="fil0" d="M8653.49 13538.05c-0.62,1.07 -1.18,2.14 -1.87,3.21 0.06,1.64 -0.11,2.37 -0.05,3.89 0.79,-0.38 1.63,-0.78 2.43,-1.18 -0.17,-1.97 -0.4,-3.95 -0.51,-5.92z"/>
   <path class="fil0" d="M12999.45 18577c0.22,-2.37 0.51,-4.86 0.73,-7.28 -1.13,1.81 -1.58,2.77 -2.77,4.69 -0.11,3.49 -0.33,6.99 -0.44,10.54 0.78,-2.65 1.63,-5.36 2.48,-7.95z"/>
   <path class="fil0" d="M13008.74 8374.59c-1.74,21.17 -3.22,39.06 -4.69,56.94 24.11,-10.88 27.71,-28.38 4.69,-56.94z"/>
   <path class="fil0" d="M13004.07 8431.57c-0.85,0.4 -1.25,0.96 -2.21,1.36l-4.69 2.19 6.61 0.11c0.07,-1.12 0.18,-2.48 0.29,-3.66z"/>
   <path class="fil0" d="M13382.31 8421.44c2.66,-4.69 7.12,-9.31 7.34,-14.22 0.18,-4.07 -4.62,-8.47 -7.45,-13.27 -1.92,7.06 -4.29,13.15 -5.03,19.58 -0.22,2.15 3.35,5.25 5.14,7.91z"/>
   <path class="fil0" d="M8937.17 13912.82c16.87,-15.76 34.14,-31.9 62.42,-58.32 -64.57,-19.47 -61.24,22.59 -62.42,58.32z"/>
   <path class="fil0" d="M11762.3 23244.39c-0.51,-0.12 -1.14,-0.4 -1.63,-0.52 -0.07,1.19 0.04,2.26 0,3.4l1.63 -2.88z"/>
   <path class="fil0" d="M9683.94 15024.7c18.4,-0.07 36.86,-0.07 55.19,-0.12 -0.11,-0.68 -0.33,-1.51 -0.45,-2.14l2.55 2.14c-19.07,-21.39 -38.09,-33.8 -57.07,-2.47 0.23,0.04 0.51,0.11 0.8,0.16 -0.33,0.8 -0.69,1.63 -1.02,2.43z"/>
   <path class="fil0" d="M11819.96 22873.09c-0.05,0.51 -0.12,1.07 -0.23,1.58 56,-16.88 61.36,-27.55 37.49,-73.54 -0.85,0.04 -1.7,0.04 -2.55,0.11 -11.92,23.82 -23.75,47.63 -35.67,71.45 0.4,0.06 0.56,0.33 0.96,0.4z"/>
   <path class="fil0" d="M9647.8 14850.44l1.69 -4.45c-0.29,0.23 -0.62,0.39 -0.91,0.61l-0.78 3.84z"/>
   <path class="fil0" d="M8937.17 13912.82c-0.74,0.67 -1.64,1.52 -2.37,2.19 0.33,0.91 0.67,1.76 1.01,2.59 0.4,0.24 0.8,0.35 1.18,0.58 0.06,-1.76 0.11,-3.62 0.18,-5.36z"/>
   <path class="fil0" d="M10328.32 14689.72c0.16,-7.73 0.33,-15.46 0.56,-23.31 -0.11,0.22 -0.23,0.56 -0.34,0.8 -0.06,7.5 -0.11,15 -0.22,22.51z"/>
   <path class="fil0" d="M6628.71 14279.67c0.07,1.63 0.4,3.1 0.56,4.73 0.51,0.24 0.96,0.47 1.43,0.74 0.11,-0.9 0.16,-1.86 0.27,-2.82 -0.79,-0.89 -1.52,-1.74 -2.26,-2.65z"/>
   <path class="fil0" d="M12451.84 20080.5l0 -55.77c-2.43,0 -4.96,0 -7.45,0l0 55.88c2.49,0 5.02,-0.07 7.45,-0.11z"/>
   <path class="fil0" d="M12576.73 7557.24c-7.62,71.16 -15.23,142.45 -23.42,218.41 20.54,9.26 36.52,16.49 67.62,30.43 -19.82,-92.9 37.14,-176.83 -44.2,-248.84z"/>
   <path class="fil0" d="M12494.43 18633.67c-15.57,146.63 -38.32,293.21 -6.37,440.91 -14.22,-147.3 30.7,-293.32 6.37,-440.91z"/>
   <path class="fil0" d="M12413.11 20836.66c2.49,-15.25 4.91,-30.59 7.34,-45.88 -5.69,12.97 -11.4,25.9 -17.1,38.94 3.33,2.3 6.61,4.62 9.76,6.94z"/>
   <path class="fil0" d="M12522.78 22800.65c-1.87,-2.6 -3.62,-5.14 -5.36,-7.73 3.6,-2.55 7.28,-5.09 10.9,-7.52 0.49,3.45 2.03,7.57 1.07,10.27 -0.85,2.38 -4.35,3.39 -6.61,4.98zm62.65 133.31c11.57,-19.36 18.51,-43.8 16.37,-76.82 -18.58,16.76 -37.09,33.69 -64.64,58.54 -1.12,-28.34 -5.29,-44.59 -1.74,-56.67 29.07,-97.93 21.28,-130.26 -44.25,-173.62l0.33 -7.84 -0.89 4.91c-14.11,70.61 -28.34,141.21 -42.5,211.83 39.39,104.96 4.63,213.21 1.86,321.03 22.41,-6.16 44.76,-12.66 67.11,-19.09 0.16,-69.08 12.87,-136.25 24.32,-203.34 3.89,-22.75 31.04,-37.15 44.03,-58.93z"/>
   <path class="fil0" d="M12760.81 19950.89c7.5,-53.05 12.25,-86.06 16.94,-118.97 -21.96,26.82 -51.03,56.83 -16.94,118.97z"/>
   <path class="fil0" d="M12754.83 22804.9c3.15,2.26 9.08,-2.21 13.64,-3.73 -2.3,-5.82 -3.73,-14.84 -7.39,-16.83 -3.89,-2.25 -9.93,2.1 -15.01,3.51 2.88,5.98 4.69,14.11 8.76,17.05z"/>
   <path class="fil0" d="M12420.44 20790.79c0.96,-2.14 1.87,-4.29 2.83,-6.43 -0.11,-2.48 -0.23,-4.98 -0.4,-7.46 -0.34,1.59 -0.63,3.22 -0.96,4.8 -0.51,3.06 -1.03,6.04 -1.47,9.09z"/>
   <path class="fil0" d="M12643.12 6815.65c9.54,-54.51 37.49,-108.3 0,-189.08l0 189.08z"/>
   <path class="fil0" d="M12427.51 18673.89c-4.63,3.49 -11.23,5.81 -12.98,10.99 -1.52,4.13 3.15,11.74 5.14,17.79 4.17,-2.77 8.35,-5.71 12.59,-8.7 -1.58,-6.7 -3.22,-13.49 -4.75,-20.08z"/>
   <path class="fil0" d="M12420.98 20740.8c0.56,12.03 1.25,24.11 1.92,36.12 2.32,-11.28 4.62,-22.62 7.01,-33.98 -2.99,-0.72 -5.94,-1.3 -8.93,-2.14z"/>
   <polygon class="fil0" points="12430.71,20586.73 12424.95,20589.38 12429.86,20594.12 "/>
   <path class="fil0" d="M12248.64 23258.96c-1.25,1.52 -1.25,4.96 -1.52,8 3.84,-0.94 7.62,-2.03 11.46,-2.93 -0.67,-2.03 -1.36,-4.06 -1.99,-5.98 -2.75,0.11 -6.43,-0.96 -7.95,0.91z"/>
   <path class="fil0" d="M12389.05 23209.46c4.84,-3.33 11.85,-5.2 13.77,-10.33 1.68,-4.36 -2.43,-12.6 -4.01,-19.08 -4.85,2.93 -12.37,4.45 -13.71,9.14 -1.59,5.2 2.43,13.26 3.95,20.27z"/>
   <polygon class="fil0" points="12397.06,22967.8 12397.86,22973.21 12397.8,22965.03 "/>
   <path class="fil0" d="M12428.63 18764.6c-4.18,-1.47 -8.4,-2.94 -12.53,-4.4 -8.3,19.41 -16.65,38.72 -34.09,79.58 27.44,-15.69 42.04,-18.06 45.43,-27.44 4.74,-13.2 1.19,-31.66 1.19,-47.74z"/>
   <path class="fil0" d="M12389.91 22851.35c-2.32,-1.36 -5.25,-4.58 -6.83,-3.62 -1.86,1.12 -2.48,5.69 -3.78,8.8 2.32,1.29 4.63,2.54 6.95,3.95 1.23,-3.04 2.48,-6.14 3.66,-9.13z"/>
   <path class="fil0" d="M8601.4 14549.41c0.85,-0.07 1.63,-5.03 2.43,-7.79 -2.43,-1.19 -4.8,-3.22 -7.17,-3.11 -0.91,0 -1.69,5.07 -2.47,7.91 2.41,1.12 4.89,3.15 7.21,2.99z"/>
   <polygon class="fil0" points="7954.03,14238.9 7950.93,14229.48 7947.89,14238.79 "/>
   <path class="fil0" d="M8400.86 14010.73c3.95,-4.11 8.08,-8.06 11.79,-12.57 0.24,-0.29 -3.22,-8.13 -4.79,-8.02 -5.02,0.34 -10,2.82 -14.95,4.4 2.59,5.41 5.24,10.83 7.95,16.19z"/>
   <path class="fil0" d="M8164.65 14734.88c20.21,-16.59 40.48,-33.24 63.95,-52.6 -48.48,-46.78 -59.26,0.28 -63.95,52.6z"/>
   <path class="fil0" d="M11607.24 23190.89c-5.09,-0.96 -8.87,-13.62 -13.27,-21.06 6.1,-5.69 12.2,-15.81 18.23,-15.81 5.53,0.18 10.83,11.57 19.64,21.95 -11.29,7.4 -18.51,16.21 -24.6,14.92zm-25.74 -255.01c-0.52,-1.47 3.66,-7.73 4.57,-7.28 4.51,1.99 8.51,5.47 13.82,9.27 -4,4.56 -7.61,8.8 -11.23,13.08 -2.54,-4.96 -5.53,-9.71 -7.16,-15.07zm-393.22 -2664.97l3.1 -6.09 1.97 6.7 -5.07 -0.61zm-480.3 2576.6c-32.01,50.95 -66.22,99.33 -56.84,173.82 -49.39,-27.15 -90.99,-47.35 -130.89,-72.7 -34.31,-21.66 -52.65,-62.92 -40.35,-110.55 11.64,-45.32 29.41,-91.27 52.88,-127.22 46.35,-70.83 119.54,-76.87 172.82,-14.78 15.53,18.11 22.59,55.87 23.93,85.49 1.14,21.46 -10.16,47.76 -21.55,65.94zm-239.08 -2090.2c16.99,30.99 31.26,46.78 33.58,65.06 1.25,10.56 -16.66,25.34 -25.9,38.27 -9.38,-13.37 -23.82,-25.28 -26.48,-40.75 -2.3,-13.53 8.64,-31.1 18.8,-62.58zm34.76 1116.72c-1.96,2.15 -3.84,4.23 -5.8,6.37 -1.54,-2.54 -4.42,-5.41 -4.24,-7.73 0.17,-2.37 3.44,-4.29 5.42,-6.38 1.58,2.54 3.1,5.13 4.62,7.74zm-1011.85 -6410.1c-4.85,7.67 -9.71,15.51 -14.56,23.24 -1.98,-2.77 -4.02,-5.58 -5.98,-8.35 7.5,-5.81 15,-11.68 22.57,-17.5l3.55 2.16 -5.58 0.45zm-136.76 -439.79l-2.48 -8.35 5.47 0.28 -2.99 8.07zm-20.59 415.63c-4.46,1.47 -10.11,-3.73 -15.29,-6.05 3.21,-5.58 5.69,-13.76 9.92,-16.08 3.34,-1.74 8.86,3.62 13.55,5.98 -2.71,5.7 -4.69,14.96 -8.18,16.15zm-283.78 845.24c-1.92,-8.86 -3.91,-17.84 -5.76,-26.86 12.7,-5.76 25.45,-11.47 38.2,-17.22 1.99,9.65 6.5,27.27 5.43,27.94 -12.2,6.88 -25.12,11.23 -37.87,16.14zm-165.65 -766.4c37.93,-38.21 43.4,-128.23 110.61,-114.9 6.5,84.15 -32.96,130.42 -110.61,114.9zm-19.59 -553.44l-6.43 -6.16 8.02 -2.71 -1.59 8.87zm-248.57 1195.72c-4.51,-7.5 -12.69,-15.18 -12.53,-22.46 0.23,-9.82 6.84,-19.47 14.68,-38.88 9.32,25.51 16.03,35.51 14.62,42.61 -1.63,7.68 -10.83,12.7 -16.77,18.73zm-204.41 121.8c-3.33,-5.18 -6.72,-10.38 -10.05,-15.52 6.94,-4.62 13.82,-9.24 20.83,-13.88 1.79,7.12 6.48,16.14 4.73,20.76 -2.09,5.03 -10.11,5.99 -15.51,8.64zm-555.54 -2270.18c-1.88,-0.72 -4.13,-1.57 -6.9,-2.6 -4.4,-2.81 -8.73,-5.75 -8.91,-5.8 0.51,0.16 5.58,1.81 10.61,3.33 2.09,2.03 3.72,3.61 5.2,5.07 2.81,1.02 4,1.53 0.04,0 2.44,2.38 3.68,3.56 -0.04,0 0.11,0.06 0,0 0.04,0 0,0 0,0 -0.04,0zm-42.11 263.58c-5.14,-14.96 -10.27,-29.97 -15.52,-44.99 -0.56,-0.67 -1.07,-1.3 -1.63,-1.97l-5.6 1.36 4.35 -2.72 2.14 1.14c0.23,0.73 0.52,1.47 0.74,2.19 9.37,10.73 18.62,21.45 28,32.28 -4.13,4.29 -8.24,8.48 -12.48,12.71zm-167.12 -347.34c47.24,-21.5 91.72,-44.14 137.44,-62.02 59.82,-23.47 120.33,-44.03 181.11,-62.88 5.13,-1.58 14.28,19.98 25.74,36.75 -90.92,47.36 -174.96,91.1 -262.56,136.81 -23.04,-13.72 -55.43,-32.96 -81.73,-48.66zm59.09 208.88c-12.3,-4.51 -24.6,-9.02 -36.86,-13.48 2.26,-6.71 5.54,-19.25 6.79,-18.85 11.72,3.1 23.08,8.41 34.59,12.97 -1.59,6.45 -3.04,12.93 -4.52,19.36zm-13.21 164.47c-6.77,7.34 -16.25,10.27 -24.49,15.13 -2.48,-5.8 -4.9,-11.52 -7.33,-17.39 12.35,-12.46 24.78,-24.94 37.13,-37.42 3.39,3.62 6.72,7.01 10.11,10.51 -4.97,9.87 -8.75,21.84 -15.42,29.17zm-120.26 197.6c-55.49,-50.4 -73.21,-91.03 -53.17,-129.41 7.44,-14.16 24.88,-28.16 37.18,-27.31 31.28,1.85 62.21,12.19 95.34,19.58 1.74,97.35 -34.99,122.02 -79.35,137.14zm-78.68 233.55c-33.92,3.39 -75.47,-44.64 -77.61,-87.93 -1.92,-37.53 28.28,-79.13 58.14,-80.31 36.34,-1.41 63.72,40.18 66.71,95.94 2.59,47.98 -18.91,64.01 -47.24,72.3zm-58.64 -361.72c8.29,20.66 16.7,41.31 25.05,61.97 -8.23,7.23 -16.43,14.62 -24.6,21.9 -11.41,-18.24 -22.86,-36.53 -34.25,-54.7 11.23,-9.76 22.46,-19.47 33.8,-29.17zm-175.92 -264.87c29.52,-32.01 43.28,-46.96 59.71,-64.8 10.72,61.63 -20.03,49.04 -59.71,64.8zm-247.84 2251.66c-1.29,-7.22 -4.62,-15.3 -3.1,-21.5 1.18,-4.8 8.3,-7.11 12.75,-10.5 1.31,7.06 4.91,15.07 3.34,20.61 -1.53,5.18 -8.41,7.84 -12.99,11.39zm-92.05 -1580.15c-13.87,-37.58 -28.27,-57.9 -25.91,-73.88 7.17,-48.7 34.15,-71.61 88.29,-53.16 -18.02,36.68 -36.08,73.43 -62.38,127.04zm24.22 2240.05c-30.37,-22.69 -41.49,-51.65 -31.44,-89.18 9.98,-37.58 30.48,-57.28 69.24,-40.13 -12.8,43.58 -24.15,82.53 -37.8,129.31zm-55.6 -612.48c7.06,-9.38 14.16,-26.42 21.06,-26.19 8.24,0.16 16.25,15.07 28.11,27.82 -11.86,11.57 -19.71,24.09 -23.83,22.35 -9.48,-4.24 -16.99,-15.52 -25.34,-23.98zm-27.55 -4508.53c-2.3,1.63 -16.36,-13.83 -15.9,-20.55 0.78,-13.26 8,-25.79 16.3,-49.56 11.75,20.61 24.1,33.08 22.87,42.17 -1.7,11.28 -13.84,21.55 -23.27,27.94zm-177.5 2414.15c-16.71,-8.35 -34.93,-17.28 -53.05,-26.24 -2.6,30.64 -5.19,61.74 -9.03,108.81 -25.56,-18.96 -45.55,-27.26 -58.3,-44.81 -18.86,-25.9 -32.06,-58.81 -48.65,-87.71 -30.09,-52.71 -17.95,-115.41 29.12,-132.06 23.26,-8.31 50.86,-12.98 72.74,-3.67 15.59,6.48 21.91,44.7 37.6,58.75 34.09,30.65 71.29,55.03 29.57,126.93zm-215.87 1261.26c-14.96,-23.02 -32.29,-38.43 -31.1,-50.62 1.96,-20.05 15.8,-38.2 24.78,-57.18 12.24,13.49 33.51,25.97 34.47,40.59 1.14,17.93 -14.89,37.65 -28.15,67.21zm-10.27 -223.17c7.39,-5.85 24.65,9.56 37.53,15.25 -5.6,16.37 -8.7,43.92 -17.1,47.02 -19.09,7.11 -40.7,2.31 -68.35,2.31 18.89,-26.75 30.97,-50.8 47.92,-64.58zm-81.5 -1297.15c-2.03,-2.26 -6.05,-5.41 -5.71,-6.93 1.36,-6.45 3.9,-12.37 6.16,-18.35 1.85,2.48 5.69,5.53 5.36,7.45 -1.14,6.21 -3.78,12.02 -5.81,17.83zm-11.3 2025.8c-3.32,4.18 -9.64,4.18 -15,5.54 0.04,0.89 0.16,1.8 0.22,2.65 -1.3,0.16 -2.43,0.61 -3.73,0.72 -1.98,3.17 -3.9,6.34 -5.87,9.55 0.4,-2.88 -0.06,-7.45 1.18,-8.52 1.3,-0.96 3.06,-0.85 4.69,-1.03 0.67,-1.01 1.3,-2.03 1.92,-3.04 0.51,-0.17 1.07,-0.17 1.59,-0.33 -0.58,-7.24 -2.21,-15.14 -0.07,-20.43 3.62,-8.93 10,-16.72 16.59,-22.31 1.92,-1.63 8.42,6.1 12.88,9.6 -4.69,9.43 -8.37,20.14 -14.4,27.6zm-188.73 986.46c-1.12,-0.8 -1.08,-4.46 -1.59,-6.78 2.26,-0.96 4.53,-1.92 6.79,-2.93 0.56,3.89 1.23,7.68 1.74,11.46 -2.37,-0.51 -4.96,-0.34 -6.94,-1.75zm757.31 -2570.27c2.19,-5.31 1.59,-3.79 0,0 2.3,-2.61 3.33,-3.73 0,0.05 -1.02,2.37 -2.25,5.42 -3.73,8.8l-1.63 3.61 -0.46 -5.91c2.32,-2.61 4.24,-4.76 5.82,-6.55zm-938.44 -1553.74c-7.88,-13.27 -19.96,-25.35 -22.22,-40.13 -1.47,-9.2 11.91,-22.4 18.67,-33.8 9.89,11.4 19.76,22.75 33.92,39.16 -13.82,15.87 -22,25.29 -30.37,34.77zm-26.01 2367.15c-39.61,-2.71 -71.85,-47.07 -65.02,-85.34 3.91,-21.57 23.31,-48.72 39.3,-53.9 23.58,-7.57 57.83,46.45 52.93,83.75 -3.05,22.47 -20.04,41.6 -27.21,55.49zm-58.19 -2078.63l-0.67 8.52 -6.27 -5.13 6.94 -3.39zm-662.77 172.43c-6.48,-3.46 -11.68,-11.07 -17.38,-17.1 4.91,-6.95 9.76,-13.89 18.22,-25.9 5.03,14.15 9.54,22.35 10.16,30.92 0.34,3.89 -8.75,13.31 -11,12.08zm2103.12 -1581.62c1.81,0.05 3.51,4.69 5.31,7.22 -2.03,2.32 -4.06,6.49 -5.98,6.32 -1.92,-0.16 -3.62,-4.67 -5.42,-7.22 2.08,-2.25 4.11,-6.43 6.09,-6.32zm143.08 1567.17c2.03,6.99 4.22,13.83 5.81,20.99 0.11,0.56 -4.34,2.71 -6.66,4.18 -3.5,-5.65 -7.01,-11.41 -10.5,-16.99 3.78,-2.71 7.56,-5.47 11.35,-8.18zm61.22 -63.72c-2.92,6.1 -6.03,12.24 -8.95,18.29l-2.1 -2.21c3.66,-5.36 7.34,-10.72 11.05,-16.08zm67.23 -856.94c9.76,-3.21 22.42,8.42 48.94,20.21 -36.68,26.99 -46.73,40.41 -55.15,38.89 -8.97,-1.74 -16.36,-17.77 -24.55,-27.49 10.16,-11.05 19.24,-27.7 30.76,-31.61zm1265.16 -203.57c2.26,5.41 4.63,10.9 6.88,16.42 -2.19,2.21 -4.35,4.57 -6.6,6.89 -2.48,-5.82 -5.19,-11.56 -7.17,-17.66 -0.16,-0.57 4.46,-3.68 6.89,-5.65zm105.21 166.73c-23.31,61.35 -23.31,61.35 -95.96,54.68 39.63,-22.62 65.13,-37.08 95.96,-54.68zm-79.93 -1110.35l1.19 6.77c39.05,22.24 77.94,44.54 119.54,68.19 -71.96,42.22 -104.25,22.06 -121.13,-70.78l0.4 -4.18zm130.1 236.66c-1.98,2.19 -4.06,6.43 -5.87,6.25 -1.87,-0.16 -3.5,-4.56 -5.31,-7.16 1.98,-2.37 3.95,-4.56 5.94,-6.77 1.8,2.54 3.43,5.09 5.24,7.68zm41.94 550c19.8,8.46 41.93,37.82 48.14,63.88 9.37,39.68 -30.37,84.73 -81.05,83.37 -9.99,-13.77 -36.35,-34.36 -42.9,-62.7 -8.64,-37.82 44.77,-97.81 75.81,-84.55zm-83.42 285.87c-9.6,-21.79 -19.14,-43.68 -28.67,-65.58 6.88,-4.18 13.71,-8.47 20.7,-12.64 7.97,22.24 16.03,44.36 23.93,66.54 -5.29,3.88 -10.67,7.79 -15.96,11.68zm163.44 175.25c29.29,4.24 58.36,8.52 89.74,13.08 1.42,-27.37 2.54,-46.27 3.95,-74.49 21.23,9.59 40.7,18.34 69.71,31.44 -11.46,38.49 -16.53,80.09 -33.99,108.58 -31.99,52.49 -63.7,54.24 -106.88,20.72 -30.08,-23.37 -50.24,-50.23 -22.53,-99.33zm169.78 -562.94c1.12,8.42 -6.16,18.92 -11.63,32.91 -8.53,-9.55 -18.62,-15.58 -19.02,-22.63 -0.45,-8.36 6.32,-22.69 12.07,-24.9 5.09,-1.92 17.67,7.97 18.58,14.62zm-5.2 -281.35c-3.49,31.26 -14.22,48.21 -40.01,39.05 -4.07,-1.47 -9.87,-12.07 -9.09,-16.59 6.61,-35.56 23.37,-40.3 49.1,-22.46zm110.12 221.07c1.25,-0.16 3.1,5.2 4.69,8.02 -4.69,2.32 -9.38,4.62 -14.07,6.89 -1.29,-3.05 -2.76,-6.09 -4.06,-9.08 4.46,-2.1 8.86,-4.87 13.44,-5.83zm110.5 -8.64c13.62,5.6 37.2,6.45 43.47,20.5 5.98,13.66 -1.18,46.68 -10.96,61.18 -15.79,23.53 -38.65,38.71 -57.23,56.33 19.81,35.16 29.75,52.98 44.19,78.73 -18.4,4.24 -34.87,13.88 -39.32,7.79 -13.27,-17.55 -33.31,-45.26 -29.92,-61.74 10.83,-53.45 30.81,-103.51 49.77,-162.79zm-3.1 614.13c-1.35,0.4 -3.73,-5.47 -5.63,-8.4 5.13,-2.66 10.09,-6.05 15.34,-7.41 1.36,-0.45 3.66,5.31 5.65,8.31 -5.14,2.76 -10.11,6.04 -15.36,7.5zm-40.97 -271.24c-1.7,-2.61 -3.33,-5.03 -5.03,-7.57 1.92,-2.21 3.91,-6.21 5.65,-6.03 1.81,0.16 3.39,4.51 5.02,6.93 -1.87,2.2 -3.77,4.35 -5.64,6.67zm270.23 165.31c24.45,27.87 27.09,71.16 -15.74,115.42 -20.99,-26.08 -39.86,-49.33 -62.77,-77.77 25.39,-38.96 47.92,-72.59 78.51,-37.65zm646.57 -300.82l4.29 3.77 -4.74 2.48 0.45 -6.25zm60.91 -391.92l-3.79 8.06 -2.82 -8.64 6.61 0.58zm110.23 192.33c5.86,-2.81 14.38,4.4 29.05,10.11 -13.53,14.39 -21.21,24.95 -30.59,30.87 -2.41,1.58 -10.09,-11.51 -15.45,-17.94 5.58,-8.08 10.16,-19.76 16.99,-23.04zm7.73 183.27c-3.95,-7.95 -7.79,-15.81 -11.75,-23.76 6.77,-5.42 13.6,-10.78 20.43,-16.14 2.32,6.32 4.63,12.59 8.36,22.8 -5.3,5.36 -11.24,11.18 -17.04,17.1zm308.5 -771.65c-3.5,4.57 -6.94,9.26 -10.38,13.95l-1.87 -2.77c4.06,-3.73 8.12,-7.45 12.25,-11.18zm55.6 662.27l2.48 7.79 -5.76 -0.45 3.28 -7.34zm45.37 -671.02c6.77,8.48 14.04,16.72 19.18,26.92 2.5,4.8 1.98,12.26 2.26,19.03 0.91,0.33 1.8,0.56 2.65,0.96 -0.38,0.89 -0.73,1.85 -1.07,2.76 31.61,6.66 63.43,13.49 105.5,22.29 -44.99,65.02 -80.32,49.05 -120.39,15.98 5.07,-12.99 9.93,-25.63 14.89,-38.27 -0.38,-0.11 -0.78,-0.17 -1.12,-0.28 -0.18,-1.12 -0.4,-2.2 -0.46,-3.44 -5.03,-1.81 -10.66,-2.93 -13.54,-7.28 -6.27,-9.54 -10.27,-21.79 -14.91,-33.14 -0.05,-0.22 6.38,-6.25 7.01,-5.53zm81.72 -51.13c7.84,-0.9 22.46,13.26 23.42,22.68 0.96,10.05 -10.61,22.24 -20.72,40.93 -11.05,-16.26 -23.64,-26.98 -22.91,-35.73 0.8,-10.78 12.48,-27.04 20.21,-27.88zm138.5 -2732.38c3.33,2.32 3.79,12.15 5.36,18.64 -3.49,4.07 -7.17,7.95 -10.72,12.08 -2.99,-8.37 -5.98,-16.65 -8.91,-25 4.85,-2.15 11.12,-7.86 14.27,-5.72zm-4.85 -147.74l4.96 4.4 -5.74 2.36 0.78 -6.76zm139.8 2215.03c7.68,1.08 14.96,6.44 26.53,12.42 -7.96,11.52 -12.93,18.85 -17.89,26.24 -5.92,-7.55 -12.64,-14.39 -17.22,-23.25 -1.07,-1.92 5.92,-15.74 8.58,-15.41zm118.87 -471.94c81.55,56.83 89.45,107.8 31.6,164.06 -10.39,10.32 -31.22,15.75 -41.76,8.8 -11.01,-7.1 -23.26,-34.09 -21.01,-48.65 6.5,-41.87 19.99,-81.72 31.17,-124.21zm-9.54 -999.17l-3.16 6.67 -1.99 -7.45 5.15 0.78zm40.58 -916.29c1.47,1.24 1.47,5.13 2.03,7.9 -2.26,1.63 -4.51,3.22 -6.72,4.8 -0.96,-4.98 -1.97,-9.82 -2.93,-14.74 2.53,0.45 5.65,0.34 7.62,2.04zm18.35 1806.52c-2.21,2.55 -4.47,5.14 -6.72,7.73 -2.03,-2.93 -4.02,-5.87 -6.05,-8.74 2.26,-2.54 4.58,-7.29 6.72,-7.11 2.1,0.17 4.06,5.13 6.05,8.12zm-10 -2548.14c4.69,1.92 9.42,3.72 14.11,5.58 -2.37,17.28 -4.46,34.77 -7.84,51.82 -0.18,0.9 -9.78,-1.3 -14.96,-1.98 2.93,-18.45 5.81,-36.96 8.69,-55.42zm83.64 270.01c22.24,18.28 32.13,47.8 1.54,84.93 -21.52,-15.8 -43.63,-32.06 -67.79,-49.94 14.96,-51.87 40.28,-56.38 66.25,-34.99zm-2.42 -628.64c5.03,2.83 10.05,5.71 15.06,8.75 -1.97,5.58 -3.44,15.14 -6.32,15.92 -4.56,1.25 -10.1,-3.15 -15.23,-5.14 2.14,-6.54 4.35,-13.04 6.49,-19.53zm12.31 -342.36c4,3.33 11.23,7.57 10.94,9.65 -1.07,6.27 -5.02,11.74 -7.79,17.55 -2.48,-2.19 -6.99,-4.62 -6.94,-6.65 0.28,-6.77 2.32,-13.27 3.79,-20.55zm48.19 3802.82c-9.59,10.54 -15.64,16.97 -21.62,23.47 -6.61,-11.17 -15.52,-21.17 -18.56,-33.81 -1.31,-5.47 9.65,-16.03 15.19,-24.27 7.39,10.27 14.94,20.61 24.99,34.61zm43.8 -235.14c-20.21,22.18 -34.14,37.54 -57.07,62.7 -3.55,-67.1 12.08,-79.86 57.07,-62.7zm-39.17 -3494.42c3.44,5.98 6.95,12.08 10.39,18.11 -3.51,5.43 -7.12,15.18 -10.5,15.02 -4.86,-0.17 -9.44,-7.56 -14.17,-11.91 4.8,-7.11 9.53,-14.16 14.28,-21.22zm245.46 713.74c11.79,31.77 15.69,84.77 9.48,148.38 -38.38,-20.04 -71.46,-12.25 -108.76,17.04 -29.98,23.42 -74.28,14.85 -108.82,19.92 -14.56,-49.1 -24.16,-83.02 -34.72,-116.49 -23.53,-74.73 -18.62,-97.97 31.11,-142.56 89.17,-79.75 164.64,-53.45 211.71,73.71zm-156.9 -579.46c4.62,-0.4 10.2,14.33 19.52,28.67 -14.16,7.9 -24.55,18.67 -33.12,16.64 -6.61,-1.41 -11.01,-19.25 -16.32,-29.91 9.94,-5.53 19.76,-14.28 29.92,-15.4zm69.93 119.99c2.53,1.23 5.02,2.48 7.33,3.66 0,2.88 0.84,7.11 -0.23,8.35 -1.92,2.15 -4.91,2.44 -7.45,3.44 0.12,-5.13 0.24,-10.32 0.35,-15.45zm69.58 -539.97c2.14,10.51 4.17,20.15 6.2,29.69 -5.18,0.85 -11.9,4.8 -15.18,1.86 -4.11,-3.72 -7.28,-12.98 -7.21,-19.81 0.04,-3.39 8.57,-6.54 16.19,-11.74zm-16.71 1443.18c-6.99,-0.58 -13.71,-11.59 -20.43,-18.07 5.65,-6.43 11.12,-17.66 17.22,-18.35 7.01,-0.78 14.67,7.68 27.37,15.41 -10.94,10.22 -17.84,21.39 -24.16,21.01zm-25.23 1128.78c-2.3,-6.87 -7.1,-14.49 -6.2,-20.47 0.8,-4.76 8.68,-7.52 13.37,-11.12 3.28,5.13 6.54,10.2 9.71,15.45 -5.65,5.43 -11.23,10.74 -16.88,16.14zm-26.63 -785.8c-5.92,-7.17 -12.02,-13.94 -17.15,-21.91 -0.4,-0.62 6.25,-9.24 12.41,-18.28 5.02,8.19 11.06,15.07 13.49,23.6 1.01,3.61 -5.54,10.83 -8.75,16.59zm-36.35 1193.93c-12.24,-14.51 -24.55,-28.96 -36.85,-43.47 6.37,-8.8 12.69,-17.55 19.01,-26.3 10.67,17.1 21.28,34.21 31.9,51.37 -4.64,6.15 -9.31,12.35 -14.06,18.4zm4.01 -625.64c-4.13,13.43 -6.09,20.04 -8.01,26.59 -9.54,-7.28 -19.25,-14.29 -28.34,-22.42 -0.51,-0.38 4.69,-15.85 6.1,-15.52 10.09,2.48 19.87,7.17 30.25,11.35zm-88.66 -1056.33c-5.14,-1.75 -10,-5.59 -14.96,-8.63 2.14,-2.65 4.91,-8.19 6.37,-7.63 5.24,1.87 10.11,5.76 15.13,8.86 -2.21,2.6 -4.91,7.97 -6.54,7.4zm6.14 901.75c34.09,-16.21 62.03,-25.12 71.85,24.99 2.32,11.8 -12.48,41.1 -21.56,42.84 -31.44,5.92 -54.24,-9.93 -50.29,-67.83zm-104.92 -410.95c-30.65,4.12 -39.5,-22.23 -41.82,-55.88 30.59,-28.56 48.03,-12.57 56.94,22.97 2.14,8.42 -8.97,32.07 -15.12,32.91zm-99.67 2214.86c3.28,-4.55 9.6,-5.29 14.67,-7.66 1.25,5.81 4.86,14.61 3.22,16.75 -3.38,4.69 -9.6,5.94 -14.5,8.53 -1.36,-6.1 -5.09,-15.23 -3.39,-17.62zm39.9 308.84c-15.12,30.15 -43.96,52.05 -72.25,22.47 -25.84,-26.98 -26.29,-65.74 -4.51,-96.11 17.66,-24.67 14.56,-47.31 14.11,-76.42 -0.38,-22.13 15.58,-44.59 30.43,-82.69 21.89,55.87 43.74,92.67 50.17,133.71 4.8,30.7 -4.46,71.67 -17.95,99.04zm408.8 -2782.36l2.19 7.39 -5.47 -0.79 3.28 -6.6zm54.63 -464.89c2.31,-33.59 3.96,-62.94 7.4,-91.84 0.22,-1.47 22.28,-1.85 22.73,0.52 4.86,29.18 8.08,59.08 10.74,88.77 0.96,11.46 -0.58,23.31 -1.03,35.39 -26.64,6.61 -48.87,57.56 -86.52,3.95 19.47,-15.36 35.5,-27.93 46.68,-36.79zm-4000.86 6004.92c40.08,-56.11 55.6,-35.45 74.73,0l-74.73 0zm148.33 131.27l-3.28 6.27 -2.31 -8.69 5.59 2.42zm179.2 -152.28c0.56,0 0.85,6.5 1.34,9.89 -4.67,0.38 -9.2,1.3 -13.71,0.85 -0.62,0 -0.89,-6.39 -1.36,-9.83 4.47,-0.44 9.22,-1.29 13.73,-0.91zm-235.07 679.48c2.93,-0.38 6.03,-0.04 9.02,0.69 0.45,0.11 0.4,4 0.56,6.1 -5.98,-1.14 -11.85,-2.21 -17.71,-3.39 2.64,-1.08 5.3,-2.84 8.13,-3.4zm182.18 -4.62c3.05,5.87 8.57,11.9 8.19,17.55 -0.29,6.16 -5.94,11.79 -9.2,17.73 -2.88,-6.27 -8.02,-12.75 -8.02,-19.2 -0.06,-5.3 5.81,-10.66 9.03,-16.08zm235.91 -152.61c3.84,0.78 6.68,9.36 9.94,14.49 -4.34,4.42 -11.34,13.55 -12.35,12.48 -5.38,-5.53 -9.31,-13.66 -13.62,-20.94 5.38,-2.3 11.12,-7.28 16.03,-6.03zm186.66 -39.97l5.41 4.47 -6.14 2.48 0.73 -6.95zm1076.19 772.84l-1.68 -6.39 4.62 0.92 -2.94 5.47zm1945.26 8460.96c17.04,-1.58 33.52,1.92 49.84,7.17 45.66,-7.34 91.26,-14.33 136.64,-22.69 -40.63,-31.1 -84.44,-42.5 -132.13,-39.34 -14.85,0.96 -30.03,18.4 -43.85,16.15 -14.96,-2.55 -28.51,-19.36 -42.67,-29.87 11.52,-14.83 21.79,-32.34 35.05,-43.57 5.52,-4.73 16.48,1.41 25.46,3.55 0.22,-3.04 0.67,-6.2 -0.07,-8.8 -34.65,-131.55 -23.93,-213.51 121.24,-214.25 -27.82,-18.16 -51.19,-33.45 -74.39,-48.59 4.57,-36.75 8.46,-67.16 12.3,-97.57 -0.96,0.27 -1.23,0.49 -2.19,0.78 0.45,-0.91 0.89,-1.81 1.41,-2.77 -32.46,-5.02 -35.68,-35.16 -34.54,-69.19 -0.56,0.06 -1.14,0.06 -1.7,0.06 -7.84,-9.2 -15.7,-18.24 -23.6,-27.44 -0.05,-2.81 -0.11,-5.58 -0.16,-8.35 -3.17,-11.18 -6.38,-22.3 -9.53,-33.53 2.88,-0.67 5.8,-1.46 8.68,-2.19 0.29,11.85 0.56,23.75 0.85,35.72 0.63,2.21 1.3,4.47 1.92,6.72 7.84,9.02 15.7,18.11 23.54,27.09 -0.07,0.67 0.04,1.25 0,1.92 23.47,-0.85 46.84,-1.52 70.2,-2.26 0.46,-0.91 0.91,-1.81 1.36,-2.77l2.37 2.66c1.53,-20.43 3.05,-40.75 5.02,-66.04 -20.26,-5.52 -40.46,-11.17 -66.14,-18.23 9.36,-19.47 12.58,-34.99 19.13,-38.04 74.83,-35.44 97.47,-109.5 84.61,-204.7 -4.58,-33.19 4.11,-48.43 17.37,-73.82 51.93,-99.45 39.01,-163.46 -38.94,-246.09 -15.29,-16.26 -22.46,-45.26 -36.91,-63.71 -12.81,-16.5 -30.48,-26.53 -45.6,-39.01 -49.85,46.06 -1.24,78.29 7.89,123.03 -13.87,25.01 -30.01,53.68 -49.95,89.29 42.56,110.91 39.34,239.54 45.62,376.29 -70.89,-16.08 -134.33,66.76 -203.25,12.48 2.54,-68.46 48.65,-48.03 72.47,-78.97 0,-87.75 -56.38,-123.94 -107.52,-199.17 2.27,47.25 0,69.49 4.68,88.84 20.66,86.17 7.51,109.1 -71.61,109.61 -10,-76.76 -35.45,-152 -17.9,-235.02 -71.23,-110.74 -104.18,-234.68 -64.73,-381.76 4.62,-17.39 2.59,-38.27 2.7,-57.63 0.34,-59.21 0.12,-118.36 0.12,-198.72 -6.84,-7.57 -25.97,-28.4 -45.49,-49.79 0,-12.12 -0.91,-23.98 0.22,-35.43 2.26,-22.91 9.49,-46.06 7.84,-68.24 -4.8,-63.05 -18.78,-125.52 -18.73,-188.22 0.18,-172.71 -18.45,-346.37 10.89,-518.52 4.36,-25.52 -4.23,-54.97 -6.31,-82.63 -2.37,-32.11 -8.42,-65.13 -5.09,-96.35 4.35,-40.68 1.36,-75.74 -5.41,-117 -11.41,-69.35 -4.64,-144.99 -0.22,-217.4 2.81,-47.52 12.08,-95.44 23.47,-141.1 12.48,-50.17 13.95,-91.54 -14.9,-135.68 -11.74,-17.95 -8.64,-55.26 -8.24,-83.59 2.03,-142.12 14.16,-285.13 5.76,-425.89 -7.34,-121.64 5.81,-240.04 7.67,-360.03 1.98,-134.44 15.58,-268.65 17.16,-403.09 1.07,-89.02 -11.97,-178.18 -15.18,-267.53 -1.58,-44.14 4.73,-88.78 7.57,-133.08 2.14,-35.39 3.66,-70.89 6.92,-106.12 2.84,-30.7 7.46,-61.11 11.75,-91.59 4.46,-31.66 15.98,-64.35 12.99,-94.65 -7.46,-75.87 3.71,-146.87 16.7,-219.55 5.87,-33.25 -0.45,-70.62 -3.17,-105.83 -1.74,-23.71 -15.12,-52.43 -8.8,-69.53 39.06,-104.92 10.83,-218.66 28.51,-325.61 1.97,-11.9 3.71,-25.79 0.84,-36.68 -36.07,-137.61 -3.78,-274.3 3.27,-411.11 1.92,-36.74 7.91,-73.72 5.92,-109.94 -9.69,-179.71 4.24,-358.23 10.96,-537.36 10.72,-287.34 11.17,-575.36 19.47,-862.81 6.61,-229.76 18.47,-459.36 27.78,-688.91 0.61,-15.63 0.11,-31.44 0.11,-61.91 -68.7,16.83 -132.42,28.17 -194.45,48.31 -183.36,59.37 -366.18,121.4 -548.87,184.39 -34.2,11.92 -61.02,11.41 -76.87,-36.22 -24.49,23.13 -46.84,48.25 -71.79,67.21 -35.5,26.92 -56.15,1.63 -68.81,-57.17 -18.28,101.2 -63.43,119.93 -125.91,114.62 -34.76,-2.93 -70.6,16.83 -106.95,26.54 -4.17,-30.76 -6.67,-49.56 -8.64,-63.61 -53.56,17.82 -104.87,34.93 -158.37,52.83 4.74,21.16 8.91,39.83 17.1,76.25 -36.79,-19.7 -61.24,-32.69 -91.43,-48.72 -26.75,21.46 -55.82,79.69 -97.48,19.54 -3.33,-4.74 -12.24,-5.76 -17.82,-4.29 -54.7,14.16 -109.11,29.29 -165.04,44.36 -16.82,-17.05 -35.22,-35.56 -53.55,-54.07 -0.58,0 -1.14,0.06 -1.65,0.06 3.73,21.26 14.56,51.47 8.24,60.11 -26.97,37.02 -53.44,9.87 -82.28,-15.18 6.49,-15.36 12.7,-30.1 18.8,-44.82 -0.63,0 -1.25,0 -1.87,0 0.67,-1.31 1.36,-1.47 2.09,-2.6 -14.8,-3.04 -29.52,-6.1 -46.06,-9.54 -3.66,-46.78 -8.8,-89.85 -9.26,-132.92 -0.16,-11.63 13.77,-23.42 21.28,-35.27l-0.61 1.64c49.15,-42.51 133.64,-64.17 191.49,-40.63 -47.58,23.75 -85.39,42.67 -127.61,63.7 9.26,47.98 44.88,49.34 65.98,76.49 36.52,-45.5 69.82,-86.98 103.45,-128.74 -4.4,-19.76 -8.35,-37.71 -14.27,-64.91 33.98,10.5 63.16,19.48 92.05,28.27 17.95,-21.16 13.31,-77.65 56.67,-56.15 9.02,4.46 24.65,-15.01 37.42,-22.46 12.69,-7.23 28.67,-23.09 38.03,-18.11 41.6,21.55 77.21,5.36 117.29,-10.45 36.97,-14.56 79.06,-6.21 118.85,-7.84 0,0.45 0,0.85 0,1.23 7.79,-16.64 14.4,-45.32 23.66,-46.95 64.85,-11.24 127.05,-57.63 195.4,-29.3 11.27,4.63 29.78,12.48 34.65,5.83 53.39,-73.39 130.08,-23.38 188.22,-64.53 12.37,-8.73 19.36,-30.92 30.19,-49.21 99.07,16.14 189.54,-0.85 252.91,-128.56 -65.91,-49.79 -123.72,-6.9 -169.87,26.46 -93.08,67.45 -197.38,51.53 -293.1,91.89 -11.23,4.74 -24.61,-0.46 -36.4,2.71 -169.44,46.06 -338.59,93.46 -508.2,138.9 -43.56,11.61 -88.09,17.21 -149.28,28.89 -31.6,56.49 -99.38,62.7 -163.33,73.82 -63.72,11.01 -128.63,9.31 -192.85,15.69 -14.85,1.48 -29.02,13.04 -43.47,19.87l0.45 1.3c-7.28,-0.06 -14.61,-0.11 -21.77,-0.18l0.44 -1.74c-15.47,11.52 -31.15,22.69 -46.33,34.77 -15.29,12.03 -30.48,36.41 -45.1,35.67 -110.01,-5.6 -215.77,48.48 -324.64,40.8 -58.75,-4.06 -92.51,20.27 -107.52,101.26 -33.91,-21.62 -60.44,-38.55 -89.73,-57.23 -48.83,33.02 -82.19,114.68 -150.53,94.98l1.85 2.43c-2.59,0.23 -4.51,0.45 -6.32,0.56 -0.05,0.07 -0.05,0.07 -0.05,0.07 0.16,0 -0.06,0 0.12,0 -4.8,3.15 -3.11,2.03 -0.12,0 -4.12,0.33 -2.94,0.22 0.05,-0.07 1.25,-0.84 2.43,-1.63 3.95,-2.65 -33.69,-41.37 -72.63,-28.72 -111.41,-16.82 -96.79,29.81 -193.19,62.03 -290.43,88.22 -32.17,8.69 -67.67,8.75 -99.96,0.78 -63.32,-15.67 -124.85,-43.56 -188.28,-58.69 -35.39,-8.47 -72.97,-1.57 -112.43,-1.57 -6.27,-17.66 -9.93,-32.91 -16.59,-45.66 -83.48,-161.32 -6.89,-274.7 101.64,-345.86 62.83,-41.22 131.45,-66.67 203.63,-102.28 -3.15,-21.17 -9.31,-43.29 -9.2,-65.47 0.18,-38.32 16.55,-65.87 46.51,-58.92 30.1,7.05 40.19,35.16 23.31,73.82 -2.93,6.6 -2.65,15.63 -6.03,37.86 130.09,-61.67 255.05,-120.15 379.38,-180.88 13.15,-6.54 22.81,-25.67 33.71,-39.51 17.66,-22.51 33.8,-47.34 52.83,-67.55 32.84,-35.17 72.63,-61.47 99.78,-102.73 24.88,-38.04 36.91,-90.81 59.71,-150.29 19.91,31.77 34.14,54.24 51.46,81.72 19.83,-13.49 41.15,-28.16 70.56,-48.31 -20.21,-18.51 -34.25,-31.38 -48.37,-44.26l-0.62 7.35 0.29 -4.51c-5.25,-13.56 -10.56,-27.04 -15.87,-40.71 -25.17,-11.05 -50.11,-22.86 -75.63,-32.55 -19.07,-7.35 -38.83,-11.7 -75.62,-22.53 23.31,48.36 36.86,76.47 51.13,105.83 -57.18,27.31 -75.92,19.92 -171.97,-69.66 2.08,45.17 3.61,78.97 5.18,112.67 0.63,-0.52 1.42,-0.92 2.03,-1.41 1.43,2.25 2.77,4.51 4.13,6.83 9.31,6.59 18.69,13.26 28.05,19.81 -2.77,4.44 -5.48,8.91 -8.24,13.37 -6.55,-11.01 -13.2,-22.12 -19.81,-33.18 -2.03,-1.47 -4.06,-2.88 -6.16,-4.35 0,-0.34 0,-0.74 0,-1.07 -11.39,8.64 -25.21,14.73 -32.22,27.42 -44.92,81.45 -58.64,87.43 -125.86,46.17 -37.76,130.26 -131.74,147.36 -215.89,182.87 -13.15,5.42 -31.71,-1.12 -45.15,-9.25 -55.59,-33.76 -107.35,-11.74 -162.37,6.09 -49.56,16.13 -105.09,27.31 -153.75,13.94 -60.84,-16.82 -76.36,-40.53 -52.98,-123.43 84.2,-44.32 163.78,-86.36 248.1,-130.84 -40.7,-43.34 -74.61,-79.46 -112.88,-120.26 21.95,-25.12 37.35,-42.62 52.54,-59.88 0,0 0,0 0,0 -0.45,-2.72 -0.9,-5.38 -1.35,-8.02 -2.25,-3.28 -4.62,-6.49 -6.49,-10.05 -0.45,-0.73 2.32,-4.52 3.61,-6.94 0.96,5.65 1.92,11.34 2.88,16.99 1.24,1.81 2.31,3.71 3.56,5.52 -0.74,0.8 -1.48,1.7 -2.21,2.5 10.22,27.13 20.49,54.23 33.82,89.78 27.53,-32.11 49.55,-57.96 71.5,-83.75 28.73,-33.52 44.25,-88.67 93.75,-89.4 9.87,-0.23 19.47,-36.46 33.52,-64.8 37.19,46.33 74.61,34.94 116.72,14.18 56.45,-27.84 116.38,-43.47 174.79,-64.3 53.51,-19.07 60.73,-31.2 59.1,-100.75 -73.66,36.13 -147.25,72.37 -225.25,110.75 -47.13,-17.04 -17.39,-81.34 -33.47,-126.76 -63.38,-16.21 -123.67,-6.72 -195.56,41.76 34.76,32.95 59.81,56.66 85,80.42 -43.36,51.82 -88.51,33.36 -141,3.33 8.75,-27.2 17.55,-54.35 26.25,-81.5 -85.17,-16.25 -163.95,1.47 -235.64,90.7 -16.26,-44.81 -33.13,-97.98 -72.35,-65.18 -47.98,40.12 -5.02,84.15 2.99,134.15l89.63 0c0.96,-0.9 1.97,-1.58 2.93,-2.48 0.73,0.74 1.47,1.14 2.14,1.86 25.57,-19.19 51.2,-55.7 84.22,1.42 -34.16,34.76 -59.55,23.2 -84.22,-1.42 -0.22,0.17 -0.5,0.46 -0.78,0.62l-4.29 0c-49.68,45.55 -100.81,79.19 -164.87,84.44 -57.9,4.74 -115.36,28.96 -171.86,50.11 -17.95,6.78 -32.55,29.07 -48.42,45.39 0.56,1.23 1.13,2.48 1.69,3.72 6.1,2.15 12.19,4.34 18.29,6.44 -2.82,4.96 -5.7,9.93 -8.46,14.95 -3.28,-7.16 -6.55,-14.28 -9.83,-21.39 -1.25,-0.46 -2.59,-0.91 -3.84,-1.36l1.99 -2.76c-37.76,-1.97 -78.69,-31.66 -110.24,20.32 0.12,-0.05 0.23,-0.12 0.34,-0.16 -0.05,1.45 -0.11,2.92 -0.11,4.39 15.81,17.04 21.5,33.47 -1.25,48.14 -0.05,1.52 -0.05,3.04 -0.11,4.58 -2.82,1.07 -5.63,2.19 -8.46,3.26 -13.2,12.37 -26.42,24.72 -39.51,37.15 -2.25,-6.38 -4.35,-12.76 -6.6,-19.2 15.4,-5.98 30.76,-11.96 46.11,-17.95 2.09,-1.96 4.17,-3.88 6.27,-5.87 1.07,-0.61 1.29,-1.29 2.3,-1.97 0.4,-16.03 0.85,-32.1 1.25,-48.14 -0.67,-0.73 -1.03,-1.4 -1.74,-2.14 0.49,-0.85 1.07,-1.29 1.51,-2.09 -70.26,37.19 -140.53,74.33 -212.94,112.66 -23.26,-33.98 -63.1,-46.91 -50.68,-106.51l-1.59 0.74c0.05,-9.66 0.12,-19.42 0.12,-29.18l1.58 0.78c-31.66,-69.75 13.38,-119.65 40.86,-143.97 88.95,-78.79 177.33,-164.42 291.56,-177.06 61.8,-6.94 118.47,-38.83 175.08,-76.76 46.17,-31.1 104.58,-30.86 166.45,-46.78 -2.15,38.09 -3.73,66.14 -5.94,105.37 55.48,-31.78 104.94,-60.11 157.92,-90.41 -6.72,-29.02 -16.41,-60.57 -47.13,-40.81 -26.68,17.15 -40.12,8.19 -54.01,-29.7 17.05,-11.45 33.82,-22.68 50.24,-33.63 1.4,-48.94 -25.01,-65.97 -46.29,-88.04l-0.67 7.44 0.4 -4.62c-2.72,-42.73 16.88,-66.76 44.41,-59.66 72.92,18.91 125.3,-22.97 164.47,-88.51 65.02,12.15 35.56,68.75 39.56,116.22 24.21,8.24 49.22,16.77 71.01,24.22 32.17,-58.92 -15.25,-78.63 -21.11,-124.12 24.5,-37.19 50.96,-69.41 98.2,-62.36 19.76,2.93 41.31,-13.66 61.81,-22.01 11.56,-4.74 27.31,-20.15 33.51,-14.96 62.21,51.75 103.58,-8.64 151.77,-41.94 42.39,-29.22 82.07,-69.59 138.29,-53.38 20.43,5.98 47.18,-25.34 82.28,-46.4 41.42,13.2 102.33,78.22 137.54,-45.61 59.84,62.49 107.69,7.41 153.19,-13.87 43.74,-20.5 79.35,-71.63 127.43,-117.96 17.17,10.43 30.14,63.32 78.23,54.06 34.1,-6.61 59.6,-18.22 90.59,-36.35 60.51,-35.1 128.74,-47.07 193.65,-69.08 44.12,-15.01 93.91,-1.75 131.22,-51.81 8.69,-11.56 29.56,-13.32 43.79,-10.49 46.01,9.47 93.24,32.51 121.91,-43.07 2.03,-5.14 11.07,-7.01 17.1,-7.9 113,-18.23 225.82,-44.88 339.27,-50.98 78.79,-4.28 153.35,-25.21 228.97,-46.95 45.1,-12.98 91.1,-21.62 137.09,-27.02 11.8,-1.32 25.01,16.97 38.1,26.75 -10.72,20.81 -18.29,35.66 -39.34,76.81 51.02,-29.3 81.96,-47.02 112.88,-64.85 -14.33,-43.69 -25.34,-77.27 -36.46,-110.85 64.51,43.11 119.14,14.11 178.98,-0.23 149.89,-36.06 301.94,-57.06 453.55,-79.8 43.34,-6.56 87.81,1.46 144.64,3.22 54.7,-28.91 123.38,-65.13 200.59,-105.99 7.39,-77.28 15.86,-161.72 23.38,-246.32 27.37,-305.89 55.46,-611.63 80.76,-917.65 4.8,-58.3 -1.87,-118.19 -3.9,-203.35 47.35,-65.08 50.46,-175.81 54.02,-286.15 1.63,-48.72 -2.32,-97.26 30.82,-135.68 9.76,-11.46 8.62,-42.11 9.02,-64.02 2.59,-146.9 39.4,-279.19 97.37,-402.68l-1.87 2.59 0 -9.82c-4.74,-18.23 -9.43,-36.47 -14.23,-54.69 4.75,-1.02 9.49,-2.03 14.23,-2.99l0 57.68c0.44,1.87 0.96,3.68 1.4,5.53 35.28,-104.25 36.13,-114.41 19.65,-208.38 -47.36,58.76 -92.06,17.05 -140.24,-14.56 34.25,-11.17 68.45,-22.46 109.99,-36.13 0,-25.45 7.34,-60.6 -1.41,-70.26 -28.73,-31.38 -13.6,-65.8 -12.26,-99.67 1.81,-44.82 7.41,-90.01 4.24,-134.22 -1.69,-22.8 -18.84,-43.63 -31.03,-69.64 34.03,-79.47 72.01,-171.97 73.81,-278.87 1.64,-100.97 -2.03,-199.35 20.5,-300.43 20.59,-92.5 15.68,-194.61 23.87,-292.18 4,-47.76 1.85,-99.45 40.46,-131.06 6.09,-5.03 2.43,-31.22 2.61,-47.63 0.22,-10.78 -3.79,-23.77 -0.47,-32.01 33.42,-83.09 31.06,-106.27 20.43,-187.6 -7.5,-58.86 -5.13,-123.05 3.8,-182.02 17.48,-116.33 24.15,-231.58 19.13,-350.15 -2.54,-59.55 13.49,-120.68 22.57,-180.61 6.32,-42.28 -7.05,-67.67 -43.8,-86.25 37.71,-21.1 59.26,-43.11 51.82,-101.13 -6.16,-48.04 6.72,-101.09 14.16,-151.09 12.52,-83.77 27.37,-166.83 41.59,-249.98 3.4,-19.98 15.08,-42.67 10.9,-58.7 -24.89,-96.5 15.25,-176.54 33.07,-262.62 9.15,-43.85 10.73,-85.61 39,-124.72 8.2,-11.35 14.18,-24.54 17.33,-38.16 -2738.96,2079.59 -4136.87,4863.14 -4708.1,6270.71 -60.55,149.22 -285.3,93.23 -267.35,-66.78 491.25,-4375.55 4174.4,-8192.58 5900.67,-9762.28 122.02,-110.97 -17.61,-303.59 -162.03,-223.97 -9616.91,5301.8 -12271.68,17472.9 -4568.08,20526.91 1075.06,426.23 2198.89,534.03 3264.98,371.37 0.96,-5.02 1.92,-9.6 2.83,-15.23z"/>
   <path class="fil0" d="M8427.93 13927.28c14.16,-4 28.04,-9.87 42.04,-15.29 -3.1,-9.76 -6.38,-19.47 -9.6,-29.34 -13.09,8.19 -26.24,16.25 -38.87,25.56 -0.4,0.4 5.29,19.36 6.43,19.07z"/>
   <path class="fil0" d="M7942.53 14793.53c1.07,-1.18 0.44,-4.97 0.51,-7.68 -2.16,-0.96 -4.35,-1.97 -6.61,-3.04 -0.11,4.4 -0.34,8.85 -0.56,13.27 2.26,-0.74 5.07,-0.74 6.66,-2.55z"/>
   <path class="fil0" d="M8615.53 13896.9c-2.59,-6.61 -4.51,-11.57 -6.48,-16.48 -0.96,3.51 -3.22,7.79 -2.37,10.34 0.9,2.52 4.67,3.37 8.85,6.14z"/>
   <path class="fil0" d="M8566.38 13906.84c1.98,-1.7 3.95,-3.33 5.87,-4.96 -1.01,-2.77 -1.57,-6.84 -3.15,-7.8 -1.98,-1.07 -4.8,0.63 -7.23,1.24 1.52,3.72 2.99,7.68 4.51,11.52z"/>
   <path class="fil0" d="M8756.99 13565.9c58.47,39.3 58.47,39.3 107.13,-17.55 -36.4,5.94 -68.46,11.12 -107.13,17.55z"/>
   <polygon class="fil0" points="11736.78,12097.06 11729.68,12097.06 11729.68,12158.24 11736.78,12158.24 "/>
   <path class="fil0" d="M9283.41 13583.41c4.24,-2.32 8.01,-6.21 11.9,-9.49 -1.79,-2.75 -3.66,-5.52 -5.58,-8.47 -3.89,3.56 -7.95,7.28 -11.86,10.85 1.92,2.48 4.58,7.67 5.54,7.11z"/>
   <path class="fil0" d="M8857.01 13716.8l5.87 2.61 -4 -5.42c-2.83,-0.79 -5.71,-1.48 -8.57,-2.26 2.19,1.7 4.45,3.38 6.7,5.07z"/>
   <path class="fil0" d="M11871.09 23238.56c2.25,0.18 4.57,-3.1 6.83,-4.96 -2.14,-2.03 -4.22,-5.53 -6.48,-5.76 -2.16,-0.17 -4.53,3.11 -6.78,4.91 2.14,2.04 4.17,5.59 6.43,5.81z"/>
   <path class="fil0" d="M8314.93 13293.52c6.72,9.65 13.37,19.14 20.03,28.72 1.98,0.8 3.9,1.54 5.82,2.32 -1.47,-1.47 -2.83,-2.99 -4.13,-4.46 -6.7,-9.65 -13.37,-19.25 -19.98,-28.94l-1.74 2.36z"/>
   <path class="fil0" d="M10219.48 14771.44c1.25,1.58 9.49,-6.1 16.76,-11.01 -5.82,-9.13 -10.33,-18.96 -16.94,-25.05 -2.08,-1.99 -9.36,5.76 -14.16,8.91 4.58,9.31 8.47,19.53 14.34,27.15z"/>
   <path class="fil0" d="M13673.33 9762.39c0,-0.12 0.06,-0.16 0.06,-0.28 -0.69,-0.57 -1.47,-1.07 -2.16,-1.64l2.1 1.92z"/>
   <path class="fil0" d="M15234.85 12804.81c1.92,-1.85 3.95,-3.66 5.98,-5.58 -2.81,-4.18 -5.25,-8.86 -8.4,-12.24 -0.73,-0.85 -4.17,2.93 -6.38,4.51 2.82,4.46 5.81,8.86 8.8,13.31z"/>
   <path class="fil0" d="M15080.24 12794.8c-15.47,-5.14 -23.76,-10.23 -25.17,-7.97 -5.53,9.2 -8.93,20.61 -13.04,31.17 10.27,-6.1 20.54,-12.42 38.21,-23.2z"/>
   <path class="fil0" d="M14362.89 10413.49c-2.21,0.73 -5.87,3.05 -6.32,2.14 -1.59,-2.88 -2.21,-6.94 -3.23,-10.5 3.68,-1.07 7.4,-2.14 11,-3.21 -0.44,3.84 -1,7.73 -1.45,11.57zm-256.08 410.31c-5.18,-1.12 -9.71,-6.49 -14.51,-10.16 2.1,-2.81 4.35,-8.01 6.45,-7.83 5.25,0.16 10.38,2.76 16.37,4.8 -3,4.95 -6.16,13.59 -8.31,13.19zm-32.91 -904.67c-2.03,-6.55 -4.44,-12.87 -5.63,-19.64 -0.29,-1.29 5.87,-6.49 6.48,-5.75 3.5,3.83 6.21,8.97 9.2,13.66 -3.33,3.82 -6.7,7.84 -10.05,11.73zm-54.79 -131.67c2.59,-6.55 5.24,-13.04 7.84,-19.54 4.75,3.79 9.42,7.46 17.66,14.06 -10.54,2.2 -18.05,3.78 -25.5,5.48zm-20.61 466.31c-12.64,-2.94 -25.23,-5.87 -37.8,-8.82 1.74,-7.5 4.22,-21.39 5.18,-21.21 12.37,2.42 24.56,6.77 36.75,10.72 -1.3,6.5 -2.72,12.93 -4.13,19.31zm-55.19 -123.22c-0.68,-2.53 8.12,-13.82 11.74,-13.09 6.65,1.18 12.7,8.3 24.38,16.82 -11.63,10.15 -18.69,20.94 -23.76,19.53 -5.42,-1.41 -10.04,-14.17 -12.36,-23.26zm-1.01 -282.14c4.84,0.18 9.64,1.41 14.49,2.26 -1.01,3.44 -1.92,7 -2.99,10.44 -4.29,-0.84 -8.51,-1.69 -12.86,-2.59 0.51,-3.5 0.96,-10.11 1.36,-10.11zm-31.73 -143.48c6.77,-38.98 6.1,-56.09 12.26,-66.13 8.51,-13.89 22,-22.58 40.23,-40.08 11.12,56.15 -10.44,73.15 -52.49,106.21zm-62.14 -178.11c-2.54,-7.12 -8.64,-18.17 -7.16,-20.54 5.31,-7.97 13.26,-13.1 20.14,-19.2 2.65,6.61 5.31,13.26 9.26,23.04 -7.39,5.47 -14.78,11.05 -22.24,16.7zm-46.17 577.83c-0.74,0.91 -1.47,1.76 -2.19,2.65l1.85 -2.65c0.12,0 0.23,0 0.34,0 1.47,-1.75 2.99,-3.44 4.4,-5.25 11.34,-13.82 15.3,-50.17 39.41,-24.61 4.62,5.03 2.87,20.5 3.99,31.22 -15.91,-0.45 -31.82,-0.85 -47.8,-1.36zm18.91 1625.35c-5.76,-3.88 -7.84,-17.15 -11.45,-26.41 4.96,-3.44 10.6,-10.83 14.78,-9.36 6.38,1.86 11.63,9.81 22.24,19.74 -12.64,8.42 -21.57,18.62 -25.57,16.03zm-7.9 -2125.7c3.44,-3.44 13.1,-2.64 16.36,1.31 25.97,31.09 5.25,53.79 -9.31,91.6 -24.83,-41.38 -32.39,-68.01 -7.05,-92.91zm-40.13 -248.6c-2.59,-6.67 11.39,-24.67 21.51,-44.54 12.23,14.73 27.42,25.29 26.92,34.09 -0.96,16.14 -11.23,31.37 -17.5,46.96 -10.78,-11.86 -24.94,-21.33 -30.93,-36.51zm-12.03 124.77c-5.69,0.96 -12.64,-11.9 -22.11,-22 9.87,-9.03 16.64,-19.98 23.02,-19.53 6.04,0.4 11.57,12.75 17.38,19.81 -6.03,7.85 -11.62,20.71 -18.29,21.72zm-56.83 -283.88c-4.51,-12.81 -12.36,-25.52 -12.59,-38.49 -0.22,-15.52 6.16,-31.39 9.6,-47.02 7.17,6.16 14.29,12.37 21.39,18.46 4.91,12.75 16.32,31.49 13.44,37.13 -7.05,13.27 -20.89,20.27 -31.84,29.92zm-2.81 106.44c-4.24,-1.12 -8.53,-2.3 -12.82,-3.5 3,-20.21 6.04,-40.4 9.03,-60.56 4.64,1.19 9.04,2.37 13.6,3.62 -3.33,20.2 -6.55,40.3 -9.81,60.44zm-67.9 -19.81c-2.61,-5.69 -4.35,-12.07 -6.38,-18.17 2.54,-1.14 5.02,-2.26 7.61,-3.44 2.1,6.21 4.24,12.3 6.39,18.51 -2.66,1.12 -7.4,3.89 -7.62,3.1zm92.22 -359.12l4.57 -0.22 -2.43 0.78c-0.11,1.63 -0.16,3.33 -0.29,5.02 4.98,14.52 9.89,29.19 14.8,43.68 -5.65,1.36 -11.34,2.72 -17.1,4.13 0.78,-16.03 1.58,-31.95 2.3,-47.81 -0.61,-1.87 -1.23,-3.77 -1.85,-5.58zm-169.94 -159.55l-0.34 -1.59c0.23,-2.43 0.51,-4.8 0.79,-7.23 0.4,-9.25 0.8,-18.51 1.29,-27.76l4.87 -2.6 -3.06 1.69c-1.07,9.54 -2.08,19.14 -3.1,28.67 -0.12,2.5 -0.23,4.91 -0.4,7.34 2.2,0.68 4.41,1.41 6.67,2.04 -2.26,-0.18 -4.51,-0.4 -6.72,-0.56zm-82.52 615.42c-3.11,-7.68 -0.56,-27.33 4.35,-31.5 39.23,-33.36 55.08,23.48 82.57,41.19 -31.78,14.51 -65.18,43.25 -86.92,-9.69zm-22.24 -168.26c-12.69,-1.47 -30.53,-25.12 -33.18,-42.6 -1.86,-12.48 17.44,-42.67 27.71,-43.07 13.1,-0.51 26.64,21.28 47.02,39.79 -17.89,21.05 -30.7,47.29 -41.55,45.88zm-74.16 -342.31c-7.79,-24.27 18.4,-58.47 39.06,-51.02 12.3,4.58 21.95,21.9 39.79,40.97 -19.63,18.98 -32,39.07 -46.22,41.83 -9.87,1.92 -27.89,-16.93 -32.63,-31.78zm169.88 -2.14c1.92,-0.79 10.29,10.49 9.71,14.56 -1.58,8.59 -6.94,16.25 -13.71,30.54 -7.06,-13.94 -11.06,-21.79 -14.96,-29.52 6.27,-5.53 12.14,-12.53 18.96,-15.58zm-175.41 773.46c-1.97,0.56 -9.54,-12.31 -8.46,-15.19 3.39,-9.15 9.6,-16.65 18.06,-30.03 5.07,14.51 12.41,26.26 10.32,31.62 -2.82,7.32 -12.58,11.34 -19.92,13.6zm1051.02 692.18c-22.18,-19.37 -39.61,-51.93 -45.04,-88.06 -169.09,-330.9 -330.61,-664.92 -479,-1003.66 -5.53,8.91 -13.09,16.59 -24.38,21.84 -6.03,2.93 -23.87,-13.66 -25.9,-24.61 -5.94,-30.99 4.28,-47.58 23.58,-57.91 -119.77,-276.94 -230.61,-557.06 -329.09,-841.52 -4.58,63.79 -9.09,127.49 -13.78,192.18 4.46,6.89 9.04,18.28 16.21,24.16 24.76,20.38 53.83,41.82 25.61,82.79 -6.43,9.49 -39.68,-13.09 -68.68,-23.92 -11.18,22.62 -27.55,56.04 -43.97,89.67 -88.16,9.27 -88.16,9.27 -84.77,-155.2 -53.9,44.99 -53.84,72.23 1.74,214.13 -30.59,28.67 -61.56,57.62 -92.44,86.69 2.26,6.61 4.35,13.2 6.54,19.92 18,-2.03 36.07,-3.95 60.06,-6.48 14.67,99.67 4.51,196.58 1.01,293.99 -3.33,92 -29.12,186.65 10.72,276.27 22.01,-6.99 44.14,-13.89 67.23,-21.1 1.07,14.89 4.12,23.98 1.8,28.67 -14.78,29.74 -26.3,67.38 -47.24,85.56 -33.18,28.84 -40.64,67.83 -45.21,112.65 -8.4,83.59 -16.93,167.12 -24.38,240.66 20.89,41.04 39.45,77.5 62.65,123.03 37.02,-78.55 90.36,-55.69 155.26,-26.35 -8.17,-81.33 -14.11,-147.7 -21.55,-213.74 -6.94,-61.63 13.94,-130.6 -26.81,-184.56 -0.8,-1.01 12.75,-20.77 20.48,-32.96 15.13,-52.71 24.44,-113.16 85.29,-99.78 6.99,1.52 21.21,-7.28 22.52,-14.38 11.28,-62.65 50.96,-39.46 84.88,-60.24l0 69.48c-18.96,-2.76 -34.93,-5.02 -56.05,-8.12 8.24,69.64 21.84,123.83 73.37,144.59 -13.2,61.81 -26.46,123.78 -39.67,185.52 12.14,10.61 29.07,18.85 33.35,33.54 48.38,162.14 79.31,326.43 28,498.98 -7.95,26.3 -18.22,60.38 -11.96,83.64 30.47,112.54 -5.14,218.7 -11.41,327.64 -3.33,56.43 -1.91,113.16 -6.21,169.49 -2.37,31.2 -4.85,69.87 -19.36,90.74 -69.58,100.59 -69.93,217.81 -47.8,343.61 9.15,-62.41 18.35,-124.95 27.48,-187.43 11.41,53.62 67.23,95.5 21.01,158.94 -5.6,7.61 5.7,35.94 8.13,54.85 8.51,63.5 20.48,128.23 -36.19,183.94 -10.72,-38.72 -19.36,-70.04 -28.94,-104.92 -9.04,5.7 -21.39,8.4 -23.27,15.57 -31.43,122.93 -28.6,249.69 -23.19,404.17 20.65,-43 31.9,-66.09 49.16,-102.04 17.44,38.03 32.51,70.65 49.61,107.92 45.66,6.48 96.79,-56.96 145.16,5.13 4.91,6.26 24.89,-1.25 34.65,-9.2 65.64,-53.18 133.21,-57.85 208.61,-38.6 42.33,10.83 89.69,-15.7 135.12,-22.75 18.18,-2.82 38.1,-3.28 55.58,3.15 48.72,17.73 95.79,58.7 144.44,-5.92 8.02,-10.56 37.13,-0.85 53.61,8.19 46.91,25.68 94.67,30.13 144.26,24.49 66.72,-7.56 133.72,-9.99 199.92,-21.96 16.77,-3.15 30.7,-34.14 49.89,-56.94 10.62,17.44 18.79,40.46 32.46,50.57 12.08,8.91 30.41,5.18 45.77,4.06 86.12,-6.94 172.26,-14.51 258.38,-22.35 -258.38,-472.79 -519.98,-946.27 -767.25,-1425.72z"/>
   <polygon class="fil0" points="15295.44,12785.81 15290.03,12788 15294.76,12792.3 "/>
   <polygon class="fil0" points="13200.07,21016.74 13194.82,21016.23 13197.19,21024.07 "/>
   <path class="fil0" d="M15977.8 13978.38l-7.28 -4.97 8.12 -3.04 -0.84 8.01zm-67.34 -123.2c-7.44,0.11 -21.84,-19.43 -21.62,-29.92 0.68,-35.9 8.47,-70 42.78,-87.08 2.15,32.27 6.61,61.78 4.69,90.47 -0.78,10.61 -16.65,26.35 -25.85,26.53zm-210.13 349.07c-2.48,-5.98 -7.77,-16.21 -6.94,-17.33 5.09,-5.91 11.69,-9.71 17.79,-14.28 1.07,7.34 4.33,15.76 2.7,21.56 -1.58,4.92 -8.8,6.77 -13.55,10.05zm-359.91 2153.12c21.17,-57.05 28.79,-108.47 71.85,-128.05 30.13,101.59 19.25,124.05 -71.85,128.05zm-1002.99 -2189.47l-3.1 -8.3 6.1 -0.11 -3 8.41zm-66.09 804.83c-13.55,-3.5 -30.71,-26.52 -34.31,-44.81 -7.46,-37.13 18.44,-76.59 55.08,-77.32 8.24,13.37 26.01,31.44 31.77,54.46 6.88,27.77 -28.16,73.88 -52.54,67.67zm-477.25 6517.35l-1.48 -8.75 5.43 2.14 -3.95 6.61zm-318.22 784.34c-20.99,-24.72 -35.84,-42.27 -50.68,-59.71 4.73,-9.82 9.53,-19.58 14.28,-29.41 19.63,2.88 39.28,5.76 66.99,9.83 -10.61,27.48 -17.89,46.5 -30.59,79.29zm-27.15 247.99c-1.81,0.8 -5.02,-3.66 -7.57,-5.69 3.35,-5.88 6.68,-11.68 9.94,-17.44 3.68,4.4 7.34,8.91 10.96,13.37 -4.35,3.33 -8.58,7.73 -13.33,9.76zm-176.08 -2198.83c-11.52,16.26 9.36,68.75 10.43,104.81 1.36,48.43 -22.51,50.57 -50.4,38.76 -20.49,-226.43 -0.73,-404.38 71.57,-492.48 -3.89,58.58 -8.13,117.17 -11.52,175.74 -3.38,57.74 19.2,117.35 -20.08,173.17zm-67.4 1898.86l0.62 -6.1 5.42 3.84 -6.04 2.26zm-19.01 227.29c-1.25,-2.83 -3.84,-6.21 -3.34,-8.24 0.73,-2.61 3.95,-4.02 6.04,-6.05 2.31,1.36 4.52,2.82 6.88,4.13 -3.21,3.38 -6.36,6.82 -9.58,10.16zm3069.86 -8539.42c0.8,-7.11 4.18,-14.05 7.57,-21.22 -35.66,-82.74 -72.34,-165.2 -109.72,-247.55 -128.34,15.64 -254.82,49.95 -383.68,53.34 -51.07,1.3 -58.35,51.98 -68.57,102.38 -49.5,-57 -49.61,-60.22 -115.41,-55.42 -78.4,5.58 -156.97,13.94 -234.62,28.05 -44.32,8.01 -93.8,14.84 -109.79,104.13 -24.2,-41.37 -40.06,-68.52 -59.14,-101.25 -19.41,9.76 -39.12,19.47 -61.07,30.47 -6.21,51.2 -12.37,102 -19.76,163.33 -26.91,-25.56 -46.22,-43.78 -65.47,-61.96 -7.61,-7.23 -20.25,-22.35 -22.12,-20.38 -78.51,86.36 -95.39,-75.23 -171.06,-58.35 -60.24,58.01 -144.39,88.83 -236.65,86.75 -33.87,-0.74 -68.81,6.09 -101.48,18.06 -54.26,20.14 -107.02,42.56 -163.35,12.97 -8.06,-4.17 -22.4,-6.6 -26.97,-0.56 -56.05,71.68 -123.05,23.65 -184.61,32 -61.81,8.35 -123.45,19.42 -184.63,33.87 -35.77,8.4 -70.38,26.13 -105.7,38.65 -74.73,26.48 -149.46,52.22 -224.13,78.13 -50.68,17.48 -101.37,34.81 -155.94,53.45 -3.95,41.93 -8.81,77.65 -10.56,113.67 -12.08,248.55 -22.12,497.17 -35.56,745.51 -8.74,163.05 -23.07,325.71 -32.67,488.64 -6.83,117.51 -24.83,235.54 1.36,352.94 0.89,3.95 3.15,9.2 2.08,11.79 -50.51,111.57 0.85,223.16 -0.11,334.69 -0.29,32.67 2.99,72.75 -9.6,96.06 -27.42,50.97 -29.23,110.5 -22.63,159.66 12.76,96.41 -28.1,181.35 -17.55,277 10.32,93.09 4.85,189.32 4.52,284.19 -0.4,108.81 -2.48,217.92 -4.52,326.73 -0.4,20.2 1.35,50.46 -7.4,58.69 -36.4,34.37 -11.62,64.51 -6.71,102.96 9.54,74.82 4.85,151.65 -34.71,217.79 -11.3,18.8 -18.23,69.93 -13.94,72.81 60.49,41.15 20.14,122.98 43.28,181.85 22.12,56.61 -16.3,106.84 -69.64,111.24l0 107.8c17.72,-16.59 31.32,-29.51 44.65,-42.11 34.59,37.76 9.81,70.56 6.59,104.76 -2.99,31.89 4.35,65.53 8.13,111.53 -21.04,-23.31 -36.29,-40.19 -57.05,-63.27 -27.11,107.35 -26.48,212.09 -5.03,317.99 0.34,-0.13 0.63,-0.24 1.01,-0.29 6.61,-53.39 13.15,-107.02 20.89,-169.6 33.81,20.87 54.58,33.02 50.45,82.12 -5.03,60.95 -33.07,79.75 -71.34,87.48 -0.16,1.25 -0.34,2.48 -0.5,3.73l-2.09 -2.95c-24.78,63.56 -29.92,129.59 -28.27,201.62 3.44,158.31 -2.43,316.9 -2.21,475.38 0,48.1 7.28,96.24 11.34,145.74 24.95,-3.51 43.12,-6.16 61.29,-8.6 -53.1,54.53 -59.54,135.02 -80.58,202.63 -11.7,37.37 -21.97,78.62 0.11,126.82 14.45,31.77 10.05,87.14 1.23,127 -17.95,80.98 -3.55,158.02 -1.74,237.5 1.52,67.83 11.12,143.52 -17.78,210.96 -8.63,19.87 -11.11,47.64 -9.59,70.89 7.45,109.89 17.15,219.5 26.12,329.16l1.36 4.91 0.4 -7.46c4.74,-25.5 9.36,-51.02 14.34,-76.63 5.36,-28.29 10.94,-56.51 16.41,-84.78 7.12,-0.67 14.11,-1.52 21.17,-2.26 8.75,27.09 25.11,54.35 24.83,81.33 -1.68,133.83 -7.95,267.7 -12.02,401.47 -0.89,30.92 2.43,62.14 0.51,92.77 -1.36,21.46 -4.12,55.78 -13.37,60.69 -23.82,12.41 -39.68,-8.02 -44.48,-42.18 -1.52,-10.71 -7.45,-20.54 -13.15,-35.43 -12.53,31.99 -23.02,59.08 -33.58,85.96l1.97 -3.28 -2.53 5.25c24.54,107.86 25.68,213.74 -15.81,315.95 -1.47,3.49 -4.12,6.6 -4.8,10.32 -6.76,43.92 -22.79,89.92 -17.95,131.63 12.59,108.35 -40.75,212.89 -2.81,323.68 17.6,51.31 38.49,113.83 4.62,172.64 32.11,101.55 -10.56,203.92 2.08,306.47 7.01,56 4.24,114.08 6.16,171.13 1.81,56.28 4,112.44 6.27,174.01 37.54,38.37 51.92,67.55 42.94,104.3 1557.52,-645.12 2845.87,-1914.1 3443.12,-3637.21 701.89,-2025.24 355.41,-3750.95 -343.05,-5388.43 -9.36,-1.58 -28.38,-19.58 -27.6,-26.25z"/>
   <path class="fil0" d="M14720.39 12809.61c4.4,3.95 8.8,7.79 15.48,13.71 3.82,-9.47 8.35,-18.22 10.54,-27.98 0.46,-1.76 -11.23,-11.29 -12.08,-10.11 -5.47,7.01 -9.42,15.98 -13.94,24.38z"/>
   <path class="fil0" d="M14592.74 12917.14c2.14,1.01 4.34,2.19 6.54,3.33 1.52,-2.32 4.23,-4.51 4.29,-6.83 0.11,-2.44 -2.37,-5.03 -3.73,-7.51 -2.43,3.67 -4.68,7.28 -7.1,11.01z"/>
   <path class="fil0" d="M14651.94 12920.1c13.42,-5.31 26.86,-10.62 40.34,-15.98 -2.59,-9.72 -5.29,-19.41 -7.83,-29.12 -13.11,8.4 -26.19,16.88 -39.23,25.34 2.25,6.48 4.46,13.15 6.72,19.76z"/>
   <path class="fil0" d="M13162.76 21251.28c0.06,0.18 0.06,0.29 0.06,0.45 0.23,-0.56 0.45,-1.12 0.68,-1.63l-0.74 1.18z"/>
   <path class="fil0" d="M14778.39 12866.98c-0.78,3.11 6.72,10.05 11.18,16.42 15.07,-11.84 30.3,-23.87 39.28,-30.93 -2.59,-28.16 -4.46,-48.7 -6.38,-69.35 -0.56,0.78 -1.24,1.68 -1.81,2.48 -54.13,-9.54 -33.85,49.32 -42.27,81.38z"/>
   <path class="fil0" d="M14892.36 12863.08c4.87,2.37 10.29,7.68 14.47,6.32 2.93,-1.02 4.22,-10.9 6.25,-16.82 -4.8,-2.94 -9.47,-5.87 -14.27,-8.75 -2.14,6.43 -4.29,12.87 -6.45,19.25z"/>
   <path class="fil0" d="M13162.01 21253.86l0.91 -1.81c-0.06,-0.11 -0.06,-0.22 -0.06,-0.34 -0.29,0.72 -0.56,1.46 -0.85,2.15z"/>
   <path class="fil0" d="M14957.19 12847.86c11.9,-4.97 23.76,-9.88 35.68,-14.84 -3.22,-8.75 -6.5,-17.5 -9.6,-26.14 -10.5,7.96 -21.1,16.03 -31.61,24.04 1.92,5.6 3.68,11.19 5.53,16.94z"/>
   <path class="fil0" d="M13507.98 9544.64l-3.84 -1.18c-0.34,0.45 -0.72,1.12 -1.07,1.58 -0.11,0.39 -0.16,0.79 -0.27,1.19l5.18 -1.59z"/>
   <path class="fil0" d="M13292.03 9035.68c-1.3,3.1 -3.44,6.16 -3.71,9.55 -0.29,3.21 1.29,6.81 2.08,10.2 4.01,-2.54 8.01,-5.13 12.08,-7.72 -3.44,-4.07 -6.95,-7.97 -10.45,-12.03z"/>
   <path class="fil0" d="M12046.29 23005.65c-7.28,3.6 -14.56,7.17 -21.84,10.83l22.64 0c-0.18,-3.66 -0.51,-7.23 -0.8,-10.83z"/>
   <path class="fil0" d="M11953.13 22633.15c-6.54,-6.6 -13.15,-13.26 -21.77,-21.95 -6.39,10.61 -14.69,18.63 -15.25,27.49 -0.23,6.82 9.2,14.5 14.29,21.89 7.55,-9.14 15.18,-18.29 22.73,-27.43z"/>
   <path class="fil0" d="M12024.44 23016.47l-5.7 0c-1.14,1.58 -2.26,3.15 -3.33,4.73 1.79,-0.96 3.55,-1.96 5.36,-2.92 1.23,-0.63 2.42,-1.19 3.67,-1.81z"/>
   <path class="fil0" d="M11961.83 22959.14c1.81,2.88 3.73,8.13 5.2,7.96 4.96,-0.72 9.65,-3.49 14.5,-5.52 -1.7,-3 -3.67,-8.64 -4.96,-8.36 -4.98,0.96 -9.83,3.78 -14.74,5.92z"/>
   <path class="fil0" d="M13348.99 10721.12c0.51,-12.92 0.28,-25.74 0.28,-38.71 -4.46,0.61 -9.08,1.23 -13.55,1.85 1.92,13.22 3.84,26.37 5.83,39.52 2.59,-0.85 7.39,-1.7 7.44,-2.66z"/>
   <path class="fil0" d="M13342.39 14667.24c-4.46,0.96 -8.92,1.81 -13.39,2.7 0.96,28.22 1.92,56.56 2.83,84.84 7.28,-1.65 14.5,-3.39 21.79,-5.02 -3.79,-27.6 -7.51,-54.97 -11.23,-82.52z"/>
   <path class="fil0" d="M13363.69 14398.35c-5.2,-0.79 -10.45,-1.75 -15.65,-2.64 -3.49,23.92 -6.99,47.85 -10.43,71.78 7.22,0.85 14.38,1.59 21.55,2.26 1.58,-23.76 2.99,-47.58 4.53,-71.4z"/>
   <path class="fil0" d="M11926.54 22790.12c2.14,-6.88 6.78,-14.4 5.76,-20.38 -0.85,-5.64 -7.55,-9.76 -11.74,-14.61 -2.2,7.1 -4.52,14.16 -6.71,21.1 4.29,4.62 8.47,9.26 12.69,13.89z"/>
   <path class="fil0" d="M14528.63 13858.86c2.15,-1.52 4.4,-2.93 6.66,-4.29 -1.58,-2.31 -3.06,-6.1 -4.8,-6.55 -2.03,-0.4 -4.4,2.44 -6.61,3.84 1.59,2.37 3.11,4.63 4.75,7z"/>
   <polygon class="fil0" points="13286.33,15595.08 13291.31,15596.49 13289.79,15587.85 "/>
   <path class="fil0" d="M13112.27 7315.48c4.4,-58.99 -5.03,-66.49 -55.26,-67.56l0.45 1.4 -2.26 -1.12c-40.19,109.26 -38.76,224.8 -10.49,334.01 14.89,57.63 12.19,84.6 -20.43,125.24 -46.22,57.45 -49.44,162.77 -17.28,240.15 -21.33,28.9 -51.3,54.69 -12.42,98.65 6.61,7.68 9.49,37.65 4.4,44.03 -47.74,61.52 15.92,85.74 20.5,130.04 15.11,-41.65 31.66,-82.46 32.73,-123.99 2.48,-89.87 52.71,-177.97 7.5,-270.48 -3.84,-7.66 -1.57,-29.16 3.46,-34.03 39.28,-37.58 31.04,-79.17 15.74,-130.19 -7.97,-26.66 0.9,-62.94 4.45,-94.49 9.33,-83.93 22.7,-167.4 28.91,-251.66z"/>
   <path class="fil0" d="M13282.14 15826.22l0 -9.78c-2.7,-1.41 -5.53,-4.33 -7.56,-3.73 -1.92,0.69 -3.04,5.43 -4.45,8.31 3.95,1.74 7.95,3.44 12.01,5.2z"/>
   <path class="fil0" d="M13106.44 6659.56c-3.83,4.02 -7.43,8.76 -11.79,11.3 -1.47,0.96 -7.23,-4.51 -7.05,-5.36 1.47,-6.43 4.06,-12.59 6.27,-18.69 4.22,4.29 8.4,8.53 12.57,12.75zm-27.98 -512.58c-29.24,133.59 -75.8,261.37 -90.02,399.6 -8.24,80.09 -1.52,163.33 1.63,244.94 1.92,48.61 38.43,81.34 79.69,78.35 45.55,-3.39 58.14,-20.05 58.88,-84.38 0.73,-57.85 0.55,-116.5 0.38,-176.5 -19.36,-154.87 -33.63,-311.43 -43.01,-469.62 -3.6,2.14 -6.87,4.4 -7.55,7.61z"/>
   <path class="fil0" d="M13318.73 10185.18c31.49,-37.19 32.51,-72.42 0,-112.77l0 112.77z"/>
   <path class="fil0" d="M12015.4 23021.19c-13.55,7.28 -27.04,14.56 -40.53,21.9 3.73,6.5 7.51,12.97 11.23,19.41 9.83,-13.83 19.54,-27.6 29.3,-41.31z"/>
   <path class="fil0" d="M13398.09 10230.19c2.94,-5.65 5.87,-11.3 8.86,-16.99 -4.91,3.39 -9.82,6.72 -14.67,10.04 1.92,2.32 3.89,4.58 5.81,6.95z"/>
   <path class="fil0" d="M13406.93 10213.21c1.19,-0.78 2.37,-1.63 3.55,-2.41 6.28,-10.63 12.6,-21.23 18.91,-31.73 -0.44,-0.67 -0.84,-1.29 -1.29,-1.98 -6.37,10.67 -12.7,21.28 -19.02,32.01 -0.74,1.35 -1.41,2.77 -2.15,4.11z"/>
   <path class="fil0" d="M14090.32 13597.79c-2.43,1.74 -4.98,3.44 -7.46,5.29 2.55,1.88 5.03,3.73 7.46,5.65l0 -10.94z"/>
   <path class="fil0" d="M13395.77 10070.25c2.43,20.99 4.86,42 7.29,62.99 2.53,-20.72 5.07,-41.54 7.73,-62.32 -5.09,-0.16 -10.05,-0.45 -15.02,-0.67z"/>
   <path class="fil0" d="M13518.3 10154.99c4.75,-0.11 9.49,-0.28 14.29,-0.46l0 -84.09c-4.8,0.29 -9.54,0.62 -14.29,1.02l0 83.53z"/>
   <path class="fil0" d="M13927.85 13657.82c2.88,0.67 5.82,1.36 8.64,2.09 2.7,-1.13 5.42,-2.25 8.19,-3.45 -2.21,-2.04 -4.8,-6.04 -6.67,-5.52 -3.55,0.84 -6.72,4.44 -10.16,6.88z"/>
   <polygon class="fil0" points="13312.14,10877.74 13306.43,10876.78 13308.68,10886.04 "/>
   <path class="fil0" d="M13424.2 10975.12c0.28,-2.72 -1.7,-5.76 -2.77,-8.58 -0.45,5.25 -0.9,10.5 -1.35,15.8 1.41,-2.42 3.89,-4.68 4.12,-7.22z"/>
   <polygon class="fil0" points="13308.09,15164.62 13311.36,15157.97 13306.11,15157.07 "/>
   <path class="fil0" d="M13317.39 14892.2c-3.39,58.98 -6.79,118.07 -10.23,177.1 26.48,-56.49 41.33,-114.29 10.23,-177.1z"/>
   <path class="fil0" d="M13403.08 10133.25c-0.36,2.77 -0.69,5.6 -1.03,8.42 0.74,0.4 1.75,0.45 2.59,0.78 -0.16,-0.33 -0.38,-0.67 -0.6,-0.96 -0.36,-2.75 -0.63,-5.47 -0.96,-8.24z"/>
   <path class="fil0" d="M13404.66 10142.45c7.79,11.57 15.65,23.09 23.42,34.65 0.18,-0.27 0.35,-0.56 0.51,-0.84 8.24,-32.96 -11.11,-29.01 -23.93,-33.81z"/>
   <polygon class="fil1" points="5999.67,25767.54 5739.2,25767.54 5739.2,24468.8 5999.67,24468.8 "/>
   <path class="fil1" d="M7160.68 24859.58c-29.74,-54.52 -70.71,-96.07 -122.82,-124.63 -52.09,-28.55 -112.87,-42.83 -182.35,-42.83 -76.92,0 -145.11,17.38 -204.66,52.1 -59.48,34.76 -106.04,84.37 -139.5,148.88 -33.47,64.51 -50.24,138.9 -50.24,223.28 0,86.81 17.04,162.48 51.13,226.94 34.09,64.57 81.56,114.18 142.34,148.84 60.8,34.76 131.46,52.15 212.11,52.15 99.23,0 180.5,-26.36 243.76,-79.08 63.21,-52.72 104.81,-126.2 124.68,-220.51l-446.56 0 0 -199.06 703.3 0 0 226.99c-17.39,90.54 -54.63,174.29 -111.63,251.17 -57.07,76.92 -130.55,138.61 -220.52,185.12 -89.91,46.51 -190.7,69.75 -302.34,69.75 -125.3,0 -238.46,-28.15 -339.54,-84.6 -101.1,-56.43 -180.45,-134.88 -238.12,-235.4 -57.7,-100.46 -86.53,-214.59 -86.53,-342.31 0,-127.78 28.83,-242.19 86.53,-343.27 57.67,-101.14 137.02,-179.87 238.12,-236.32 101.08,-56.44 213.68,-84.65 337.67,-84.65 146.36,0 273.56,35.67 381.42,106.96 107.98,71.33 182.36,171.52 223.28,300.48l-299.53 0z"/>
   <path class="fil1" d="M7945.84 25066.14l217.69 0c70.72,0 123.38,-17.05 158.15,-51.19 34.7,-34.1 52.09,-81.5 52.09,-142.34 0,-59.55 -17.39,-105.72 -52.09,-138.62 -34.77,-32.86 -87.43,-49.27 -158.15,-49.27l-217.69 0 0 381.42zm409.36 701.43l-286.54 -506.1 -122.82 0 0 506.1 -260.46 0 0 -1298.74 487.46 0c100.46,0 186.04,17.73 256.75,53.05 70.71,35.34 123.77,83.15 159.04,143.3 35.39,60.17 53.06,127.45 53.06,201.84 0,85.61 -24.83,162.82 -74.38,231.68 -49.68,68.79 -123.45,116.26 -221.42,142.29l310.71 526.58 -301.4 0z"/>
   <polygon class="fil1" points="9138.45,24679.12 9138.45,25004.71 9575.69,25004.71 9575.69,25211.22 9138.45,25211.22 9138.45,25555.45 9631.51,25555.45 9631.51,25767.56 8877.97,25767.56 8877.97,24467.01 9631.51,24467.01 9631.51,24679.12 "/>
   <path class="fil1" d="M10625.08 24468.85l0 911.67c0,126.55 -36.58,224.92 -109.79,294.97 -73.19,70.02 -171.18,105.07 -293.94,105.07 -124.1,0 -224.22,-35.94 -300.54,-107.91 -76.25,-71.89 -114.4,-172.37 -114.4,-301.38l260.47 0c1.23,55.82 14.56,99.27 40.01,130.2 25.41,31.05 62.32,46.51 110.68,46.51 47.14,0 83.13,-14.85 107.98,-44.59 24.77,-29.79 37.18,-70.72 37.18,-122.87l0 -911.67 262.35 0z"/>
   <polygon class="fil1" points="13869.9,24468.85 13393.61,25767.59 13077.31,25767.59 12600.97,24468.85 12880.06,24468.85 13237.33,25501.47 13592.66,24468.85 "/>
   <polygon class="fil1" points="10675.09,25764.79 11151.39,24466.05 11467.68,24466.05 11944.03,25764.79 11664.93,25764.79 11307.68,24732.15 10952.33,25764.79 "/>
   <polygon class="fil1" points="15378.63,25795.09 15854.93,24496.35 16171.22,24496.35 16647.57,25795.09 16368.49,25795.09 16011.22,24762.45 15655.87,25795.09 "/>
   <polygon class="fil1" points="14286.69,25767.54 14026.21,25767.54 14026.21,24468.8 14286.69,24468.8 "/>
   <polygon class="fil1" points="15710.04,24468.85 15233.75,25767.59 14917.45,25767.59 14441.11,24468.85 14720.2,24468.85 15077.45,25501.47 15432.8,24468.85 "/>
   <path class="fil1" d="M7526.86 26875.26l635.97 0c1.33,-7.47 1.76,-14.06 1.76,-20.22 0,-6.16 0,-11.87 0,-17.15 0,-58.94 -8.35,-114.36 -24.62,-166.26 -16.72,-51.45 -40.91,-96.76 -73.01,-135.01 -32.11,-38.27 -71.69,-68.17 -118.31,-90.61 -46.62,-22.43 -99.4,-33.42 -158.34,-33.42 -55.85,0 -106.87,10.99 -153.92,32.55 -47.07,21.55 -87.96,51.45 -121.83,89.27 -34.3,37.83 -61.13,82.25 -80.04,133.27 -18.93,51.45 -28.59,105.99 -28.59,164.05 0,62.01 10.54,118.74 31.66,170.21 21.1,51.88 49.69,96.31 86.2,132.82 36.06,36.94 78.28,65.53 127.11,85.32 48.81,20.22 100.28,30.35 155.25,30.35 76.52,0 140.74,-13.65 192.64,-41.34 51.45,-27.28 97.63,-63.79 137.66,-109.08l-74.33 -66.86c-32.99,34.32 -69.49,61.58 -109.52,82.25 -40.02,20.67 -87.51,31.23 -143.38,31.23 -35.18,0 -68.6,-6.16 -100.71,-18.03 -32.11,-11.87 -61.13,-29.47 -87.08,-52.78 -25.95,-23.31 -47.07,-51.45 -63.34,-85.32 -16.7,-33.42 -27.26,-71.69 -31.23,-115.24zm0 -88.39c3.97,-39.58 13.65,-76.09 28.16,-109.08 14.51,-32.99 32.99,-61.56 55.85,-85.75 22.43,-24.19 48.83,-43.55 78.73,-57.63 29.9,-13.63 62.46,-20.67 97.64,-20.67 40.46,0 76.09,7.48 106.43,22.43 30.35,14.96 56.3,34.75 77.85,59.38 21.11,25.06 37.82,54.1 49.7,87.09 11.87,32.97 18.91,67.72 21.99,104.23l-516.35 0zm1483.05 -214.19c-21.55,-45.74 -53.66,-84.01 -96.31,-114.35 -42.67,-30.35 -96.33,-45.74 -161.41,-45.74 -33.87,0 -63.77,3.96 -89.72,12.31 -25.95,8.36 -49.26,19.79 -69.93,33.43 -20.67,14.07 -39.15,30.34 -54.99,48.82 -16.27,18.91 -30.78,37.82 -44.41,57.61l0 -135.02 -119.63 0 0 802.21 119.63 0 0 -457.83c0,-37.39 5.71,-71.26 17.15,-101.61 11.44,-30.33 27.26,-57.16 47.5,-80.04 19.79,-22.43 43.55,-40.03 70.36,-52.78 26.83,-12.31 56.3,-18.47 88.41,-18.47 64.22,0 114.79,21.11 151.3,62.9 36.49,41.77 54.97,100.71 54.97,176.35l0 471.48 117.86 0 0 -462.23c0,-39.15 6.16,-74.33 18.03,-105.56 11.89,-31.23 27.71,-57.18 47.95,-78.73 20.22,-21.1 43.98,-36.94 70.81,-47.93 26.83,-11 55.42,-16.28 85.32,-16.28 65.1,0 116.11,21.11 153.06,62.9 36.5,41.77 54.97,101.59 54.97,179.44l0 468.39 119.19 0 0 -496.55c0,-100.26 -26.39,-178.99 -79.17,-236.61 -52.77,-57.62 -125.78,-86.2 -218.58,-86.2 -35.18,0 -66.86,3.96 -95.45,12.31 -28.57,8.36 -54.09,19.79 -76.52,34.31 -22.86,14.51 -43.53,31.67 -61.58,51.46 -18.03,19.79 -34.3,40.46 -48.81,62.01zm1993.66 522.93l-76.09 -71.69c-32.1,34.3 -67.72,62.89 -107.75,85.32 -40.03,22.88 -85.77,34.3 -137.67,34.3 -42.22,0 -81.35,-7.9 -116.98,-24.19 -35.63,-15.82 -66.84,-37.82 -92.79,-66.41 -26.4,-28.57 -47.07,-62.01 -62.03,-100.26 -15.39,-38.27 -22.86,-79.18 -22.86,-122.71 0,-43.55 7.47,-84.01 21.98,-121.83 14.53,-37.39 34.32,-70.36 60.27,-98.95 25.95,-28.59 56.28,-50.59 91.48,-66.86 35.18,-16.27 73,-24.19 113.46,-24.19 54.97,0 101.16,11.87 138.98,35.63 37.39,23.74 72.57,52.33 104.68,85.32l79.17 -83.56c-18.92,-19.79 -39.15,-38.27 -60.7,-55.86 -21.55,-17.59 -45.3,-32.98 -71.25,-45.74 -25.95,-12.76 -54.09,-22.87 -85.32,-30.35 -31.23,-7.48 -65.98,-10.99 -104.23,-10.99 -58.94,0 -113.48,10.99 -163.62,33.42 -50.14,22.44 -93.67,52.34 -130.18,90.61 -36.51,38.25 -65.08,83.12 -85.77,134.13 -20.67,51.47 -31.21,105.56 -31.21,162.29 0,56.75 10.54,110.84 31.21,161.41 20.69,50.59 49.26,95 85.77,132.82 36.51,37.82 80.04,67.74 130.18,89.72 50.14,22.43 104.68,33.44 163.62,33.44 75.64,0 138.98,-14.53 190.43,-43.55 51.02,-28.59 96.76,-65.96 137.22,-111.27zm268.27 -220.35l635.97 0c1.32,-7.47 1.76,-14.06 1.76,-20.22 0,-6.16 0,-11.87 0,-17.15 0,-58.94 -8.36,-114.36 -24.63,-166.26 -16.72,-51.45 -40.91,-96.76 -73,-135.01 -32.11,-38.27 -71.69,-68.17 -118.31,-90.61 -46.62,-22.43 -99.4,-33.42 -158.34,-33.42 -55.85,0 -106.87,10.99 -153.92,32.55 -47.07,21.55 -87.96,51.45 -121.83,89.27 -34.3,37.83 -61.13,82.25 -80.04,133.27 -18.93,51.45 -28.59,105.99 -28.59,164.05 0,62.01 10.54,118.74 31.66,170.21 21.1,51.88 49.69,96.31 86.2,132.82 36.06,36.94 78.28,65.53 127.11,85.32 48.81,20.22 100.28,30.35 155.25,30.35 76.52,0 140.74,-13.65 192.64,-41.34 51.45,-27.28 97.62,-63.79 137.65,-109.08l-74.33 -66.86c-32.99,34.32 -69.48,61.58 -109.51,82.25 -40.03,20.67 -87.51,31.23 -143.38,31.23 -35.18,0 -68.6,-6.16 -100.71,-18.03 -32.11,-11.87 -61.13,-29.47 -87.08,-52.78 -25.95,-23.31 -47.07,-51.45 -63.34,-85.32 -16.7,-33.42 -27.26,-71.69 -31.23,-115.24zm0 -88.39c3.97,-39.58 13.65,-76.09 28.16,-109.08 14.51,-32.99 32.99,-61.56 55.85,-85.75 22.43,-24.19 48.83,-43.55 78.73,-57.63 29.9,-13.63 62.46,-20.67 97.64,-20.67 40.46,0 76.09,7.48 106.42,22.43 30.35,14.96 56.3,34.75 77.85,59.38 21.12,25.06 37.82,54.1 49.71,87.09 11.87,32.97 18.91,67.72 21.98,104.23l-516.34 0zm285.45 -478.08l175.04 -167.57 -124.02 -57.61 -147.35 225.18 96.33 0zm691.82 923.16l0 -1132.52 -119.63 0 0 1132.52 119.63 0zm847.06 -343.04c0,37.37 -6.14,71.24 -18.46,102.47 -12.75,31.23 -29.47,57.61 -50.57,80.04 -21.12,22.43 -46.19,39.15 -75.66,51.02 -29.47,11.87 -61.56,18.03 -95.88,18.03 -71.24,0 -125.78,-21.55 -164.05,-65.1 -38.25,-43.53 -57.61,-102.47 -57.61,-176.8l0 -468.83 -119.62 0 0 498.3c0,47.5 7.04,91.05 21.1,130.18 13.65,39.15 33.87,73.02 60.27,101.61 26.38,28.57 58.49,50.57 96.31,65.96 37.82,15.39 80.92,23.31 129.75,23.31 69.05,0 125.33,-15.39 168.88,-45.74 43.53,-30.35 78.73,-67.72 105.54,-111.27l0 139.86 117.88 0 0 -802.21 -117.88 0 0 459.17zm516.78 343.04l0 -1132.52 -119.62 0 0 1132.52 119.62 0zm567.79 -707.65c75.64,0 134.58,18.48 176.37,54.97 41.77,36.96 62.44,91.48 62.44,164.05l0 27.71c-36.06,-10.11 -73,-18.46 -111.27,-24.62 -38.25,-6.16 -83.56,-9.25 -135.46,-9.25 -50.57,0 -96.76,5.73 -138.53,16.72 -41.79,11.44 -78.28,28.14 -108.63,49.69 -30.35,21.55 -54.11,48.83 -70.38,81.37 -16.7,32.99 -25.07,70.38 -25.07,112.6 0,42.65 8.37,79.16 25.52,110.39 17.15,31.23 39.58,57.16 68.17,78.28 28.59,21.12 60.68,36.94 96.31,47.5 35.63,10.11 72.14,15.39 109.51,15.39 71.26,0 130.63,-14.08 177.68,-42.22 47.07,-27.71 84.46,-59.82 112.15,-95.88l0 120.95 114.8 0 0 -490.39c0,-106.42 -29.46,-186.91 -88.4,-241.45 -58.94,-54.1 -143.38,-81.37 -252.89,-81.37 -58.94,0 -111.27,6.16 -156.58,18.04 -45.29,11.87 -90.6,28.15 -135.01,48.82l35.63 97.64c37.37,-17.6 75.19,-31.67 114.34,-42.67 38.7,-10.99 81.8,-16.27 129.3,-16.27zm4.85 301.27c49.69,0 93.67,3.52 132.82,10.56 38.7,7.47 73,14.94 102.9,23.31l0 77.83c0,32.11 -7.02,61.15 -20.67,87.53 -14.06,26.38 -33.42,49.26 -57.61,68.17 -24.19,19.36 -52.78,34.3 -85.32,45.31 -32.54,10.99 -67.29,16.27 -104.68,16.27 -26.83,0 -52.78,-3.52 -76.97,-11.01 -24.17,-7.47 -45.74,-18.03 -64.2,-32.09 -18.91,-13.65 -33.42,-30.35 -44.43,-50.14 -10.99,-19.79 -16.27,-42.22 -16.27,-68.17 0,-51.9 20.24,-92.81 60.7,-122.71 40.03,-29.9 98.07,-44.86 173.73,-44.86zm1154.5 181.2l0 -3.07c0,-36.08 -7.47,-66.43 -22.43,-91.48 -15.39,-24.64 -35.18,-45.74 -59.82,-63.34 -25.07,-17.6 -52.78,-32.11 -83.11,-43.55 -30.35,-11.42 -61.15,-21.98 -92.36,-31.21 -26.83,-8.37 -52.78,-16.29 -77.42,-24.64 -25.07,-8.35 -47.05,-17.58 -65.97,-28.14 -18.91,-10.13 -34.3,-22.43 -45.74,-36.51 -11.43,-13.63 -17.15,-29.9 -17.15,-48.81l0 -3.09c0,-32.99 14.07,-60.69 41.78,-83.12 27.71,-21.99 65.53,-32.98 113.48,-32.98 39.13,0 79.16,7.03 120.07,20.67 40.89,14.07 79.59,32.98 116.98,56.73l54.54 -90.16c-41.34,-26.83 -87.53,-47.94 -138.1,-64.21 -50.59,-16.28 -100.71,-24.19 -150.42,-24.19 -39.14,0 -75.64,5.27 -109.51,16.27 -33.87,10.99 -62.46,26.39 -86.65,46.62 -24.18,20.23 -43.1,44.42 -56.73,73.01 -13.64,28.58 -20.23,59.81 -20.23,93.68l0 3.52c0,37.39 7.91,68.17 24.19,92.79 15.83,25.07 36.5,45.74 62.01,62.01 25.07,16.72 53.66,30.35 85.33,41.36 31.22,10.99 62.45,21.1 93.67,30.33 25.95,7.04 51.02,14.53 75.21,22.88 24.19,8.35 45.74,18.03 64.65,29.02 18.48,10.99 32.99,23.31 43.98,37.82 11.01,14.53 16.27,31.68 16.27,51.47l0 3.07c0,39.15 -15.39,70.38 -46.17,92.81 -31.23,22.86 -70.81,34.3 -119.62,34.3 -47.95,0 -95.01,-8.8 -142.07,-26.4 -47.06,-17.58 -92.36,-43.1 -135.9,-76.07l-60.25 85.32c45.29,36.49 97.63,65.08 156.57,86.2 58.93,21.1 117.43,31.66 175.49,31.66 40.01,0 77.83,-5.28 112.58,-16.27 34.75,-10.99 64.65,-26.83 89.72,-47.5 25.07,-20.67 45.31,-45.74 60.7,-75.21 14.96,-29.47 22.43,-63.32 22.43,-101.59z"/>
  </g>
 </g>
</svg>
