<?xml version="1.0" encoding="UTF-8"?>
<!DOCTYPE svg PUBLIC "-//W3C//DTD SVG 1.1//EN" "http://www.w3.org/Graphics/SVG/1.1/DTD/svg11.dtd">
<!-- Creator: CorelDRAW (Versão OEM) -->
<svg xmlns="http://www.w3.org/2000/svg" xml:space="preserve" width="168mm" height="113mm" version="1.1" style="shape-rendering:geometricPrecision; text-rendering:geometricPrecision; image-rendering:optimizeQuality; fill-rule:evenodd; clip-rule:evenodd"
viewBox="0 0 16800 11300"
 xmlns:xlink="http://www.w3.org/1999/xlink"
 xmlns:xodm="http://www.corel.com/coreldraw/odm/2003">
 <defs>
  <style type="text/css">
   <![CDATA[
    .fil2 {fill:black}
    .fil4 {fill:#BE3917}
    .fil8 {fill:#CEA80A}
    .fil1 {fill:#DB8933}
    .fil3 {fill:#E25024}
    .fil0 {fill:#ECAB4E}
    .fil5 {fill:#F6CF07}
    .fil7 {fill:#FE856A}
    .fil6 {fill:#FED88C}
   ]]>
  </style>
 </defs>
 <g id="Camada_x0020_1">
  <metadata id="CorelCorpID_0Corel-Layer"/>
  <g id="_1924797046368">
   <path class="fil0" d="M5392.76 7854.84c-176.58,488.69 -1482.28,568.02 -2081.7,618.79 -394.96,34.91 -1482.27,152.32 -1733.19,-212.61 -116.17,-161.84 -27.88,-387.14 60.4,-504.56 534.37,-701.3 2202.51,-948.82 3164.36,-628.31 278.8,92.02 734.17,342.72 590.13,726.69zm1863.3 -291.95c-130.11,260.21 -1096.61,491.87 -1347.53,336.37 -278.79,-171.36 -41.82,-818.71 701.65,-863.14 469.31,-25.38 771.34,282.43 645.88,526.77zm-2718.28 -856.79l-1217.42 -6.35c-432.14,-15.87 -710.94,34.91 -1059.44,190.4 -511.13,228.48 -966.5,729.86 -1143.07,1348.66 -204.45,723.51 41.82,1510.5 408.9,1929.37 199.81,228.48 371.74,387.15 701.65,548.99 199.8,98.37 766.69,272.9 1017.61,237.99 209.1,-22.21 525.07,-111.06 752.76,-161.83 650.52,-142.8 1561.27,-380.8 2179.27,-571.2 943.27,-288.77 1835.42,-583.89 2718.28,-942.48 933.97,-377.62 1607.74,-710.82 2476.66,-1186.81 422.84,-231.66 1840.07,-1132.88 2137.45,-1516.85 320.62,-415.7 441.43,-879.01 264.86,-1412.12 -144.05,-431.57 -478.6,-786.98 -906.09,-923.44 -116.17,-38.08 -250.92,-66.64 -385.68,-72.98 -255.56,-12.7 -204.45,-3.18 -348.49,107.89 -339.21,266.56 -692.35,536.29 -1073.38,755.25 -190.51,107.89 -376.37,215.78 -580.83,330.02 -1222.06,666.4 -2760.1,1126.53 -4205.2,1282.02 -385.67,41.25 -1389.35,104.72 -1737.84,63.47z"/>
   <path class="fil1" d="M4537.78 6706.1c348.49,41.25 1352.17,-22.22 1737.84,-63.47 1445.1,-155.49 2983.14,-615.62 4205.2,-1282.02 204.46,-114.24 390.32,-222.13 580.83,-330.02 381.03,-218.96 734.17,-488.69 1073.38,-755.25 144.04,-111.07 92.93,-120.59 348.49,-107.89 134.76,6.34 269.51,34.9 385.68,72.98 427.49,136.46 762.04,491.87 906.09,923.44 176.57,533.11 55.76,996.42 -264.86,1412.12 -297.38,383.97 -1714.61,1285.19 -2137.45,1516.85 -868.92,475.99 -1542.69,809.19 -2476.66,1186.81 -882.86,358.59 -1775.01,653.71 -2718.28,942.48 -618,190.4 -1528.75,428.4 -2179.27,571.2 -227.69,50.77 -543.66,139.62 -752.76,161.83 88.29,60.3 924.68,76.16 1087.31,79.34 1658.85,19.04 3443.16,-314.16 4981.2,-859.97 1129.13,-399.84 2174.62,-875.84 3187.59,-1488.28 497.19,-301.47 961.85,-609.28 1403.29,-932.96 232.33,-171.36 441.43,-333.2 659.82,-510.9l473.95 -403.01c55.76,-57.12 88.29,-69.82 153.34,-136.46l306.68 -279.25c55.76,-47.6 92.93,-98.37 144.05,-145.97 278.8,-263.38 460.01,-479.17 599.41,-863.14 236.98,-650.53 92.94,-1389.91 -241.62,-1859.56 -288.09,-406.19 -752.76,-793.33 -1459.05,-872.66 -357.79,-41.26 -720.22,19.04 -1012.96,142.8 -422.85,177.7 -673.76,456.95 -1003.68,748.9 -1119.84,983.73 -2592.82,1840.52 -4075.1,2351.42 -971.14,333.2 -1812.18,539.47 -2834.44,675.92 -134.76,15.87 -1050.14,88.85 -1078.02,104.72z"/>
   <path class="fil2" d="M3246.01 10955.16c-250.92,34.91 -817.81,-139.62 -1017.61,-237.99 -329.91,-161.84 -501.84,-320.51 -701.65,-548.99 -367.08,-418.87 -613.35,-1205.86 -408.9,-1929.37 176.57,-618.8 631.94,-1120.18 1143.07,-1348.66 348.5,-155.49 627.3,-206.27 1059.44,-190.4l1217.42 6.35c27.88,-15.87 943.26,-88.85 1078.02,-104.72 1022.26,-136.45 1863.3,-342.72 2834.44,-675.92 1482.28,-510.9 2955.26,-1367.69 4075.1,-2351.42 329.92,-291.95 580.83,-571.2 1003.68,-748.9 292.74,-123.76 655.17,-184.06 1012.96,-142.8 706.29,79.33 1170.96,466.47 1459.05,872.66 334.56,469.65 478.6,1209.03 241.62,1859.56 -139.4,383.97 -320.61,599.76 -599.41,863.14 -51.12,47.6 -88.29,98.37 -144.05,145.97l-306.68 279.25c-65.05,66.64 -97.58,79.34 -153.34,136.46l-473.95 403.01c-218.39,177.7 -427.49,339.54 -659.82,510.9 -441.44,323.68 -906.1,631.49 -1403.29,932.96 -1012.97,612.44 -2058.46,1088.44 -3187.59,1488.28 -1538.04,545.81 -3322.35,879.01 -4981.2,859.97 -162.63,-3.18 -999.02,-19.04 -1087.31,-79.34zm3289.82 -6349.8c-60.41,117.42 -325.27,266.56 -515.78,323.68 -125.46,38.08 -223.04,3.18 -329.91,-44.42 -37.17,-19.04 -227.68,-111.07 -246.27,-152.32 -65.05,-22.22 -353.14,-225.31 -394.96,-269.73 297.38,-60.3 618,-82.51 924.68,-136.46 144.04,-28.56 292.73,-53.94 436.78,-85.68 139.4,-28.56 302.03,-76.16 436.78,-98.37 -27.88,88.85 -223.03,425.23 -311.32,463.3zm2708.99 -1380.39c32.53,-31.73 255.56,-155.49 320.62,-196.74 404.25,-244.35 548.3,-390.32 887.5,-637.84 -9.29,282.43 -78.99,679.09 -274.15,882.18 -55.76,60.3 -106.87,82.51 -213.74,82.51 -153.34,3.17 -636.59,-85.68 -720.23,-130.11zm3094.66 -1599.35l-315.97 -22.21c-195.16,-3.17 -399.61,-6.35 -571.54,50.77 -441.43,142.8 -199.8,786.99 -404.26,1443.86 -144.04,476 -432.13,866.32 -901.44,939.3 -116.17,19.04 -408.91,22.21 -534.37,-15.86l-27.88 -12.7c-130.1,19.04 -845.68,-190.4 -1119.84,-199.92 -859.62,0 -882.86,590.24 -1259.24,1104.32 -269.5,368.1 -827.1,748.9 -1333.58,726.68 -65.05,-3.17 -195.16,-12.69 -241.62,-50.77 -236.98,12.7 -789.93,-409.36 -929.33,-514.07 -209.1,-152.32 -599.42,-469.66 -943.27,-495.04 -232.33,-9.52 -376.38,76.16 -511.13,187.22 -153.34,123.76 -236.98,206.27 -357.79,349.07 -111.52,130.1 -213.75,244.34 -311.33,396.66 -41.82,66.64 -88.28,152.32 -167.27,187.23 -92.94,38.08 -213.75,22.21 -255.57,-50.78 -32.53,-19.04 -51.11,-38.07 -69.7,-82.5 -13.94,-44.43 -18.59,-79.33 -13.94,-126.93 9.29,-66.64 65.05,-136.46 97.58,-184.06 223.04,-320.5 483.25,-637.83 794.58,-879 743.46,-571.2 1356.81,-177.71 1965.52,269.73 288.09,212.61 752.76,596.58 1138.43,495.03 134.75,-34.9 292.74,-114.23 390.32,-177.7 422.84,-272.91 464.66,-545.81 715.58,-942.47 669.11,-1053.54 1635.61,-628.32 2472.01,-479.18 446.08,76.16 622.65,25.39 803.87,-276.07 353.14,-590.24 92.93,-1329.62 446.07,-1799.27 408.91,-539.46 1696.03,-307.81 1775.02,-250.69 144.05,41.25 227.69,237.99 102.23,374.45 -97.58,114.24 -246.28,85.68 -381.03,53.94l-27.88 -9.52c0,0 -9.29,0 -9.29,-3.17 -4.65,-6.35 -9.29,-3.17 -13.94,-6.35zm-11514.37 6013.43c-74.34,-76.16 -204.45,-307.81 -255.56,-434.74 -232.33,-580.72 -181.22,-1148.74 102.22,-1675.51 339.21,-637.84 1022.26,-993.25 1779.67,-980.55l-74.35 85.67c-162.63,193.58 -302.03,355.42 -446.08,587.07 -195.16,314.16 0,672.74 320.62,710.82 246.27,9.52 343.85,-60.29 469.31,-244.35 171.93,-241.17 580.83,-790.15 887.51,-882.18 55.76,-15.86 111.52,-15.86 167.28,-6.34 18.58,3.17 65.05,12.69 74.34,15.86l55.76 31.74c162.64,3.17 743.46,469.65 887.51,568.02 260.21,174.53 608.71,415.7 1022.26,437.92 631.94,41.25 1240.65,-368.11 1579.86,-828.24 167.28,-231.65 288.09,-526.77 455.37,-755.25 250.92,-333.19 831.75,-257.03 910.74,-190.4 106.87,-9.52 390.32,72.99 511.13,101.55 162.63,34.91 343.85,72.99 511.13,85.68 748.11,19.04 1026.91,-231.65 1301.06,-701.3 376.37,-647.36 236.98,-1421.65 348.49,-1637.43 83.64,-161.84 673.77,-107.89 873.57,-79.33 144.05,22.21 288.09,72.98 436.79,19.04 418.19,-145.98 404.25,-748.91 -27.88,-869.49 -255.57,-72.99 -613.36,-92.03 -892.16,-98.37 181.22,-218.96 673.76,-425.23 999.03,-472.83 827.1,-120.58 1528.74,263.39 1928.35,961.52 181.22,314.15 306.68,742.55 292.74,1180.47 -181.22,-38.08 -311.32,-88.85 -515.78,-107.89 -543.65,-50.78 -1026.9,88.85 -1459.04,364.93 -250.92,158.66 -464.66,409.35 -664.47,564.85 -55.76,41.25 -116.16,98.37 -167.28,142.8 -511.13,456.95 -1398.63,1034.5 -1993.4,1355 -2104.93,1132.87 -4470.07,1694.55 -6937.43,1596.18 -710.94,-28.56 -1301.06,193.57 -1779.67,653.7 -125.45,114.24 -427.49,498.21 -497.19,720.34 -55.76,-25.39 -181.21,-180.88 -204.45,-218.96zm9980.98 -6403.74c-18.59,47.6 -9.29,15.86 -51.11,60.29 -97.58,107.89 -246.28,403.01 -246.28,536.29 -13.94,72.99 -18.58,161.84 -32.52,218.96 -32.53,117.41 -762.05,621.97 -859.63,688.61 -181.22,117.41 -362.44,222.13 -557.6,333.19 -162.63,92.03 -153.34,82.51 -357.79,57.12 -148.69,-19.04 -288.09,-22.21 -446.08,-15.86 -659.82,85.68 -766.69,301.46 -892.15,336.37l-69.7 76.16c-78.99,88.85 -106.87,104.72 -185.86,209.44 -37.18,47.6 -65.06,120.58 -120.82,142.8 -102.22,47.6 -938.62,212.61 -1068.72,234.82 -306.68,57.12 -618.01,98.37 -929.33,133.28 -274.15,28.56 -190.51,28.56 -385.67,-88.85 -134.75,-79.34 -241.63,-117.41 -306.68,-155.49l-37.17 -28.56c-69.7,0 -204.45,-57.12 -292.74,-72.99 -520.42,-98.37 -762.05,107.89 -868.92,123.76l-51.12 34.9c-478.6,310.99 -260.21,276.08 -664.46,269.74 -469.31,-6.35 -534.37,85.68 -854.99,158.66 27.88,-114.24 111.52,-310.98 181.22,-371.28 65.06,-145.97 236.98,-304.63 348.5,-399.83 562.24,-460.13 1189.54,-314.16 1895.83,-336.37 864.27,-25.39 1784.31,-171.36 2564.94,-403.01 1240.65,-368.11 2025.94,-758.43 3029.61,-1440.69 148.69,-101.54 288.09,-209.44 422.84,-317.33l404.26 -330.02 343.85 -307.82c520.43,-371.27 915.39,-352.23 1477.63,-203.09 -41.82,44.43 -404.25,196.75 -650.53,479.17 -120.81,136.45 -106.87,47.6 -390.31,161.84 -148.7,60.29 -241.63,133.28 -348.5,215.79zm-7025.72 1929.37c-204.45,0 -822.45,-12.69 -966.5,3.17 -320.61,41.26 -724.87,203.1 -952.56,431.57 -125.46,126.94 -120.81,85.68 -260.21,272.91 -297.38,396.66 -306.68,694.96 -357.79,755.25 -65.05,82.5 -822.45,434.74 -1008.32,1466.07l-37.17 377.62c0,63.47 13.94,53.95 13.94,123.76 27.88,498.21 185.86,840.93 450.72,1196.34 69.7,95.2 171.93,212.61 274.15,279.25 -27.88,111.07 -65.05,215.79 -88.28,342.72 -111.52,691.78 88.28,1485.11 590.12,1983.32 153.34,152.32 209.1,222.13 390.32,345.89 311.32,209.44 627.29,339.55 1078.02,403.01 469.31,63.47 943.26,98.38 1417.22,107.9l102.23 0 97.58 0 102.22 0 102.23 0c1556.62,-25.39 3103.95,-330.03 4567.64,-834.59 339.21,-117.41 659.82,-237.99 980.44,-374.45 571.54,-241.17 868.92,-380.79 1398.64,-647.35 83.64,-41.26 139.4,-72.99 223.04,-117.42l1496.22 -898.04 1551.97 -1170.96c232.33,-187.22 947.92,-840.92 1073.38,-990.07 622.64,-745.73 748.1,-1685.03 302.03,-2570.38 -120.82,-231.65 -274.15,-403.01 -450.73,-580.72 -116.16,-120.58 -469.31,-377.62 -618,-412.53 74.35,-317.33 -78.99,-882.18 -181.22,-1110.66 -55.76,-133.28 -111.52,-253.86 -185.86,-364.93l-111.52 -165.01c-506.49,-679.09 -1328.94,-980.56 -2225.74,-758.42 -176.57,44.42 -227.69,-199.92 -985.09,-199.92 -190.51,0 -422.84,57.12 -562.24,114.24 -181.22,72.98 -292.74,139.62 -432.14,244.34 -139.4,101.55 -385.67,345.89 -543.66,472.83l-385.67 307.81c-65.05,47.6 -125.46,88.85 -195.16,142.8 -134.75,98.37 -264.85,180.87 -404.25,272.9 -1398.64,929.78 -3536.09,1551.75 -5260,1551.75z"/>
   <path class="fil3" d="M1573.22 5005.2c232.33,-41.25 302.03,126.93 218.39,320.51 -125.46,276.08 -687.7,948.82 -906.09,1034.5 -218.39,85.68 -278.8,-142.8 -236.98,-333.2 78.99,-390.32 520.42,-942.47 924.68,-1021.81zm8210.61 -739.38c-167.28,-12.69 -348.5,-50.77 -511.13,-85.68 -120.81,-28.56 -404.26,-111.07 -511.13,-101.55 -92.93,6.35 -199.81,-22.21 -297.39,3.18 -69.7,19.04 -153.34,57.12 -223.04,79.33 -111.51,41.25 -130.1,38.08 -204.45,107.89 -246.27,238 -339.2,599.76 -585.47,904.4 -250.92,310.98 -669.12,621.97 -1110.55,704.47 -134.75,25.39 -422.84,47.6 -525.07,-25.38 -413.55,-22.22 -762.05,-263.39 -1022.26,-437.92 -144.05,-98.37 -724.87,-564.85 -887.51,-568.02 -311.32,-66.64 -831.75,571.19 -980.44,783.8 -46.46,66.64 -92.93,149.15 -144.04,209.44 -46.47,57.12 -116.17,117.42 -218.4,133.28l-241.62 -15.86c-37.17,-6.35 -18.59,-3.18 -41.82,-9.52l-27.88 -15.87c-320.62,-38.08 -515.78,-396.66 -320.62,-710.82 144.05,-231.65 283.45,-393.49 446.08,-587.07l74.35 -85.67c-757.41,-12.7 -1440.46,342.71 -1779.67,980.55 -283.44,526.77 -334.55,1094.79 -102.22,1675.51 51.11,126.93 181.22,358.58 255.56,434.74 37.18,-9.52 23.24,0 46.47,-31.73 0,-3.17 23.23,-47.6 23.23,-53.95 106.87,-212.61 274.15,-437.91 436.79,-596.58 878.21,-869.49 1747.13,-653.7 2834.44,-694.96 1403.29,-50.77 2778.69,-301.46 4000.76,-726.68 1189.54,-412.54 2248.97,-977.38 3117.89,-1599.35 120.81,-85.68 236.98,-171.36 343.85,-257.04 139.4,-107.9 539.01,-422.05 641.24,-529.95 92.93,-92.02 213.74,-184.05 306.68,-279.25 199.8,-203.09 199.8,-577.54 -199.81,-736.21 -162.63,-63.46 -339.2,-69.81 -511.13,-19.04 -199.8,53.95 -260.21,123.76 -394.96,187.23 -46.47,647.36 -55.76,1028.15 -376.38,1500.98 -213.75,317.33 -473.96,488.69 -882.86,507.73 -83.64,3.17 -353.15,6.34 -427.49,-44.43z"/>
   <path class="fil4" d="M13947.22 1333.68c-4.65,69.81 -9.3,95.2 -27.88,142.8 -148.7,25.38 -97.58,-47.6 -92.94,-304.64 -111.52,3.17 -264.86,25.39 -339.2,-19.04 -13.94,-165.01 181.22,-79.33 329.91,-111.07 18.59,-79.33 -51.11,-342.71 51.11,-349.06 102.23,-3.17 83.64,234.83 83.64,330.02 130.11,22.22 223.04,-60.29 311.33,9.52 23.23,199.92 -278.8,34.91 -311.33,168.19l-4.64 133.28zm-4163.39 2932.14c74.34,50.77 343.85,47.6 427.49,44.43 408.9,-19.04 669.11,-190.4 882.86,-507.73 320.62,-472.83 329.91,-853.62 376.38,-1500.98 134.75,-63.47 195.16,-133.28 394.96,-187.23 171.93,-50.77 348.5,-44.42 511.13,19.04 399.61,158.67 399.61,533.12 199.81,736.21 -92.94,95.2 -213.75,187.23 -306.68,279.25 -102.23,107.9 -501.84,422.05 -641.24,529.95 -106.87,85.68 -223.04,171.36 -343.85,257.04 -868.92,621.97 -1928.35,1186.81 -3117.89,1599.35 -1222.07,425.22 -2597.47,675.91 -4000.76,726.68 -1087.31,41.26 -1956.23,-174.53 -2834.44,694.96 -162.64,158.67 -329.92,383.97 -436.79,596.58 0,6.35 -23.23,50.78 -23.23,53.95 -23.23,31.73 -9.29,22.21 -46.47,31.73 23.24,38.08 148.69,193.57 204.45,218.96 69.7,-222.13 371.74,-606.1 497.19,-720.34 478.61,-460.13 1068.73,-682.26 1779.67,-653.7 2467.36,98.37 4832.5,-463.31 6937.43,-1596.18 594.77,-320.5 1482.27,-898.05 1993.4,-1355 51.12,-44.43 111.52,-101.55 167.28,-142.8 199.81,-155.5 413.55,-406.19 664.47,-564.85 432.14,-276.08 915.39,-415.71 1459.04,-364.93 204.46,19.04 334.56,69.81 515.78,107.89 13.94,-437.92 -111.52,-866.32 -292.74,-1180.47 -399.61,-698.13 -1101.25,-1082.1 -1928.35,-961.52 -325.27,47.6 -817.81,253.87 -999.03,472.83 278.8,6.34 636.59,25.38 892.16,98.37 432.13,120.58 446.07,723.51 27.88,869.49 -148.7,53.94 -292.74,3.17 -436.79,-19.04 -199.8,-28.56 -789.93,-82.51 -873.57,79.33 -111.51,215.78 27.88,990.07 -348.49,1637.43 -274.15,469.65 -552.95,720.34 -1301.06,701.3z"/>
   <path class="fil0" d="M3645.62 3710.49c-157.98,130.11 -1640.26,288.77 -1375.4,-9.52 153.34,-174.53 1389.34,-342.72 1375.4,9.52zm631.94 -196.74c381.03,-57.12 641.24,145.97 102.23,203.09 -83.64,9.52 -367.08,66.64 -394.96,-34.91 -27.88,-104.72 185.86,-155.49 292.73,-168.18zm-2569.59 602.92c32.53,19.04 41.82,0 125.46,-22.21 357.79,-98.37 525.07,-66.64 868.92,-63.46 130.11,0 264.86,-15.87 394.97,-6.35 106.87,-15.87 348.5,-222.13 868.92,-123.76 88.29,15.87 223.04,72.99 292.74,72.99 218.39,15.86 613.35,-28.56 845.69,-53.95 269.5,-25.39 539,-60.29 799.22,-104.72 483.25,-85.68 1040.84,-184.05 1459.04,-364.93 125.46,-34.91 232.33,-250.69 892.15,-336.37l641.24 -263.39c204.45,-104.72 381.03,-193.57 571.54,-301.46 185.86,-107.89 376.37,-231.65 534.36,-345.89 162.63,-123.76 357.79,-253.87 483.25,-390.32 32.53,12.69 37.17,-12.69 23.23,19.04 0,-133.28 148.7,-428.4 246.28,-536.29 41.82,-44.43 32.52,-12.69 51.11,-60.29 -78.99,-209.44 -167.28,-326.85 -432.14,-345.89l-404.26 330.02c-134.75,107.89 -274.15,215.79 -422.84,317.33 -1003.67,682.26 -1788.96,1072.58 -3029.61,1440.69 -780.63,231.65 -1700.67,377.62 -2564.94,403.01 -706.29,22.21 -1333.59,-123.76 -1895.83,336.37 -111.52,95.2 -283.44,253.86 -348.5,399.83z"/>
   <path class="fil5" d="M3064.79 4513.34c-46.46,-180.88 529.72,-526.77 938.62,-203.09 92.93,76.16 130.11,149.14 -41.82,120.58 -241.62,-34.9 -376.38,-53.94 -622.65,12.7 -92.93,22.21 -185.86,69.81 -274.15,69.81zm5552.73 -818.72c-148.69,19.04 -315.97,-76.16 -631.94,-15.86 -102.23,19.04 -181.22,47.6 -274.15,79.33 -306.68,95.2 46.46,-345.89 469.31,-320.5 167.28,6.34 450.72,126.93 436.78,257.03zm2258.27 -1999.18c-9.3,-165.02 250.92,-355.41 394.96,-406.19 176.57,-57.12 571.54,-38.08 594.77,136.46 -144.04,50.77 -353.14,19.04 -552.95,88.85 -213.74,72.98 -348.5,206.26 -436.78,180.88zm-8721.74 3953.94c153.34,15.87 306.68,-333.19 487.9,-533.11 32.52,-34.91 46.46,-60.29 78.99,-92.03 148.69,-152.32 264.86,-285.6 464.66,-409.36 213.75,-136.45 548.31,-53.94 571.54,-34.9 343.85,25.38 734.17,342.72 943.27,495.04 139.4,104.71 692.35,526.77 929.33,514.07 399.61,63.47 952.56,-279.25 1212.77,-533.11 106.87,-104.72 176.57,-196.75 264.86,-333.2 148.69,-228.48 269.5,-539.47 450.72,-720.34 176.57,-177.71 367.08,-241.18 636.59,-231.66 92.93,3.18 213.74,6.35 269.5,38.08 274.16,9.52 989.74,218.96 1119.84,199.92 436.79,22.22 641.24,-69.81 915.39,-320.5 162.63,-149.15 348.5,-517.25 422.84,-809.2 213.75,-863.14 -125.45,-1259.8 534.37,-1310.58 92.93,-9.52 432.13,-12.69 534.36,19.04l23.23 9.52c0,-3.17 4.65,3.18 9.3,6.35l315.97 22.21c209.1,15.87 381.02,-184.05 329.91,-409.35 -78.99,-57.12 -1366.11,-288.77 -1775.02,250.69 -353.14,469.65 -92.93,1209.03 -446.07,1799.27 -181.22,301.46 -357.79,352.23 -803.87,276.07 -836.4,-149.14 -1802.9,-574.36 -2472.01,479.18 -250.92,396.66 -292.74,669.56 -715.58,942.47 -97.58,63.47 -255.57,142.8 -390.32,177.7 -385.67,101.55 -850.34,-282.42 -1138.43,-495.03 -608.71,-447.44 -1222.06,-840.93 -1965.52,-269.73 -311.33,241.17 -571.54,558.5 -794.58,879 -32.53,47.6 -88.29,117.42 -97.58,184.06 -4.65,47.6 0,82.5 13.94,126.93 18.59,44.43 37.17,63.46 69.7,82.5z"/>
   <path class="fil6" d="M5392.76 7854.84c144.04,-383.97 -311.33,-634.67 -590.13,-726.69 -961.85,-320.51 -2629.99,-72.99 -3164.36,628.31 -88.28,117.42 -176.57,342.72 -60.4,504.56 250.92,364.93 1338.23,247.52 1733.19,212.61 599.42,-50.77 1905.12,-130.1 2081.7,-618.79z"/>
   <path class="fil6" d="M7256.06 7562.89c125.46,-244.34 -176.57,-552.15 -645.88,-526.77 -743.47,44.43 -980.44,691.78 -701.65,863.14 250.92,155.5 1217.42,-76.16 1347.53,-336.37z"/>
   <path class="fil7" d="M1573.22 5005.2c-404.26,79.34 -845.69,631.49 -924.68,1021.81 -41.82,190.4 18.59,418.88 236.98,333.2 218.39,-85.68 780.63,-758.42 906.09,-1034.5 83.64,-193.58 13.94,-361.76 -218.39,-320.51z"/>
   <path class="fil1" d="M4258.98 3973.88l37.17 28.56c65.05,38.08 171.93,76.15 306.68,155.49 195.16,117.41 111.52,117.41 385.67,88.85 311.32,-34.91 622.65,-76.16 929.33,-133.28 130.1,-22.21 966.5,-187.22 1068.72,-234.82 55.76,-22.22 83.64,-95.2 120.82,-142.8 78.99,-104.72 106.87,-120.59 185.86,-209.44l69.7 -76.16c-418.2,180.88 -975.79,279.25 -1459.04,364.93 -260.22,44.43 -529.72,79.33 -799.22,104.72 -232.34,25.39 -627.3,69.81 -845.69,53.95z"/>
   <path class="fil1" d="M10373.95 889.42c264.86,19.04 353.15,136.45 432.14,345.89 106.87,-82.51 199.8,-155.5 348.5,-215.79 283.44,-114.24 269.5,-25.39 390.31,-161.84 246.28,-282.42 608.71,-434.74 650.53,-479.17 -562.24,-149.14 -957.2,-168.18 -1477.63,203.09l-343.85 307.82z"/>
   <path class="fil8" d="M9584.02 4008.78l27.88 12.7c125.46,38.07 418.2,34.9 534.37,15.86 469.31,-72.98 757.4,-463.3 901.44,-939.3 204.46,-656.87 -37.17,-1301.06 404.26,-1443.86 171.93,-57.12 376.38,-53.94 571.54,-50.77 -4.65,-3.17 -9.3,-9.52 -9.3,-6.35l-23.23 -9.52c-102.23,-31.73 -441.43,-28.56 -534.36,-19.04 -659.82,50.78 -320.62,447.44 -534.37,1310.58 -74.34,291.95 -260.21,660.05 -422.84,809.2 -274.15,250.69 -478.6,342.72 -915.39,320.5z"/>
   <path class="fil1" d="M8255.08 3113.91c157.99,-6.35 297.39,-3.18 446.08,15.86 204.45,25.39 195.16,34.91 357.79,-57.12 195.16,-111.06 376.38,-215.78 557.6,-333.19 97.58,-66.64 827.1,-571.2 859.63,-688.61 13.94,-57.12 18.58,-145.97 32.52,-218.96 13.94,-31.73 9.3,-6.35 -23.23,-19.04 -125.46,136.45 -320.62,266.56 -483.25,390.32 -157.99,114.24 -348.5,238 -534.36,345.89 -190.51,107.89 -367.09,196.74 -571.54,301.46l-641.24 263.39z"/>
   <path class="fil4" d="M5443.87 4732.3c27.88,-22.22 473.96,-50.78 552.95,-60.3 88.29,-9.52 497.19,-82.5 539.01,-66.64 88.29,-38.07 283.44,-374.45 311.32,-463.3 -134.75,22.21 -297.38,69.81 -436.78,98.37 -144.05,31.74 -292.74,57.12 -436.78,85.68 -306.68,53.95 -627.3,76.16 -924.68,136.46 41.82,44.42 329.91,247.51 394.96,269.73z"/>
   <path class="fil4" d="M9244.82 3224.97c83.64,44.43 566.89,133.28 720.23,130.11 106.87,0 157.98,-22.21 213.74,-82.51 195.16,-203.09 264.86,-599.75 274.15,-882.18 -339.2,247.52 -483.25,393.49 -887.5,637.84 -65.06,41.25 -288.09,165.01 -320.62,196.74z"/>
   <path class="fil8" d="M5629.74 5589.09c46.46,38.08 176.57,47.6 241.62,50.77 506.48,22.22 1064.08,-358.58 1333.58,-726.68 376.38,-514.08 399.62,-1104.32 1259.24,-1104.32 -55.76,-31.73 -176.57,-34.9 -269.5,-38.08 -269.51,-9.52 -460.02,53.95 -636.59,231.66 -181.22,180.87 -302.03,491.86 -450.72,720.34 -88.29,136.45 -157.99,228.48 -264.86,333.2 -260.21,253.86 -813.16,596.58 -1212.77,533.11z"/>
   <path class="fil4" d="M5815.6 5852.48c102.23,72.98 390.32,50.77 525.07,25.38 441.43,-82.5 859.63,-393.49 1110.55,-704.47 246.27,-304.64 339.2,-666.4 585.47,-904.4 74.35,-69.81 92.94,-66.64 204.45,-107.89 69.7,-22.21 153.34,-60.29 223.04,-79.33 97.58,-25.39 204.46,3.17 297.39,-3.18 -78.99,-66.63 -659.82,-142.79 -910.74,190.4 -167.28,228.48 -288.09,523.6 -455.37,755.25 -339.21,460.13 -947.92,869.49 -1579.86,828.24z"/>
   <path class="fil1" d="M1707.97 4116.67c-69.7,60.3 -153.34,257.04 -181.22,371.28 320.62,-72.98 385.68,-165.01 854.99,-158.66 404.25,6.34 185.86,41.25 664.46,-269.74l51.12 -34.9c-130.11,-9.52 -264.86,6.35 -394.97,6.35 -343.85,-3.18 -511.13,-34.91 -868.92,63.46 -83.64,22.21 -92.93,41.25 -125.46,22.21z"/>
   <path class="fil6" d="M3645.62 3710.49c13.94,-352.24 -1222.06,-184.05 -1375.4,-9.52 -264.86,298.29 1217.42,139.63 1375.4,9.52z"/>
   <path class="fil8" d="M2154.05 5649.38c41.82,72.99 162.63,88.86 255.57,50.78 78.99,-34.91 125.45,-120.59 167.27,-187.23 97.58,-152.32 199.81,-266.56 311.33,-396.66 120.81,-142.8 204.45,-225.31 357.79,-349.07 134.75,-111.06 278.8,-196.74 511.13,-187.22 -23.23,-19.04 -357.79,-101.55 -571.54,34.9 -199.8,123.76 -315.97,257.04 -464.66,409.36 -32.53,31.74 -46.47,57.12 -78.99,92.03 -181.22,199.92 -334.56,548.98 -487.9,533.11z"/>
   <path class="fil4" d="M2251.63 5931.81l27.88 15.87c23.23,6.34 4.65,3.17 41.82,9.52l241.62 15.86c102.23,-15.86 171.93,-76.16 218.4,-133.28 51.11,-60.29 97.58,-142.8 144.04,-209.44 148.69,-212.61 669.12,-850.44 980.44,-783.8l-55.76 -31.74c-9.29,-3.17 -55.76,-12.69 -74.34,-15.86 -55.76,-9.52 -111.52,-9.52 -167.28,6.34 -306.68,92.03 -715.58,641.01 -887.51,882.18 -125.46,184.06 -223.04,253.87 -469.31,244.35z"/>
   <path class="fil3" d="M5443.87 4732.3c18.59,41.25 209.1,133.28 246.27,152.32 106.87,47.6 204.45,82.5 329.91,44.42 190.51,-57.12 455.37,-206.26 515.78,-323.68 -41.82,-15.86 -450.72,57.12 -539.01,66.64 -78.99,9.52 -525.07,38.08 -552.95,60.3z"/>
   <path class="fil6" d="M10875.79 1695.44c88.28,25.38 223.04,-107.9 436.78,-180.88 199.81,-69.81 408.91,-38.08 552.95,-88.85 -23.23,-174.54 -418.2,-193.58 -594.77,-136.46 -144.04,50.78 -404.26,241.17 -394.96,406.19z"/>
   <path class="fil6" d="M3064.79 4513.34c88.29,0 181.22,-47.6 274.15,-69.81 246.27,-66.64 381.03,-47.6 622.65,-12.7 171.93,28.56 134.75,-44.42 41.82,-120.58 -408.9,-323.68 -985.08,22.21 -938.62,203.09z"/>
   <path class="fil6" d="M8617.52 3694.62c13.94,-130.1 -269.5,-250.69 -436.78,-257.03 -422.85,-25.39 -775.99,415.7 -469.31,320.5 92.93,-31.73 171.92,-60.29 274.15,-79.33 315.97,-60.3 483.25,34.9 631.94,15.86z"/>
   <path class="fil2" d="M13817.11 1041.73c-148.69,31.74 -343.85,-53.94 -329.91,111.07 74.34,44.43 227.68,22.21 339.2,19.04 -4.64,257.04 -55.76,330.02 92.94,304.64 18.58,-47.6 23.23,-72.99 27.88,-142.8l4.64 -133.28c32.53,-133.28 334.56,31.73 311.33,-168.19 -88.29,-69.81 -181.22,12.7 -311.33,-9.52 0,-95.19 18.59,-333.19 -83.64,-330.02 -102.22,6.35 -32.52,269.73 -51.11,349.06z"/>
   <path class="fil6" d="M4277.56 3513.75c-106.87,12.69 -320.61,63.46 -292.73,168.18 27.88,101.55 311.32,44.43 394.96,34.91 539.01,-57.12 278.8,-260.21 -102.23,-203.09z"/>
   <path class="fil8" d="M12339.48 1625.62c4.65,3.18 9.29,0 13.94,6.35 0,3.17 9.29,3.17 9.29,3.17l27.88 9.52c134.75,31.74 283.45,60.3 381.03,-53.94 125.46,-136.46 41.82,-333.2 -102.23,-374.45 51.11,225.3 -120.81,425.22 -329.91,409.35z"/>
  </g>
 </g>
</svg>
